<?xml version="1.0" encoding="UTF-8" standalone="no"?>
<!-- Created with Inkscape (http://www.inkscape.org/) -->

<svg
   xmlns:dc="http://purl.org/dc/elements/1.1/"
   xmlns:cc="http://creativecommons.org/ns#"
   xmlns:rdf="http://www.w3.org/1999/02/22-rdf-syntax-ns#"
   xmlns:svg="http://www.w3.org/2000/svg"
   xmlns="http://www.w3.org/2000/svg"
   xmlns:sodipodi="http://sodipodi.sourceforge.net/DTD/sodipodi-0.dtd"
   xmlns:inkscape="http://www.inkscape.org/namespaces/inkscape"
   width="210mm"
   height="297mm"
   id="svg3034"
   version="1.1"
   inkscape:version="0.48.2 r9819"
   sodipodi:docname="Nouveau document 2">
  <defs
     id="defs3036">
    <inkscape:path-effect
       effect="interpolate"
       id="path-effect3045"
       is_visible="true"
       trajectory="M 0,0 0,0"
       equidistant_spacing="true"
       steps="2" />
  </defs>
  <sodipodi:namedview
     id="base"
     pagecolor="#ffffff"
     bordercolor="#666666"
     borderopacity="1.0"
     inkscape:pageopacity="0.0"
     inkscape:pageshadow="2"
     inkscape:zoom="1.4"
     inkscape:cx="609.38977"
     inkscape:cy="847.6967"
     inkscape:document-units="px"
     inkscape:current-layer="layer1"
     showgrid="false"
     inkscape:window-width="1680"
     inkscape:window-height="988"
     inkscape:window-x="-8"
     inkscape:window-y="-8"
     inkscape:window-maximized="1" />
  <metadata
     id="metadata3039">
    <rdf:RDF>
      <cc:Work
         rdf:about="">
        <dc:format>image/svg+xml</dc:format>
        <dc:type
           rdf:resource="http://purl.org/dc/dcmitype/StillImage" />
        <dc:title></dc:title>
      </cc:Work>
    </rdf:RDF>
  </metadata>
  <g
     inkscape:label="Calque 1"
     inkscape:groupmode="layer"
     id="layer1">
    <g
       id="g5459"
       transform="matrix(0.9645172,0.25037422,-0.31111783,0.77620195,100.09721,-334.90286)">
      <g
         transform="translate(164.89126,276.19549)"
         id="g5449">
        <path
           inkscape:connector-curvature="0"
           id="path5455"
           d="m 349.13384,234.69981 c -0.70711,-1.8427 -1.39826,-0.77548 14.60254,-22.54789 16.23359,-22.08917 26.72216,-38.10359 33.4022,-51 2.70642,-5.225 6.7865,-13.1 9.06683,-17.5 2.28033,-4.4 6.9567,-12.65681 10.39194,-18.34847 3.43523,-5.69165 6.47791,-11.54165 6.76151,-13 0.48247,-2.48097 -0.88729,-3.63148 -21.29469,-17.88624 C 380.1155,79.08588 375.16588,75.27354 352.57741,56.3012 339.6762,45.4653 337.32819,42.66655 339.81726,41.09156 c 1.85847,-1.17598 5.00022,-1.15767 12.58476,0.0734 3.4532,0.56047 7.14021,0.63091 8.41134,0.16069 4.63572,-1.71487 30.10764,7.35742 46.79332,16.66629 4.59406,2.56301 10.03207,5.56002 12.08446,6.66002 2.05239,1.1 5.12061,3.01786 6.81826,4.26191 1.69765,1.24405 5.59183,3.57972 8.65374,5.19038 4.96784,2.61324 5.72983,2.76573 7.0789,1.41666 0.83149,-0.8315 1.5118,-2.15466 1.5118,-2.94038 0,-0.78571 0.5625,-1.486 1.25,-1.55619 0.6875,-0.0702 2.22989,-0.23219 3.42753,-0.35999 2.23924,-0.23895 7.23456,-5.13087 7.29087,-7.13995 0.0174,-0.62015 0.7126,-1.69273 1.54494,-2.38351 0.83234,-0.69078 6.62687,-7.83338 12.87673,-15.87245 12.42962,-15.98796 20.0626,-24.11647 22.64626,-24.11647 0.91735,0 3.05782,-1.0125 4.75661,-2.25 4.06036,-2.95781 17.1804,-13.7233497 19.26381,-15.8067497 2.35666,-2.35666998 10.63214,-7.943254 11.76644,-7.943254 1.93784,0 1.94765,2.795964 0.0249,7.090604 l -1.9702,4.40058 2.86579,-2.74559 c 4.03299,-3.86385998 5.64245,-3.61724998 4.82515,0.73932 -0.51978,2.77067 -0.36292,3.37331 0.76534,2.94036 1.16515,-0.44711 1.27002,0.2267 0.58603,3.7650797 -0.45819,2.3703 -0.85268,5.17559 -0.87663,6.23396 -0.0413,1.82385 0.0773,1.81079 2.2709,-0.25 1.27295,-1.19587 2.62295,-2.17431 3,-2.17431 1.82031,0 0.0185,3.01853 -7.56445,12.67247 -4.5375,5.77675 -8.925,11.48906 -9.75,12.69403 -0.825,1.20496 -3.975,5.48933 -7,9.52081 -3.025,4.03148 -5.36777,7.95608 -5.20616,8.72133 0.16161,0.76525 -0.33115,1.39136 -1.09502,1.39136 -1.97549,0 -4.45714,3.06525 -4.85764,6 -0.24373,1.78594 -0.86607,2.41032 -2.17887,2.18603 -1.43962,-0.24597 -1.69823,0.12544 -1.19386,1.71456 0.41766,1.31594 -0.16628,3.18266 -1.66231,5.31397 -2.88582,4.11128 -3.7564,4.74176 -5.58086,4.04165 -1.10043,-0.42228 -1.2925,-0.0434 -0.78637,1.55132 0.47731,1.50385 -0.35143,3.62639 -2.8846,7.38792 -1.95487,2.90282 -3.55431,5.60091 -3.55431,5.99575 0,0.39484 -1.16439,1.88228 -2.58753,3.30542 -2.84555,2.84555 -2.22604,4.80521 1.92784,6.09817 1.18783,0.36973 3.73469,1.88186 5.65969,3.36027 1.925,1.47842 4.94758,3.26675 6.71684,3.97407 1.76927,0.70733 3.7879,1.97411 4.48584,2.81509 0.69795,0.84097 3.07537,2.38674 5.28316,3.43504 2.20779,1.0483 5.81416,3.00645 8.01416,4.35144 2.2,1.34499 5.20781,2.93448 6.68402,3.53219 1.4762,0.59772 3.39908,2.17809 4.27305,3.51193 0.87397,1.33385 2.47866,2.42518 3.56598,2.42518 1.08732,0 2.87695,0.9 3.97695,2 1.1,1.1 2.42764,2 2.95031,2 0.52267,0 1.31017,0.5625 1.75,1.25 0.94563,1.47811 9.99243,7.75 11.17889,7.75 0.4514,0 2.57574,1.26558 4.72076,2.81239 2.14502,1.54681 6.15004,4.04504 8.90004,5.55162 2.75,1.50658 6.10097,3.64727 7.44659,4.75709 2.02827,1.67285 2.19925,2.18059 1,2.96958 -0.79562,0.52344 -2.90562,0.69743 -4.68887,0.38665 -1.94347,-0.33871 -5.24831,0.14742 -8.25,1.21352 -3.98159,1.41414 -5.00772,2.23556 -5.00772,4.00869 0,1.2909 0.94757,2.73484 2.25,3.42862 2.65363,1.41353 4.67366,3.84667 4.7182,5.68311 0.0503,2.07576 -7.56938,0.50866 -24.46644,-5.03186 -20.09028,-6.58757 -39.02598,-15.72059 -68.00176,-32.79845 -4.4,-2.59329 -9.24136,-5.00944 -10.75858,-5.36922 -2.44087,-0.57881 -3.07762,-0.16223 -5.52876,3.61706 -1.52361,2.34916 -4.33225,6.45016 -6.24143,9.11334 -1.90918,2.66317 -3.47123,5.81101 -3.47123,6.99519 0,1.22576 -0.63331,2.15513 -1.47047,2.15786 -0.80875,0.003 -1.97741,1.02164 -2.59701,2.26444 -0.6196,1.24279 -3.33289,5.0115 -6.02953,8.3749 -2.69665,3.36339 -6.37325,8.19656 -8.17023,10.74037 -1.79698,2.5438 -4.22674,5.7501 -5.39948,7.1251 -1.17274,1.375 -5.32749,6.25847 -9.23277,10.85215 -7.08429,8.33306 -26.47436,24.13102 -29.63181,24.14235 -0.84222,0.003 -4.21722,2.74098 -7.5,6.08434 -8.19222,8.34337 -15.22607,12.92116 -19.85361,12.92116 -2.29283,0 -3.88773,-0.54685 -4.23511,-1.45211 z"
           style="opacity:0.44806519;fill:#ff0c00;fill-opacity:1" />
        <path
           inkscape:connector-curvature="0"
           id="path5453"
           d="m 349.23333,234.02896 c 0,-1.30893 6.70829,-10.94027 15.68132,-22.51425 3.46974,-4.4755 10.88711,-15.0505 16.48304,-23.5 9.47159,-14.3015 13.70522,-21.71808 24.25575,-42.49175 3.67556,-7.23709 6.52606,-11.26469 13.57824,-19.18536 1.13333,-1.27291 2.6804,-4.64791 3.43794,-7.5 0.75754,-2.8521 1.67007,-5.91489 2.02785,-6.8062 0.73889,-1.84076 -2.32216,-4.47549 -14.96414,-12.880027 -10.241,-6.80835 -27.37898,-19.1511 -34.67376,-24.972 -9.89281,-7.89401 -34.70013,-29.01433 -35.38945,-30.12968 -1.55391,-2.51427 1.44929,-3.19531 9.7614,-2.21362 4.56599,0.53926 9.42681,0.6847 10.80181,0.32319 4.72608,-1.24255 33.2604,8.97364 46.5,16.64847 4.4,2.55062 9.8,5.53551 12,6.63309 2.2,1.09758 5.37692,3.04474 7.05982,4.32701 1.68291,1.28228 5.61745,3.69623 8.74343,5.36435 l 5.6836,3.03294 2.00658,-2.00658 c 1.10361,-1.10361 2.00657,-2.45657 2.00657,-3.00657 0,-0.55 1.35428,-1 3.0095,-1 2.39858,0 3.56583,-0.82134 5.75,-4.04603 1.50728,-2.22531 6.35313,-8.41281 10.76856,-13.75 4.41544,-5.33719 8.69044,-10.64758 9.5,-11.80087 5.24634,-7.47386 9.23642,-12.29062 10.6215,-12.82212 1.44763,-0.55551 1.44314,-0.3714 -0.0464,1.90198 -0.90712,1.38437 -1.23308,2.51704 -0.72441,2.51704 0.50866,0 1.75654,-1.2799 2.77305,-2.84421 2.06764,-3.18191 11.78509,-11.82849 26.21828,-23.32903 13.9416,-11.108847 14.88482,-11.826767 15.53808,-11.826767 1.15055,0 0.57031,3.97730405 -1.08738,7.453517 -2.18264,4.57703 -1.03238,5.60242 2.49437,2.22358 3.77864,-3.62016 4.50015,-3.36746 2.69827,0.94503 -1.89263,4.5297 -1.89475,5.37788 -0.0134,5.37788 1.73848,0 1.94402,2.96498 0.54396,7.84672 -0.8036,2.80199 -0.7156,3.24125 0.55194,2.75485 1.98477,-0.76163 1.52718,-0.0323 -7.01969,11.18832 -3.89191,5.10944 -7.97621,10.4987 -9.07621,11.97612 -1.1,1.47743 -4.475,5.82994 -7.5,9.67226 -3.025,3.84231 -6.175,7.94902 -7,9.12603 -0.825,1.17701 -4.3125,5.88625 -7.75,10.46497 -3.4375,4.57873 -6.25,8.83025 -6.25,9.44784 0,0.61759 -0.55521,1.6781 -1.23381,2.3567 -0.67859,0.67859 -1.30268,2.60333 -1.38686,4.27719 -0.0905,1.79994 -1.27379,4.21318 -2.89609,5.9065 -3.16715,3.305787 -2.80424,5.529757 1.14756,7.032227 1.47512,0.56084 4.65921,2.35409 7.07575,3.98499 2.41654,1.6309 4.75364,2.96528 5.19354,2.96528 0.43991,0 2.70548,1.38044 5.0346,3.06765 5.14187,3.72475 9.72131,6.53966 13.06531,8.03103 1.375,0.61323 3.175,1.51797 4,2.01053 0.825,0.49256 2.43386,1.30345 3.57524,1.80198 1.14138,0.49853 2.80304,2.01719 3.69257,3.37479 0.88954,1.35761 2.88069,2.78371 4.42477,3.16911 1.54408,0.3854 3.48242,1.28102 4.30742,1.99025 4.26886,3.66984 19.65086,13.46479 30.75,19.58098 5.79515,3.19342 5.89184,5.33949 0.25,5.54869 -1.925,0.0714 -5.3,0.82621 -7.5,1.6774 -5.07468,1.96343 -6.00591,5.71477 -2.06038,8.29998 3.34512,2.19181 3.31775,4.44761 -0.054,4.44761 -3.37492,0 -20.36563,-5.18738 -31.88565,-9.73491 -11.91504,-4.70346 -32.75477,-15.26876 -49.81374,-25.2545 -17.9001,-10.4781 -18.49815,-10.59377 -22.5261,-4.35662 -17.64512,27.32286 -47.19522,65.5174 -52.91384,68.39298 -1.51048,0.75954 -3.94079,2.18469 -5.40069,3.16701 -3.71808,2.50178 -4.36414,2.22934 -2.28599,-0.96396 2.51052,-3.8577 0.74621,-2.29107 -12.09242,10.73748 -12.55018,12.73586 -21.17441,19.01252 -26.12347,19.01252 -1.83905,0 -3.34372,-0.50535 -3.34372,-1.12301 z"
           style="opacity:0.70246432;fill:#ff0000;fill-opacity:1" />
        <path
           inkscape:connector-curvature="0"
           id="path5451"
           d="m 350.21264,232.45513 c 0,-0.63669 1.71662,-3.44919 3.81472,-6.25 2.09809,-2.8008 7.19758,-9.59237 11.33219,-15.09237 16.07674,-21.3858 27.02265,-39.10574 40.46047,-65.5 1.8201,-3.575 5.01553,-8.36865 7.10095,-10.65255 6.26709,-6.86358 8.65382,-10.41494 11.58004,-17.23063 l 2.78837,-6.49463 -2.29584,-2.29584 c -1.26271,-1.26271 -8.41219,-6.4652 -15.88772,-11.561087 -24.93122,-16.99502 -32.46789,-22.72102 -56.28838,-42.76526 -6.86299,-5.775 -12.50666,-11.11435 -12.54148,-11.86523 -0.0506,-1.09098 1.09172,-1.20407 5.68668,-0.56296 3.1625,0.44125 8.675,0.86458 12.25,0.94074 6.99312,0.14897 17.16922,2.77227 26,6.70252 3.025,1.34632 6.85,2.78402 8.5,3.19489 1.65,0.41087 6.95011,3.07422 11.77802,5.91854 4.82791,2.84433 10.45291,6.01327 12.5,7.04211 2.04709,1.02883 5.36174,3.16633 7.36588,4.75 2.00415,1.58366 4.07886,2.87939 4.61046,2.87939 0.5316,0 2.67141,1.15695 4.75513,2.571 4.43128,3.00715 7.44373,2.67553 9.91174,-1.09112 0.91665,-1.39899 2.08756,-2.28346 2.60204,-1.9655 1.60171,0.98991 4.50349,-1.21749 7.49909,-5.70461 4.36923,-6.54471 6.54687,-8.72043 8.12279,-8.1157 1.45995,0.56024 8.23357,-6.19372 8.31322,-8.28909 0.0229,-0.60225 0.94163,-1.9095 2.04163,-2.90498 1.1,-0.99549 2,-2.35576 2,-3.02282 0,-3.19878 43.15474,-43.4771803 46.58194,-43.4771803 0.43404,0 1.90272,-1.01249996 3.26374,-2.24999996 2.29125,-2.08331004 2.41532,-2.10183004 1.67467,-0.25 -4.31415,10.78665996 -4.42279,13.16918026 -0.48844,10.71213996 2.71228,-1.69385 3.20182,-1.51738 2.00327,0.7221103 -1.54406,2.88511 -1.26389,4.06575 0.96482,4.06575 2.76378,0 2.58534,3.06666 -0.5,8.59303 -1.375,2.46286 -2.51201,5.24946 -2.52668,6.19245 -0.0147,0.94298 -2.60217,4.97151 -5.75,8.95229 -5.72795,7.24362 -10.71455,13.72899 -23.60598,30.70098 -5.88236,7.74432 -10.89534,14.93825 -15.10665,21.67898 -0.55588,0.88975 -1.87719,2.84383 -2.93624,4.3424 -1.79849,2.54487 -1.81919,2.90004 -0.31363,5.382267 0.88655,1.46168 3.99817,3.94709 6.91469,5.52313 2.91652,1.57604 6.38084,3.71354 7.69849,4.75 1.31764,1.03646 2.96745,1.88447 3.66625,1.88447 0.69879,0 3.0898,1.4625 5.31335,3.25 5.56845,4.47644 12.60332,8.75 14.40369,8.75 0.8238,0 2.05802,0.675 2.74271,1.5 0.68469,0.825 1.68753,1.5 2.22852,1.5 0.541,0 1.84764,1.0984 2.90365,2.44089 1.056,1.34249 2.92076,2.7451 4.14392,3.11691 1.22315,0.37181 6.49891,3.46366 11.72391,6.87077 14.48486,9.44528 17.1946,11.1199 21.77236,13.45529 4.9177,2.50883 5.30941,3.68044 1.47764,4.41969 -1.5125,0.2918 -4.93027,1.3103 -7.59503,2.26333 -4.61369,1.65003 -4.81606,1.87767 -4.23813,4.76733 0.3338,1.669 1.34881,3.85434 2.25557,4.8563 0.90677,1.00196 1.38791,2.0825 1.06922,2.4012 -0.74962,0.74961 -15.60396,-3.69415 -27.74163,-8.29906 -12.48596,-4.73705 -33.59953,-15.30356 -53.79073,-26.92013 -8.9599,-5.15489 -16.67579,-9.37252 -17.14641,-9.37252 -1.01272,0 -7.06286,6.72119 -7.06286,7.84623 0,0.42716 -0.84845,1.68735 -1.88544,2.80043 -1.037,1.11309 -4.72552,6.26044 -8.19671,11.43857 -8.69084,12.96448 -25.66864,35.17846 -32.41694,42.41477 -3.07746,3.3 -4.87089,4.79841 -3.98542,3.3298 0.88547,-1.4686 1.79892,-4.16333 2.02988,-5.98827 0.49234,-3.89025 3.21629,-7.93459 6.28307,-9.32866 1.19436,-0.54292 2.17156,-1.45096 2.17156,-2.01786 0,-0.56691 1.165,-2.7452 2.5889,-4.84065 3.89139,-5.7267 2.24819,-5.44417 -2.71557,0.46691 -2.40533,2.86438 -6.88885,7.94638 -9.96338,11.29334 -3.07453,3.34697 -6.96421,8.11039 -8.64375,10.58539 -4.1315,6.08827 -25.70572,28.57901 -30.5615,31.85983 -8.56575,5.78747 -12.7047,7.41068 -12.7047,4.98254 z"
           style="fill:#f80c0d" />
      </g>
    </g>
  </g>
</svg>
