<?xml version="1.0" encoding="UTF-8" standalone="no"?>
<svg
   xmlns:dc="http://purl.org/dc/elements/1.1/"
   xmlns:cc="http://creativecommons.org/ns#"
   xmlns:rdf="http://www.w3.org/1999/02/22-rdf-syntax-ns#"
   xmlns:svg="http://www.w3.org/2000/svg"
   xmlns="http://www.w3.org/2000/svg"
   xmlns:xlink="http://www.w3.org/1999/xlink"
   xmlns:sodipodi="http://sodipodi.sourceforge.net/DTD/sodipodi-0.dtd"
   xmlns:inkscape="http://www.inkscape.org/namespaces/inkscape"
   version="1.1"
   width="256"
   height="128"
   viewBox="0 0 3565.7143 1782.8571"
   xml:space="preserve"
   id="svg2"
   sodipodi:version="0.32"
   inkscape:version="0.48.2 r9819"
   sodipodi:docname="flags.svg"
   inkscape:export-filename="C:\Documents and Settings\foo\바탕 화면\g1919.png"
   inkscape:export-xdpi="90"
   inkscape:export-ydpi="90"><sodipodi:namedview
   inkscape:window-height="975"
   inkscape:window-width="1280"
   inkscape:pageshadow="2"
   inkscape:pageopacity="0.0"
   guidetolerance="10.0"
   gridtolerance="10.0"
   objecttolerance="10.0"
   borderopacity="1.0"
   bordercolor="#666666"
   pagecolor="#ffffff"
   id="base"
   showgrid="true"
   inkscape:object-points="false"
   inkscape:object-paths="false"
   inkscape:grid-points="true"
   inkscape:zoom="1.2172037"
   inkscape:cx="-31.660935"
   inkscape:cy="23.10929"
   inkscape:window-x="-32000"
   inkscape:window-y="-32000"
   inkscape:current-layer="svg2"
   inkscape:window-maximized="0" />
  <metadata
   id="metadata4">
    <rdf:RDF>
      <rdf:Description
   about="http://commons.wikimedia.org/wiki/Image:Flag_of_the_United_States.svg"
   dc:title="Flag of the United States"
   dc:description="The flag of the United States:     * 50 stars     * In use since 4 July 1960     * Specifications: United States Executive Order 10834     * Designed by Robert Heft in 1958     * Proportions: 19x10     * Colors:         * Cable No. 70180 Old Glory Red, PMS 193C         * Cable No. 70001 White         * Cable No. 70075 Old Glory Blue, PMS 193C     * License: public domain"
   dc:publisher="Wikimedia Commons"
   dc:date="2006-04-26"
   dc:format="image/svg+xml"
   dc:language="en">
        <dc:subject>
          <rdf:Bag>
            <rdf:li>flag</rdf:li>
            <rdf:li>united_states</rdf:li>
          </rdf:Bag>
        </dc:subject>
        <dc:creator>
          <rdf:Bag>
            <rdf:li>Daniel McRae</rdf:li>
            <rdf:li>Dbenbenn</rdf:li>
            <rdf:li>Zscout370</rdf:li>
            <rdf:li>Pumbaa80</rdf:li>
            <rdf:li>jacobolus</rdf:li>
          </rdf:Bag>
        </dc:creator>
      </rdf:Description>
    <cc:Work
   rdf:about=""><dc:format>image/svg+xml</dc:format><dc:type
     rdf:resource="http://purl.org/dc/dcmitype/StillImage" /><dc:title></dc:title></cc:Work></rdf:RDF>
  </metadata>
  <defs
   id="defs6">
    <g
   id="cone">
      <polygon
   id="triangle"
   points="0,1 0.5,1 0,0 "
   transform="matrix(0.95105652,0.30901699,-0.30901699,0.95105652,0,-1)" />
      <use
   xlink:href="#triangle"
   transform="scale(-1,1)"
   id="use10"
   x="0"
   y="0"
   width="18525"
   height="9750" />
    </g>
    <g
   id="star"
   transform="matrix(300.3,0,0,300.3,1235,1050)"
   style="fill:#ffffff">   
      <use
   xlink:href="#cone"
   id="use13"
   x="0"
   y="0"
   width="18525"
   height="9750" />
      <use
   xlink:href="#cone"
   transform="matrix(0.30901699,0.95105652,-0.95105652,0.30901699,0,0)"
   id="use15"
   x="0"
   y="0"
   width="18525"
   height="9750" />
      <use
   xlink:href="#cone"
   transform="matrix(0.30901699,-0.95105652,0.95105652,0.30901699,0,0)"
   id="use17"
   x="0"
   y="0"
   width="18525"
   height="9750" />
      <use
   xlink:href="#cone"
   transform="matrix(-0.80901699,0.58778525,-0.58778525,-0.80901699,0,0)"
   id="use19"
   x="0"
   y="0"
   width="18525"
   height="9750" />
      <use
   xlink:href="#cone"
   transform="matrix(-0.80901699,-0.58778525,0.58778525,-0.80901699,0,0)"
   id="use21"
   x="0"
   y="0"
   width="18525"
   height="9750" />
    </g>
    <g
   id="even_star_row">
      <use
   id="star 1 even row"
   xlink:href="#star"
   x="0"
   y="0"
   width="18525"
   height="9750" />
      <use
   id="star 2 even row"
   xlink:href="#star"
   x="1235"
   y="0"
   width="18525"
   height="9750" />
      <use
   id="star 3 even row"
   xlink:href="#star"
   x="2470"
   y="0"
   width="18525"
   height="9750" />
      <use
   id="star 4 even row"
   xlink:href="#star"
   x="3705"
   y="0"
   width="18525"
   height="9750" />
      <use
   id="star 5 even row"
   xlink:href="#star"
   x="4940"
   y="0"
   width="18525"
   height="9750" />
    </g>
    <g
   id="odd_star_row">
      <use
   id="last 5 stars odd row"
   xlink:href="#even_star_row"
   x="617.5"
   y="-525"
   width="18525"
   height="9750" />
      <use
   id="star 1 odd row"
   xlink:href="#star"
   x="-617.5"
   y="-525"
   width="18525"
   height="9750" />
    </g>
  <clipPath
   id="border"><rect
     id="rect1917"
     height="15"
     width="30"
     y="-7.5"
     x="-15" /></clipPath><clipPath
   clipPathUnits="userSpaceOnUse"
   id="clipPath14763"><g
     id="Flag of the United States">
    <rect
   width="18525"
   height="9750"
   id="red background"
   x="0"
   y="0"
   style="fill:#bf0a30" />
    <g
   id="white stripes"
   style="fill:#ffffff">
      <rect
   id="stripe 2"
   width="18525"
   height="750"
   y="750"
   x="0" />
      <rect
   id="stripe 4"
   width="18525"
   height="750"
   y="2250"
   x="0" />
      <rect
   id="stripe 6"
   width="18525"
   height="750"
   y="3750"
   x="0" />
      <rect
   id="stripe 8"
   width="18525"
   height="750"
   y="5250"
   x="0" />
      <rect
   id="stripe 10"
   width="18525"
   height="750"
   y="6750"
   x="0" />
      <rect
   id="stripe 12"
   width="18525"
   height="750"
   y="8250"
   x="0" />
    </g>
    <rect
   id="blue field"
   width="7410"
   height="5250"
   x="0"
   y="0"
   style="fill:#002868" />
    <g
   id="white stars"> 
      <g
   id="star_rows_1-2"> 
        <use
   id="star_row_1"
   xlink:href="#odd_star_row"
   x="0"
   y="0"
   width="18525"
   height="9750" /> 
        <use
   id="star_row_2"
   xlink:href="#even_star_row"
   x="0"
   y="0"
   width="18525"
   height="9750" /> 
      </g> 
      <use
   id="star rows 3-4"
   xlink:href="#star_rows_1-2"
   y="1050"
   x="0"
   width="18525"
   height="9750" /> 
      <use
   id="star rows 5-6"
   xlink:href="#star_rows_1-2"
   y="2100"
   x="0"
   width="18525"
   height="9750" /> 
      <use
   id="star rows 7-8"
   xlink:href="#star_rows_1-2"
   y="3150"
   x="0"
   width="18525"
   height="9750" /> 
      <use
   id="star row 9"
   xlink:href="#odd_star_row"
   y="4200"
   x="0"
   width="18525"
   height="9750" /> 
    </g> 
  </g></clipPath><clipPath
   clipPathUnits="userSpaceOnUse"
   id="clipPath23203"><path
     style="fill:#ffffff;fill-opacity:1;fill-rule:evenodd;stroke:none"
     d="m -3e-4,0 0,9749.9998 L 18525,0.001 -3e-4,0 z"
     id="path21313"
     sodipodi:nodetypes="cccc"
     clip-path="none"
     inkscape:connector-curvature="0" /></clipPath><clipPath
   clipPathUnits="userSpaceOnUse"
   id="clipPath4156"><rect
     style="fill:#483e2b;fill-opacity:1;fill-rule:evenodd;stroke:none"
     id="rect4158"
     x="57.07383"
     y="7978.5576"
     width="3451.5667"
     height="1760.0276"
     ry="507.08694" /></clipPath><clipPath
   clipPathUnits="userSpaceOnUse"
   id="clipPath4301"><rect
     style="fill:#bf0a30;fill-opacity:1;fill-rule:evenodd;stroke:none"
     id="rect4303"
     width="3451.2834"
     height="1737.0848"
     x="57.21545"
     y="22.886127"
     ry="489.46603" /></clipPath></defs>
  
<g
   id="g4236"
   clip-path="url(#clipPath4301)"
   transform="matrix(1.033156,0,0,1.0263501,-59.112487,-23.489203)"
   inkscape:export-filename="F:\Projects\puyopuyo\puyopuyo-android\assets\images\menu\flag-fr.png"
   inkscape:export-xdpi="90"
   inkscape:export-ydpi="90"><rect
     style="fill:#002868;fill-opacity:1;fill-rule:evenodd;stroke:none"
     id="rect4174"
     width="1188.5714"
     height="1782.8572"
     x="0"
     y="-5.2734376e-005"
     ry="0" /><rect
     ry="0"
     y="-5.2734376e-005"
     x="1188.5714"
     height="1782.8572"
     width="1188.5714"
     id="rect4176"
     style="fill:#ffffff;fill-opacity:1;fill-rule:evenodd;stroke:none" /><rect
     style="fill:#bf0a30;fill-opacity:1;fill-rule:evenodd;stroke:none"
     id="rect4178"
     width="1188.5714"
     height="1782.8572"
     x="2377.1428"
     y="-5.2734376e-005"
     ry="0" /></g><g
   clip-path="url(#clipPath4156)"
   transform="matrix(1.0330713,0,0,1.0129711,-5414.3275,-5209.8326)"
   id="g4241"><g
     id="g4243"
     clip-path="url(#border)"
     transform="matrix(118.85714,0,0,118.8571,1782.8571,8858.5714)"><circle
       id="circle4245"
       r="20"
       cx="0"
       cy="0"
       sodipodi:cx="0"
       sodipodi:cy="0"
       sodipodi:rx="20"
       sodipodi:ry="20"
       style="fill:#00247d"
       d="m 20,0 c 0,11.045695 -8.954305,20 -20,20 -11.045695,0 -20,-8.954305 -20,-20 0,-11.045695 8.954305,-20 20,-20 11.045695,0 20,8.954305 20,20 z" /><path
       id="path4247"
       d="m -20,-10 40,20 m -40,0 40,-20"
       style="stroke:#ffffff;stroke-width:3"
       inkscape:connector-curvature="0" /><path
       id="path4249"
       d="m -20,-10 40,20 m -40,0 40,-20"
       style="stroke:#cf142b;stroke-width:2"
       inkscape:connector-curvature="0" /><path
       id="path4251"
       d="M 0,0 20,10 17,10 -3,0 m 3,0 20,-10 3,0 L 3,0 M 0,0 -20,10 -23,10 -3,0 m 3,0 -20,-10 3,0 20,10"
       style="fill:#ffffff;stroke:none"
       inkscape:connector-curvature="0" /><comment
       id="comment4253">I think the above two lines give the simplest way to make the diagonals</comment><path
       id="path4255"
       d="M -20,0 20,0 M 0,-10 0,10"
       style="stroke:#ffffff;stroke-width:5"
       inkscape:connector-curvature="0" /><path
       id="path4257"
       d="M -20,0 20,0 M 0,-10 0,10"
       style="stroke:#cf142b;stroke-width:3"
       inkscape:connector-curvature="0" /></g><g
     id="g4259"
     clip-path="url(#clipPath23203)"
     style="stroke:none"
     inkscape:export-xdpi="90"
     inkscape:export-ydpi="90"
     transform="translate(0,9.9999999e-5)">
    
    
    
    <g
   id="g4261"><rect
     width="3565.7144"
     height="1782.8572"
     id="rect4263"
     x="2.7161664e-006"
     y="7967.1426"
     style="fill:#bf0a30;stroke:none" /><g
     transform="matrix(0.1924812,0,0,0.18285714,1.1548873e-5,7967.1427)"
     id="g4265"
     style="fill:#ffffff;stroke:none">
      <rect
   style="stroke:none"
   id="rect4267"
   width="18525"
   height="750"
   y="750"
   x="0" />
      <rect
   style="stroke:none"
   id="rect4269"
   width="18525"
   height="750"
   y="2250"
   x="0" />
      <rect
   style="stroke:none"
   id="rect4271"
   width="18525"
   height="750"
   y="3750"
   x="0" />
      <rect
   style="stroke:none"
   id="rect4273"
   width="18525"
   height="750"
   y="5250"
   x="0" />
      <rect
   style="stroke:none"
   id="rect4275"
   width="18525"
   height="750"
   y="6750"
   x="0" />
      <rect
   style="stroke:none"
   id="rect4277"
   width="18525"
   height="750"
   y="8250"
   x="0" />
    </g><rect
     id="rect4279"
     width="1426.2858"
     height="960"
     x="2.7161664e-006"
     y="7967.1426"
     style="fill:#002868;stroke:none" /><g
     style="stroke:none"
     id="g4281"> 
      <g
   transform="matrix(0.1924812,0,0,0.18285714,1.1548873e-5,7967.1427)"
   style="stroke:none"
   id="g4283"> 
        <use
   style="stroke:none"
   id="use4285"
   xlink:href="#odd_star_row"
   x="0"
   y="0"
   width="18525"
   height="9750" /> 
        <use
   style="stroke:none"
   id="use4287"
   xlink:href="#even_star_row"
   x="0"
   y="0"
   width="18525"
   height="9750" /> 
      </g> 
      <use
   transform="matrix(0.1924812,0,0,0.18285714,1.1548873e-5,7967.1427)"
   style="stroke:none"
   id="use4289"
   xlink:href="#star_rows_1-2"
   y="1050"
   x="0"
   width="18525"
   height="9750" /> 
      <use
   transform="matrix(0.1924812,0,0,0.18285714,1.1548873e-5,7967.1427)"
   style="stroke:none"
   id="use4291"
   xlink:href="#star_rows_1-2"
   y="2100"
   x="0"
   width="18525"
   height="9750" /> 
      <use
   transform="matrix(0.1924812,0,0,0.18285714,1.1548873e-5,7967.1427)"
   style="stroke:none"
   id="use4293"
   xlink:href="#star_rows_1-2"
   y="3150"
   x="0"
   width="18525"
   height="9750" /> 
      <use
   transform="matrix(0.1924812,0,0,0.18285714,1.1548873e-5,7967.1427)"
   style="stroke:none"
   id="use4295"
   xlink:href="#odd_star_row"
   y="4200"
   x="0"
   width="18525"
   height="9750" /> 
    </g></g> 
  </g></g></svg>