<?xml version="1.0" encoding="UTF-8" standalone="no"?>
<!-- Created with Inkscape (http://www.inkscape.org/) -->

<svg
   xmlns:dc="http://purl.org/dc/elements/1.1/"
   xmlns:cc="http://creativecommons.org/ns#"
   xmlns:rdf="http://www.w3.org/1999/02/22-rdf-syntax-ns#"
   xmlns:svg="http://www.w3.org/2000/svg"
   xmlns="http://www.w3.org/2000/svg"
   xmlns:sodipodi="http://sodipodi.sourceforge.net/DTD/sodipodi-0.dtd"
   xmlns:inkscape="http://www.inkscape.org/namespaces/inkscape"
   width="210mm"
   height="297mm"
   id="svg12577"
   version="1.1"
   inkscape:version="0.48.2 r9819"
   sodipodi:docname="Nouveau document 4">
  <defs
     id="defs12579">
    <filter
       color-interpolation-filters="sRGB"
       inkscape:collect="always"
       id="filter5706">
      <feGaussianBlur
         inkscape:collect="always"
         stdDeviation="2.003341"
         id="feGaussianBlur5708" />
    </filter>
  </defs>
  <sodipodi:namedview
     id="base"
     pagecolor="#ffffff"
     bordercolor="#666666"
     borderopacity="1.0"
     inkscape:pageopacity="0.0"
     inkscape:pageshadow="2"
     inkscape:zoom="1.979899"
     inkscape:cx="117.89835"
     inkscape:cy="644.98196"
     inkscape:document-units="px"
     inkscape:current-layer="layer1"
     showgrid="false"
     inkscape:window-width="1680"
     inkscape:window-height="988"
     inkscape:window-x="-8"
     inkscape:window-y="-8"
     inkscape:window-maximized="1" />
  <metadata
     id="metadata12582">
    <rdf:RDF>
      <cc:Work
         rdf:about="">
        <dc:format>image/svg+xml</dc:format>
        <dc:type
           rdf:resource="http://purl.org/dc/dcmitype/StillImage" />
        <dc:title></dc:title>
      </cc:Work>
    </rdf:RDF>
  </metadata>
  <g
     inkscape:label="Calque 1"
     inkscape:groupmode="layer"
     id="layer1">
    <g
       id="g12620">
      <path
         sodipodi:type="star"
         style="fill:#6b3b02;fill-opacity:1;fill-rule:evenodd;stroke:none;display:inline"
         id="path5446"
         sodipodi:sides="5"
         sodipodi:cx="1035.2043"
         sodipodi:cy="175.44452"
         sodipodi:r1="102.70589"
         sodipodi:r2="51.352943"
         sodipodi:arg1="0.13118666"
         sodipodi:arg2="0.75950519"
         inkscape:flatsided="false"
         inkscape:rounded="0"
         inkscape:randomized="0"
         d="m 1137.0277,188.87955 -64.5834,21.92469 -18.5523,65.63171 -40.809,-54.64737 -68.1524,2.63705 39.36206,-55.69863 -23.56824,-64.00192 65.13608,20.22372 53.5865,-42.192411 0.8942,68.197571 z"
         inkscape:transform-center-x="0.055196093"
         inkscape:transform-center-y="-9.755033"
         transform="matrix(0.90171119,-0.43233891,0.43233891,0.90171119,-940.68021,691.47605)" />
      <g
         transform="translate(2.0203051,-8.5862966)"
         id="g12616">
        <path
           transform="translate(-3287.7823,449.54682)"
           d="m 3348.5312,-64.15625 a 0.71197804,0.71197804 0 0 0 -0.031,0.03125 l -7.0312,1.28125 a 0.71197804,0.71197804 0 0 0 -0.5626,0.53125 l -5.25,24.40625 c -0.4551,2.015633 -0.9986,5.085742 -1.5624,8.46875 -1.5973,-2.7313 -3.1258,-5.321739 -4.4376,-7.34375 l -13.5937,-20.9375 a 0.71197804,0.71197804 0 0 0 -0.7187,-0.3125 l -7.0626,1.28125 a 0.71197804,0.71197804 0 0 0 -0.5624,0.8125 l 7.375,40.0625 a 0.71197804,0.71197804 0 0 0 0.8124,0.5625 l 4.875,-0.875 A 0.71197804,0.71197804 0 0 0 3321.3438,-17 l -3.5626,-19.375 c -0.6651,-3.61784 -1.564,-7.744303 -2.5,-11.90625 1.4811,2.444555 2.9843,4.936734 4.4063,7.09375 l 0,0.03125 14.5,22.0625 a 0.71197804,0.71197804 0 0 0 0.7187,0.3125 l 2.2188,-0.40625 a 0.71197804,0.71197804 0 0 0 0.5625,-0.53125 l 5.7187,-25.8125 c 0.5369,-2.366055 1.04,-5.302899 1.5626,-8.1875 0.6097,4.25752 1.2567,8.466161 1.9062,12 l 3.5625,19.375 a 0.71197804,0.71197804 0 0 0 0.8125,0.5625 l 4.875,-0.90625 a 0.71197804,0.71197804 0 0 0 0.5625,-0.5 l 0,1.40625 a 0.71197804,0.71197804 0 0 0 0.7187,0.71875 l 4.7188,0 a 0.71197804,0.71197804 0 0 0 0.7188,-0.71875 l 0,-28.9375 a 0.71197804,0.71197804 0 0 0 -0.7188,-0.71875 l -4.7188,0 a 0.71197804,0.71197804 0 0 0 -0.7187,0.71875 l 0,27.21875 -7.375,-40.0625 a 0.71197804,0.71197804 0 0 0 -0.7813,-0.59375 z m 8.6876,0.71875 a 0.71197804,0.71197804 0 0 0 -0.6563,0.71875 l 0,5.28125 a 0.71197804,0.71197804 0 0 0 0.7187,0.71875 l 4.9688,0 a 0.71197804,0.71197804 0 0 0 0.7188,-0.71875 l 0,-5.28125 a 0.71197804,0.71197804 0 0 0 -0.7188,-0.71875 l -4.9688,0 a 0.71197804,0.71197804 0 0 0 -0.062,0 z m 36.4687,0.78125 a 0.71197804,0.71197804 0 0 0 -0.6563,0.71875 l 0,5.28125 a 0.71197804,0.71197804 0 0 0 0.7188,0.71875 l 4.9688,0 a 0.71197804,0.71197804 0 0 0 0.7187,-0.71875 l 0,-5.28125 a 0.71197804,0.71197804 0 0 0 -0.7187,-0.71875 l -4.9688,0 a 0.71197804,0.71197804 0 0 0 -0.062,0 z m -13.2813,9.6875 c -1.1723,3.3e-5 -2.2756,0.146768 -3.2812,0.40625 -0.985,0.254265 -1.921,0.588266 -2.7812,1.0625 -0.8455,0.466108 -1.5769,1.015891 -2.25,1.625 -0.3513,0.317782 -0.6501,0.686651 -0.9688,1.03125 l -0.625,-2.8125 a 0.71197804,0.71197804 0 0 0 -0.6875,-0.5625 l -3.6563,0 a 0.71197804,0.71197804 0 0 0 -0.7187,0.71875 l 0,28.9375 a 0.71197804,0.71197804 0 0 0 0.7187,0.71875 l 4.7188,0 a 0.71197804,0.71197804 0 0 0 0.7188,-0.71875 l 0,-20.3125 c 1.018,-1.426844 2.1876,-2.527914 3.5624,-3.34375 1.425,-0.845367 2.8485,-1.249971 4.3438,-1.25 1.7112,2.9e-5 2.875,0.451489 3.6875,1.375 0.7883,0.896305 1.2813,2.536674 1.2813,4.9375 l 0,18.59375 a 0.71197804,0.71197804 0 0 0 0.7187,0.71875 l 4.7187,0 a 0.71197804,0.71197804 0 0 0 0.7188,-0.71875 l 0,-19.375 c 0,-1.970888 -0.2752,-3.648496 -0.8125,-5.0625 -0.5283,-1.391184 -1.247,-2.541561 -2.1875,-3.4375 -0.9372,-0.892542 -2.0668,-1.544016 -3.3125,-1.9375 -1.223,-0.386163 -2.5159,-0.593717 -3.9063,-0.59375 z m 13.4063,2.3125 a 0.71197804,0.71197804 0 0 0 -0.6563,0.71875 l 0,28.9375 a 0.71197804,0.71197804 0 0 0 0.7188,0.71875 l 4.7188,0 A 0.71197804,0.71197804 0 0 0 3399.3125,-21 l 0,-28.9375 a 0.71197804,0.71197804 0 0 0 -0.7187,-0.71875 l -4.7188,0 a 0.71197804,0.71197804 0 0 0 -0.062,0 z"
           id="path5488"
           style="font-size:40px;font-style:normal;font-variant:normal;font-weight:normal;font-stretch:normal;line-height:125%;letter-spacing:0px;word-spacing:0px;fill:#000000;fill-opacity:1;stroke:none;display:inline;filter:url(#filter5706);font-family:Corbel;-inkscape-font-specification:Corbel"
           inkscape:original="M 3348.625 -63.4375 L 3341.5938 -62.15625 L 3336.3438 -37.75 C 3335.809 -35.381417 3335.1925 -32.035731 3334.5 -27.71875 L 3334.3438 -27.6875 C 3332.3744 -31.102439 3330.6177 -34.009029 3329.0625 -36.40625 L 3315.4688 -57.34375 L 3308.4062 -56.0625 L 3315.7812 -16 L 3320.6562 -16.875 L 3317.0938 -36.25 C 3316.2422 -40.881688 3315.1784 -45.981282 3313.875 -51.5 L 3314.0938 -51.53125 C 3316.2031 -47.914988 3318.2784 -44.59975 3320.2812 -41.5625 L 3334.7812 -19.46875 L 3337 -19.875 L 3342.7188 -45.6875 C 3343.4713 -49.004178 3344.2124 -52.823204 3344.9375 -57.1875 L 3345.1562 -57.25 C 3345.9187 -51.528649 3346.7296 -46.375649 3347.5625 -41.84375 L 3351.125 -22.46875 L 3356 -23.375 L 3348.625 -63.4375 z M 3357.2812 -62.71875 L 3357.2812 -57.4375 L 3362.25 -57.4375 L 3362.25 -62.71875 L 3357.2812 -62.71875 z M 3393.75 -61.9375 L 3393.75 -56.65625 L 3398.7188 -56.65625 L 3398.7188 -61.9375 L 3393.75 -61.9375 z M 3380.4062 -52.25 C 3379.2897 -52.249969 3378.2564 -52.118556 3377.3125 -51.875 C 3376.3687 -51.631382 3375.4791 -51.311398 3374.6875 -50.875 C 3373.8959 -50.438555 3373.2018 -49.922247 3372.5625 -49.34375 C 3371.923 -48.765206 3371.3404 -48.138586 3370.8125 -47.46875 L 3370.7188 -47.46875 L 3369.8125 -51.5 L 3366.1562 -51.5 L 3366.1562 -22.5625 L 3370.875 -22.5625 L 3370.875 -43.125 C 3371.9711 -44.708291 3373.2589 -45.940429 3374.7812 -46.84375 C 3376.3038 -47.747024 3377.876 -48.187469 3379.5 -48.1875 C 3381.3471 -48.187469 3382.7544 -47.658617 3383.7188 -46.5625 C 3384.6829 -45.466336 3385.1875 -43.652995 3385.1875 -41.15625 L 3385.1875 -22.5625 L 3389.9062 -22.5625 L 3389.9062 -41.9375 C 3389.9062 -43.845583 3389.6537 -45.440696 3389.1562 -46.75 C 3388.659 -48.059242 3387.9774 -49.125518 3387.125 -49.9375 C 3386.2724 -50.749435 3385.2506 -51.322096 3384.0938 -51.6875 C 3382.9367 -52.052857 3381.7257 -52.249969 3380.4062 -52.25 z M 3357.4062 -50.71875 L 3357.4062 -21.78125 L 3362.125 -21.78125 L 3362.125 -50.71875 L 3357.4062 -50.71875 z M 3393.875 -49.9375 L 3393.875 -21 L 3398.5938 -21 L 3398.5938 -49.9375 L 3393.875 -49.9375 z "
           inkscape:radius="0.71190685"
           sodipodi:type="inkscape:offset" />
        <path
           sodipodi:type="inkscape:offset"
           inkscape:radius="0.71190685"
           inkscape:original="M 3348.625 -63.4375 L 3341.5938 -62.15625 L 3336.3438 -37.75 C 3335.809 -35.381417 3335.1925 -32.035731 3334.5 -27.71875 L 3334.3438 -27.6875 C 3332.3744 -31.102439 3330.6177 -34.009029 3329.0625 -36.40625 L 3315.4688 -57.34375 L 3308.4062 -56.0625 L 3315.7812 -16 L 3320.6562 -16.875 L 3317.0938 -36.25 C 3316.2422 -40.881688 3315.1784 -45.981282 3313.875 -51.5 L 3314.0938 -51.53125 C 3316.2031 -47.914988 3318.2784 -44.59975 3320.2812 -41.5625 L 3334.7812 -19.46875 L 3337 -19.875 L 3342.7188 -45.6875 C 3343.4713 -49.004178 3344.2124 -52.823204 3344.9375 -57.1875 L 3345.1562 -57.25 C 3345.9187 -51.528649 3346.7296 -46.375649 3347.5625 -41.84375 L 3351.125 -22.46875 L 3356 -23.375 L 3348.625 -63.4375 z M 3357.2812 -62.71875 L 3357.2812 -57.4375 L 3362.25 -57.4375 L 3362.25 -62.71875 L 3357.2812 -62.71875 z M 3393.75 -61.9375 L 3393.75 -56.65625 L 3398.7188 -56.65625 L 3398.7188 -61.9375 L 3393.75 -61.9375 z M 3380.4062 -52.25 C 3379.2897 -52.249969 3378.2564 -52.118556 3377.3125 -51.875 C 3376.3687 -51.631382 3375.4791 -51.311398 3374.6875 -50.875 C 3373.8959 -50.438555 3373.2018 -49.922247 3372.5625 -49.34375 C 3371.923 -48.765206 3371.3404 -48.138586 3370.8125 -47.46875 L 3370.7188 -47.46875 L 3369.8125 -51.5 L 3366.1562 -51.5 L 3366.1562 -22.5625 L 3370.875 -22.5625 L 3370.875 -43.125 C 3371.9711 -44.708291 3373.2589 -45.940429 3374.7812 -46.84375 C 3376.3038 -47.747024 3377.876 -48.187469 3379.5 -48.1875 C 3381.3471 -48.187469 3382.7544 -47.658617 3383.7188 -46.5625 C 3384.6829 -45.466336 3385.1875 -43.652995 3385.1875 -41.15625 L 3385.1875 -22.5625 L 3389.9062 -22.5625 L 3389.9062 -41.9375 C 3389.9062 -43.845583 3389.6537 -45.440696 3389.1562 -46.75 C 3388.659 -48.059242 3387.9774 -49.125518 3387.125 -49.9375 C 3386.2724 -50.749435 3385.2506 -51.322096 3384.0938 -51.6875 C 3382.9367 -52.052857 3381.7257 -52.249969 3380.4062 -52.25 z M 3357.4062 -50.71875 L 3357.4062 -21.78125 L 3362.125 -21.78125 L 3362.125 -50.71875 L 3357.4062 -50.71875 z M 3393.875 -49.9375 L 3393.875 -21 L 3398.5938 -21 L 3398.5938 -49.9375 L 3393.875 -49.9375 z "
           style="font-size:40px;font-style:normal;font-variant:normal;font-weight:normal;font-stretch:normal;line-height:125%;letter-spacing:0px;word-spacing:0px;fill:#a3df21;fill-opacity:1;stroke:none;display:inline;font-family:Corbel;-inkscape-font-specification:Corbel"
           id="path5486"
           d="m 3348.5312,-64.15625 a 0.71197804,0.71197804 0 0 0 -0.031,0.03125 l -7.0312,1.28125 a 0.71197804,0.71197804 0 0 0 -0.5626,0.53125 l -5.25,24.40625 c -0.4551,2.015633 -0.9986,5.085742 -1.5624,8.46875 -1.5973,-2.7313 -3.1258,-5.321739 -4.4376,-7.34375 l -13.5937,-20.9375 a 0.71197804,0.71197804 0 0 0 -0.7187,-0.3125 l -7.0626,1.28125 a 0.71197804,0.71197804 0 0 0 -0.5624,0.8125 l 7.375,40.0625 a 0.71197804,0.71197804 0 0 0 0.8124,0.5625 l 4.875,-0.875 A 0.71197804,0.71197804 0 0 0 3321.3438,-17 l -3.5626,-19.375 c -0.6651,-3.61784 -1.564,-7.744303 -2.5,-11.90625 1.4811,2.444555 2.9843,4.936734 4.4063,7.09375 l 0,0.03125 14.5,22.0625 a 0.71197804,0.71197804 0 0 0 0.7187,0.3125 l 2.2188,-0.40625 a 0.71197804,0.71197804 0 0 0 0.5625,-0.53125 l 5.7187,-25.8125 c 0.5369,-2.366055 1.04,-5.302899 1.5626,-8.1875 0.6097,4.25752 1.2567,8.466161 1.9062,12 l 3.5625,19.375 a 0.71197804,0.71197804 0 0 0 0.8125,0.5625 l 4.875,-0.90625 a 0.71197804,0.71197804 0 0 0 0.5625,-0.5 l 0,1.40625 a 0.71197804,0.71197804 0 0 0 0.7187,0.71875 l 4.7188,0 a 0.71197804,0.71197804 0 0 0 0.7188,-0.71875 l 0,-28.9375 a 0.71197804,0.71197804 0 0 0 -0.7188,-0.71875 l -4.7188,0 a 0.71197804,0.71197804 0 0 0 -0.7187,0.71875 l 0,27.21875 -7.375,-40.0625 a 0.71197804,0.71197804 0 0 0 -0.7813,-0.59375 z m 8.6876,0.71875 a 0.71197804,0.71197804 0 0 0 -0.6563,0.71875 l 0,5.28125 a 0.71197804,0.71197804 0 0 0 0.7187,0.71875 l 4.9688,0 a 0.71197804,0.71197804 0 0 0 0.7188,-0.71875 l 0,-5.28125 a 0.71197804,0.71197804 0 0 0 -0.7188,-0.71875 l -4.9688,0 a 0.71197804,0.71197804 0 0 0 -0.062,0 z m 36.4687,0.78125 a 0.71197804,0.71197804 0 0 0 -0.6563,0.71875 l 0,5.28125 a 0.71197804,0.71197804 0 0 0 0.7188,0.71875 l 4.9688,0 a 0.71197804,0.71197804 0 0 0 0.7187,-0.71875 l 0,-5.28125 a 0.71197804,0.71197804 0 0 0 -0.7187,-0.71875 l -4.9688,0 a 0.71197804,0.71197804 0 0 0 -0.062,0 z m -13.2813,9.6875 c -1.1723,3.3e-5 -2.2756,0.146768 -3.2812,0.40625 -0.985,0.254265 -1.921,0.588266 -2.7812,1.0625 -0.8455,0.466108 -1.5769,1.015891 -2.25,1.625 -0.3513,0.317782 -0.6501,0.686651 -0.9688,1.03125 l -0.625,-2.8125 a 0.71197804,0.71197804 0 0 0 -0.6875,-0.5625 l -3.6563,0 a 0.71197804,0.71197804 0 0 0 -0.7187,0.71875 l 0,28.9375 a 0.71197804,0.71197804 0 0 0 0.7187,0.71875 l 4.7188,0 a 0.71197804,0.71197804 0 0 0 0.7188,-0.71875 l 0,-20.3125 c 1.018,-1.426844 2.1876,-2.527914 3.5624,-3.34375 1.425,-0.845367 2.8485,-1.249971 4.3438,-1.25 1.7112,2.9e-5 2.875,0.451489 3.6875,1.375 0.7883,0.896305 1.2813,2.536674 1.2813,4.9375 l 0,18.59375 a 0.71197804,0.71197804 0 0 0 0.7187,0.71875 l 4.7187,0 a 0.71197804,0.71197804 0 0 0 0.7188,-0.71875 l 0,-19.375 c 0,-1.970888 -0.2752,-3.648496 -0.8125,-5.0625 -0.5283,-1.391184 -1.247,-2.541561 -2.1875,-3.4375 -0.9372,-0.892542 -2.0668,-1.544016 -3.3125,-1.9375 -1.223,-0.386163 -2.5159,-0.593717 -3.9063,-0.59375 z m 13.4063,2.3125 a 0.71197804,0.71197804 0 0 0 -0.6563,0.71875 l 0,28.9375 a 0.71197804,0.71197804 0 0 0 0.7188,0.71875 l 4.7188,0 A 0.71197804,0.71197804 0 0 0 3399.3125,-21 l 0,-28.9375 a 0.71197804,0.71197804 0 0 0 -0.7187,-0.71875 l -4.7188,0 a 0.71197804,0.71197804 0 0 0 -0.062,0 z"
           transform="translate(-3288.4415,446.89999)" />
      </g>
    </g>
  </g>
</svg>
