<?xml version="1.0" encoding="UTF-8" standalone="no"?>
<!-- Created with Inkscape (http://www.inkscape.org/) -->

<svg
   xmlns:dc="http://purl.org/dc/elements/1.1/"
   xmlns:cc="http://creativecommons.org/ns#"
   xmlns:rdf="http://www.w3.org/1999/02/22-rdf-syntax-ns#"
   xmlns:svg="http://www.w3.org/2000/svg"
   xmlns="http://www.w3.org/2000/svg"
   xmlns:xlink="http://www.w3.org/1999/xlink"
   xmlns:sodipodi="http://sodipodi.sourceforge.net/DTD/sodipodi-0.dtd"
   xmlns:inkscape="http://www.inkscape.org/namespaces/inkscape"
   id="svg3066"
   version="1.1"
   inkscape:version="0.48.2 r9819"
   width="176"
   height="268"
   sodipodi:docname="next_panel.png">
  <metadata
     id="metadata3072">
    <rdf:RDF>
      <cc:Work
         rdf:about="">
        <dc:format>image/svg+xml</dc:format>
        <dc:type
           rdf:resource="http://purl.org/dc/dcmitype/StillImage" />
        <dc:title></dc:title>
      </cc:Work>
    </rdf:RDF>
  </metadata>
  <defs
     id="defs3070">
    <linearGradient
       inkscape:collect="always"
       id="linearGradient3864">
      <stop
         style="stop-color:#665757;stop-opacity:1;"
         offset="0"
         id="stop3866" />
      <stop
         style="stop-color:#665757;stop-opacity:0;"
         offset="1"
         id="stop3868" />
    </linearGradient>
    <radialGradient
       inkscape:collect="always"
       xlink:href="#linearGradient3864"
       id="radialGradient3870"
       cx="11.865567"
       cy="-285.02243"
       fx="11.865567"
       fy="-285.02243"
       r="9.0335875"
       gradientTransform="matrix(3.6279541,2.3954543,-2.5753018,3.9003365,-765.62397,796.79834)"
       gradientUnits="userSpaceOnUse" />
    <radialGradient
       inkscape:collect="always"
       xlink:href="#linearGradient3864"
       id="radialGradient3874"
       gradientUnits="userSpaceOnUse"
       gradientTransform="matrix(3.6279541,2.3954543,-2.5753018,3.9003365,-886.07182,801.21476)"
       cx="11.865567"
       cy="-285.02243"
       fx="11.865567"
       fy="-285.02243"
       r="9.0335875" />
    <radialGradient
       inkscape:collect="always"
       xlink:href="#linearGradient3864"
       id="radialGradient3878"
       gradientUnits="userSpaceOnUse"
       gradientTransform="matrix(3.6279541,2.3954543,-2.5753018,3.9003365,-888.07928,996.74177)"
       cx="11.865567"
       cy="-285.02243"
       fx="11.865567"
       fy="-285.02243"
       r="9.0335875" />
    <radialGradient
       inkscape:collect="always"
       xlink:href="#linearGradient3864"
       id="radialGradient3898"
       gradientUnits="userSpaceOnUse"
       gradientTransform="matrix(3.6279541,2.3954543,-2.5753018,3.9003365,-771.64636,1000.3552)"
       cx="11.865567"
       cy="-285.02243"
       fx="11.865567"
       fy="-285.02243"
       r="9.0335875" />
    <radialGradient
       inkscape:collect="always"
       xlink:href="#linearGradient3864"
       id="radialGradient3914"
       gradientUnits="userSpaceOnUse"
       gradientTransform="matrix(3.6279541,2.3954543,-2.5753018,3.9003365,-765.62397,796.79834)"
       cx="11.865567"
       cy="-285.02243"
       fx="11.865567"
       fy="-285.02243"
       r="9.0335875" />
    <radialGradient
       inkscape:collect="always"
       xlink:href="#linearGradient3864"
       id="radialGradient3916"
       gradientUnits="userSpaceOnUse"
       gradientTransform="matrix(3.6279541,2.3954543,-2.5753018,3.9003365,-886.07182,801.21476)"
       cx="11.865567"
       cy="-285.02243"
       fx="11.865567"
       fy="-285.02243"
       r="9.0335875" />
    <radialGradient
       inkscape:collect="always"
       xlink:href="#linearGradient3864"
       id="radialGradient3918"
       gradientUnits="userSpaceOnUse"
       gradientTransform="matrix(3.6279541,2.3954543,-2.5753018,3.9003365,-888.07928,996.74177)"
       cx="11.865567"
       cy="-285.02243"
       fx="11.865567"
       fy="-285.02243"
       r="9.0335875" />
    <radialGradient
       inkscape:collect="always"
       xlink:href="#linearGradient3864"
       id="radialGradient3920"
       gradientUnits="userSpaceOnUse"
       gradientTransform="matrix(3.6279541,2.3954543,-2.5753018,3.9003365,-771.64636,1000.3552)"
       cx="11.865567"
       cy="-285.02243"
       fx="11.865567"
       fy="-285.02243"
       r="9.0335875" />
  </defs>
  <sodipodi:namedview
     pagecolor="#ffffff"
     bordercolor="#666666"
     borderopacity="1"
     objecttolerance="10"
     gridtolerance="10"
     guidetolerance="10"
     inkscape:pageopacity="0"
     inkscape:pageshadow="2"
     inkscape:window-width="1680"
     inkscape:window-height="988"
     id="namedview3068"
     showgrid="false"
     inkscape:zoom="2.4907045"
     inkscape:cx="18.943233"
     inkscape:cy="142.75606"
     inkscape:window-x="-8"
     inkscape:window-y="-8"
     inkscape:window-maximized="1"
     inkscape:current-layer="svg3066" />
  <g
     id="g3900"
     transform="translate(133.29562,314.77039)"
     inkscape:export-filename="F:\Projects\puyopuyo\puyopuyo-android\assets\images\left-panel.png"
     inkscape:export-xdpi="90"
     inkscape:export-ydpi="90">
    <rect
       y="-291.681"
       x="3.2119429"
       height="14.45374"
       width="18.067175"
       id="rect3862"
       style="fill:url(#radialGradient3914);fill-opacity:1;fill-rule:evenodd;stroke:none" />
    <rect
       style="fill:url(#radialGradient3916);fill-opacity:1;fill-rule:evenodd;stroke:none"
       id="rect3872"
       width="18.067175"
       height="14.45374"
       x="-117.23591"
       y="-287.26459" />
    <rect
       y="-91.737579"
       x="-119.24337"
       height="14.45374"
       width="18.067175"
       id="rect3876"
       style="fill:url(#radialGradient3918);fill-opacity:1;fill-rule:evenodd;stroke:none" />
    <rect
       style="fill:url(#radialGradient3920);fill-opacity:1;fill-rule:evenodd;stroke:none"
       id="rect3896"
       width="18.067175"
       height="14.45374"
       x="-2.8104496"
       y="-88.12413" />
    <g
       transform="translate(-132.89413,-313.96739)"
       id="g3846">
      <path
         inkscape:connector-curvature="0"
         id="path3860"
         d="M 32.5,264.0328 C 21.993278,263.11448 18.405855,261.7443 12.934991,256.56012 5.3154781,249.33989 5.8686445,259.87651 6.437864,132.804 6.7191052,70.019735 7.3304471,18.269553 7.7964015,17.803599 c 0.4659543,-0.465955 3.7398815,-1.570792 7.2753945,-2.455195 3.535512,-0.884403 8.349651,-2.890408 10.698086,-4.457789 l 4.269881,-2.8497835 22.563961,-0.08049 C 71.458156,7.893084 75.559118,8.1363286 77.548659,9.4399257 80.538736,11.399099 82.40943,11.416519 84,9.5 85.687962,7.4661305 96.881651,7.4432498 99.55887,9.4681966 c 1.20123,0.9085674 4.27203,1.4803194 8.05627,1.5000004 4.5747,0.02379 6.75815,0.537595 8.66771,2.039654 3.98351,3.13343 10.28512,3.547898 16.50417,1.085508 2.90786,-1.151347 7.40786,-2.112957 10,-2.13691 2.59214,-0.02395 6.51298,-0.380309 8.71298,-0.791902 5.47678,-1.02464 7.3909,-0.447412 8.1176,2.447969 0.34042,1.356372 2.10816,3.602006 3.92831,4.990298 6.62056,5.049752 6.45409,2.629208 6.45409,93.842396 0,116.17381 -1.28089,131.39004 -11.98913,142.42415 -8.01233,8.25616 -24.27483,10.32679 -71.51087,9.10516 -2.2,-0.0569 -13.225,0.10994 -24.5,0.37073 -11.275,0.2608 -24.55,0.1202 -29.5,-0.31245 z m 109.23719,-30.57406 c 2.8043,-2.88749 3.21572,-3.81055 2.22857,-5 C 143.2999,227.65643 141.94474,227 140.95428,227 138.49065,227 133,231.77825 133,233.92223 c 0,4.34811 4.28498,4.1208 8.73719,-0.46349 z M 24.353977,230.54775 C 25.80929,229.19901 27,227.63984 27,227.08293 c 0,-3.21871 -9.202531,-2.98534 -9.825442,0.24918 -0.331681,1.72228 2.33758,5.66789 3.834407,5.66789 0.384444,0 1.8897,-1.10351 3.345012,-2.45225 z M 26.44113,35.468197 C 27.508751,34.660688 29.169693,34 30.132113,34 c 2.21969,0 3.412372,-1.855515 2.061189,-3.206698 -1.280482,-1.280482 -9.082681,-2.772982 -10.883525,-2.081933 -1.919133,0.736441 -2.74478,5.059559 -1.299,6.801617 1.550326,1.868028 3.923234,1.8515 6.430353,-0.04479 z m 121.44759,-3.778934 c 1.84857,-0.146466 2.45922,-0.850886 2.70053,-3.115188 0.37667,-3.534402 -1.81277,-5.497341 -6.18178,-5.542272 -2.51056,-0.02582 -3.43946,0.612416 -4.9361,3.391498 -1.57961,2.93317 -1.64666,3.660559 -0.46829,5.080413 0.94785,1.142087 2.17118,1.457845 3.9361,1.015962 1.40845,-0.352632 3.63574,-0.726318 4.94954,-0.830413 z"
         style="fill:#a29c95" />
      <path
         inkscape:connector-curvature="0"
         id="path3858"
         d="M 31,262.10694 C 26.325,261.7268 21.375,260.79906 20,260.0453 15.284401,257.46027 11.870394,254.52636 9.9361644,251.39671 8.05075,248.34605 8,245.25842 8,133.60058 8,42.72361 8.2593067,18.864478 9.25,18.586526 9.9375,18.393638 12.525,17.693361 15,17.030355 c 5.274218,-1.412866 10.446223,-3.740645 14.13045,-6.359732 2.418769,-1.7194836 4.39037,-1.8398332 24.5,-1.4955187 18.316048,0.3136051 22.389561,0.654773 25.06989,2.0996717 3.98494,2.148182 3.81757,2.15906 6.204724,-0.403249 C 86.592447,9.060334 87.713925,8.811544 92.428521,9.2025149 95.632574,9.46822 98.746723,10.3658 99.813243,11.330987 101.12752,12.520391 103.48008,13 108,13 c 4.39439,0 6.88224,0.488441 8.09969,1.590216 3.96912,3.592007 14.1716,3.706341 18.35031,0.205643 C 134.9725,14.358136 137.47735,14 140.01634,14 c 2.53899,0 7.28149,-0.492679 10.53889,-1.094842 5.35594,-0.990101 6.01927,-0.920382 6.93365,0.728762 0.55612,1.002982 2.67413,3.408161 4.7067,5.344842 2.03257,1.936681 4.17007,4.788033 4.75,6.336338 1.44094,3.847022 1.42044,166.51504 -0.0238,188.6849 -1.05191,16.14767 -2.73851,27.86395 -4.77012,33.13652 -1.69375,4.39572 -8.3094,10.54638 -12.65169,11.76244 -8.75789,2.45266 -18.87063,3.3954 -37.5,3.49587 -10.725,0.0578 -21.3,-0.016 -23.5,-0.16418 -2.2,-0.14814 -14.125,-0.0811 -26.5,0.14905 -12.375,0.23012 -26.325,0.10738 -31,-0.27276 z m 110.70203,-26.68775 c 1.21112,-1.33056 2.67362,-2.41919 3.25,-2.41919 1.60024,0 1.24755,-3.65757 -0.52346,-5.42857 -2.30708,-2.30708 -5.86028,-1.9205 -9.35184,1.01746 C 132.9611,230.36908 132,232.07162 132,234.0392 c 0,5.3093 5.42328,6.08069 9.70203,1.37999 z M 25.25,231.76794 c 5.607394,-3.88262 2.210594,-9.63973 -4.9005,-8.30568 -5.121665,0.96083 -6.356931,4.87677 -2.731909,8.66048 1.478653,1.54338 3.182098,2.52336 3.785434,2.17774 0.603336,-0.34563 2.334475,-1.48527 3.846975,-2.53254 z M 26.763569,37.107601 C 27.718606,36.616782 29.7375,35.72643 31.25,35.12904 36.458844,33.071712 33.567796,28.72091 26.187529,27.510417 21.012968,26.661698 18,28.720585 18,33.105297 c 0,4.101996 4.53743,6.174231 8.763569,4.002304 z M 148.93426,33 C 151.82369,33 152,32.77888 152,29.154988 c 0,-8.453543 -9.9982,-10.632424 -14.04985,-3.061848 -2.41773,4.51758 1.98229,10.014833 6.23411,7.788694 C 145.1106,33.396825 147.2481,33 148.93426,33 z"
         style="fill:#a6845f" />
      <path
         inkscape:connector-curvature="0"
         id="path3856"
         d="M 31,262.10049 C 19.644052,261.16848 13.470701,257.67849 9.4604293,249.92348 8.0122358,247.12298 7.8320565,244.97517 8.3641664,236.85555 8.7143886,231.51141 9.0047565,180.41879 9.0094284,123.3164 L 9.0179227,19.493876 15.258961,17.552627 C 23.342045,15.038418 28.299766,12.812988 29.29969,11.25 c 0.43983,-0.6875 2.46483,-1.226397 4.5,-1.197548 3.654759,0.05181 3.672613,0.07177 1.45031,1.621972 -2.317127,1.616345 -3.283657,5.082445 -1.028618,3.688754 0.671761,-0.415171 2.537402,-0.654578 4.145871,-0.532017 2.880822,0.219511 10.936666,-2.2659 13.388655,-4.130705 0.881554,-0.670445 1.87193,-0.172007 3.32258,1.672196 2.595535,3.299689 5.313037,3.342368 8.108461,0.127348 1.795006,-2.064438 3.056982,-2.493826 7.243386,-2.464565 C 73.218651,10.054925 76.625,10.713979 78,11.5 c 1.375,0.786021 3.465664,1.445075 4.645919,1.464565 1.947972,0.03217 2.209679,0.755715 2.837126,7.843899 0.380164,4.294655 1.020946,9.357155 1.42396,11.25 0.646007,3.034112 0.827636,2.553652 1.534233,-4.058464 0.440814,-4.125 0.859368,-9.8625 0.930121,-12.75 L 89.5,10 l 4.127555,0 c 2.448987,0 4.633819,0.610011 5.372445,1.5 0.896296,1.079971 3.26735,1.5 8.46746,1.5 5.84856,0 7.55263,0.364719 8.95758,1.917169 2.73986,3.027512 10.12781,3.581747 16.61414,1.246371 3.00345,-1.081379 8.61082,-2.237968 12.46082,-2.570197 3.85,-0.332229 8.00448,-0.87703 9.23218,-1.210669 1.74851,-0.475174 2.43768,-0.06612 3.18056,1.887816 0.52161,1.371937 2.38054,3.51422 4.13096,4.760627 6.1833,4.4029 5.95646,0.852926 5.95464,93.186763 -0.002,106.46271 -1.16015,127.07681 -7.73238,137.64283 -3.54257,5.69531 -6.51953,7.85722 -13.29903,9.65797 -8.61368,2.28794 -31.05451,3.78995 -45.96693,3.07666 -7.425,-0.35515 -14.175,-0.63495 -15,-0.62178 -0.825,0.0132 -11.625,0.20408 -24,0.42425 -12.375,0.22016 -26.325,0.0864 -31,-0.29732 z m 108.43373,-24.25225 c 1.3903,-0.63346 2.7918,-1.98346 3.11444,-3 C 142.8708,233.83171 143.77945,233 144.56739,233 145.39562,233 146,232.02969 146,230.7 c 0,-5.6135 -6.58872,-6.4602 -11.70239,-1.50383 -3.82425,3.7066 -4.04817,5.05327 -1.29761,7.80383 2.31887,2.31887 3.00695,2.40959 6.43373,0.84824 z M 24.566722,232.38131 C 30.073004,228.18146 28.821054,223 22.3,223 18.986658,223 15,225.83723 15,228.19528 15,229.27587 19.840109,235 20.753813,235 c 0.208797,0 1.924606,-1.17841 3.812909,-2.61869 z M 11.194797,113.89592 10.214184,109.5 10.174772,116 c -0.03097,5.10817 0.179003,6.04946 0.980614,4.39592 0.680829,-1.4044 0.693935,-3.56589 0.03941,-6.5 z m 76.40937,-43.625087 c -0.332292,-0.332291 -0.568641,0.258334 -0.52522,1.3125 0.04798,1.164943 0.284941,1.4019 0.604167,0.604167 0.288871,-0.721875 0.253344,-1.584375 -0.07895,-1.916667 z M 26.763569,37.107601 c 0.955037,-0.490819 3.004659,-1.395172 4.554714,-2.009673 3.844365,-1.524052 3.377185,-5.203921 -0.818283,-6.445432 -1.65,-0.488264 -3.772619,-1.279339 -4.716931,-1.757946 -2.548129,-1.291471 -6.665767,0.666722 -7.82757,3.722496 -1.988584,5.230372 3.45497,9.241657 8.80807,6.490555 z M 144.5,34 c 0.33992,-0.55 2.16648,-1 4.05902,-1 C 151.9449,33 152,32.931393 152,28.715608 c 0,-3.668585 -0.41744,-4.530982 -2.90429,-6 -4.81372,-2.843534 -7.71805,-2.243409 -10.66039,2.202766 -2.10891,3.186782 -2.38933,4.299034 -1.50193,5.957173 C 138.76643,34.300603 143.18626,36.12567 144.5,34 z"
         style="fill:#936e43" />
      <path
         inkscape:connector-curvature="0"
         id="path3854"
         d="m 31,262.10694 c -10.832902,-0.88087 -16.344859,-3.72384 -20.530562,-10.58932 -1.7206678,-2.82228 -1.9274685,-4.29869 -1.35505,-9.6741 1.008691,-9.4723 2.768209,-19.63535 3.740046,-21.60264 0.472992,-0.95749 1.678603,-3.31588 2.679134,-5.24088 3.007744,-5.78683 3.225772,-6.3256 4.451475,-11 0.648985,-2.475 1.594554,-6.075 2.101267,-8 0.506712,-1.925 1.107627,-4.69803 1.335366,-6.16229 0.22774,-1.46426 0.93568,-3.63692 1.573201,-4.82814 C 26.486459,182.22253 25.615345,180 23.031385,180 21.294484,180 21,180.6438 21,184.44098 c 0,4.56199 -1.881681,7.51112 -2.148959,3.36804 C 18.59844,183.89343 18.093935,172.97686 17.681395,162.5 17.464825,157 16.730269,147.1 16.049048,140.5 14.776641,128.1723 14.2842,109.99886 14.816147,95 14.98195,90.325 14.533316,78.4 13.819183,68.5 13.10505,58.6 12.516089,45.622892 12.51038,39.661981 c -0.01017,-10.622359 0.04407,-10.881038 2.726096,-13 C 16.741537,25.472892 19.105255,23.6 20.489181,22.5 c 1.819536,-1.44624 2.258429,-2.399578 1.585138,-3.443144 -0.759126,-1.176605 -1.414743,-1.222778 -3.549759,-0.25 -1.440266,0.656229 -4.284992,1.171192 -6.321613,1.144361 -3.2762378,-0.04316 -2.7807521,-0.364456 4.299784,-2.788163 4.401502,-1.506658 8.640474,-3.133526 9.419939,-3.615261 1.417774,-0.876233 1.394761,-0.713528 -0.576114,4.073268 -0.590038,1.433065 2.510215,4.585493 3.753764,3.816938 0.516494,-0.319211 3.135689,-0.681293 5.820432,-0.804627 2.684743,-0.123333 5.6668,-0.878796 6.626793,-1.678807 0.959993,-0.800011 4.04202,-1.983209 6.848949,-2.629328 4.937422,-1.136534 5.184864,-1.087719 7.603506,1.5 1.375,1.471119 3.175,2.674763 4,2.674763 0.994157,0 1.680436,1.348914 2.035056,4 0.910512,6.80685 3.927764,9.252963 4.008837,3.25 0.02414,-1.7875 0.736808,-5.05 1.583703,-7.25 0.846896,-2.2 1.484753,-5.511424 1.41746,-7.358721 -0.12119,-3.3268614 -0.08641,-3.3538477 3.666296,-2.844942 2.083757,0.282578 5.432943,1.10309 7.442637,1.82336 3.039568,1.089375 3.757199,1.904055 4.267787,4.844942 0.562544,3.240151 0.88848,32.532657 1.990062,178.851121 0.212487,28.22366 0.66425,51.59366 1.003917,51.93333 0.339668,0.33967 1.130435,0.10472 1.757259,-0.5221 1.54713,-1.54713 1.932162,-17.18887 1.86407,-75.72699 -0.03707,-31.87185 0.31755,-50.39822 1.014503,-53 0.589325,-2.2 1.038955,-4.45 0.999177,-5 -0.03978,-0.55 -0.275117,-6.4 -0.522975,-13 -0.247859,-6.6 -0.652278,-17.029616 -0.898709,-23.176924 -0.392731,-9.79681 -0.228411,-11.375701 1.330751,-12.786724 1.692578,-1.531762 1.813511,-1.028357 2.494691,10.384555 0.393736,6.596895 0.455219,12.416117 0.13663,12.931606 -0.318589,0.515488 -0.114145,3.347054 0.45432,6.292369 0.568465,2.945315 1.244279,17.921108 1.501809,33.279538 0.257529,15.35844 0.689744,28.14594 0.960477,28.41667 1.563962,1.56396 1.886552,-3.80554 1.841682,-30.65489 C 100.31495,104.54773 99.925205,94.303398 99.076691,91.732377 98.107675,88.79623 98.11922,85.687215 99.132278,76.763273 99.83552,70.568473 100.52199,62.8 100.65777,59.5 c 0.13578,-3.3 0.62883,-7.8 1.09568,-10 0.74141,-3.49388 0.91247,-3.683675 1.35191,-1.5 0.44053,2.189047 0.38499,15.852695 -0.0935,23 -0.0921,1.375 0.15828,7.35785 0.5563,13.295222 0.60817,9.072423 0.97626,10.746576 2.30648,10.490399 1.00245,-0.193053 1.99955,-2.181396 2.71932,-5.422663 0.62507,-2.814812 1.38473,-5.519486 1.68812,-6.010387 0.30339,-0.4909 0.83604,-7.133567 1.18365,-14.761481 0.34762,-7.627913 1.28503,-16.375963 2.08314,-19.440111 C 114.347,46.086832 115,40.858876 115,37.533299 c 0,-3.325576 0.39202,-7.413386 0.87115,-9.084021 0.60844,-2.121508 0.4254,-4.155083 -0.60696,-6.743398 C 114.04568,18.650835 113.28837,18 110.95206,18 c -1.55871,0 -3.08609,-0.407842 -3.39416,-0.906316 -0.30807,-0.498473 -2.81694,-1.216705 -5.57525,-1.59607 C 97.494884,14.880388 95,13.118242 95,10.565741 c 0,-1.1313348 2.385754,-0.526614 4.12222,1.044867 1.30348,1.179629 3.62582,1.582506 8.67881,1.505591 5.60883,-0.08538 7.22265,0.252491 8.62907,1.80656 2.7346,3.0217 10.12856,3.574066 16.60908,1.240781 3.00345,-1.081379 8.61082,-2.237968 12.46082,-2.570197 3.85,-0.332229 8.00448,-0.87703 9.23218,-1.210669 1.74851,-0.475174 2.43768,-0.06612 3.18056,1.887816 0.52161,1.371937 2.38054,3.51422 4.13096,4.760627 6.1833,4.4029 5.95646,0.852926 5.95464,93.186763 -0.002,106.46271 -1.16015,127.07681 -7.73238,137.64283 -3.54257,5.69531 -6.51953,7.85722 -13.29903,9.65797 -8.61368,2.28794 -31.05451,3.78995 -45.96693,3.07666 -7.425,-0.35515 -14.175,-0.63495 -15,-0.62178 -0.825,0.0132 -11.625,0.20408 -24,0.42425 -12.375,0.22016 -26.325,0.0893 -31,-0.29087 z m 72.76176,-26.1192 C 103.90573,229.11948 103.66434,220.8 103.22533,217.5 l -0.79819,-6 -1.40649,6.18979 c -0.77357,3.40438 -1.742273,5.98226 -2.152679,5.72861 -0.410407,-0.25364 -0.751389,-10.01405 -0.757738,-21.68979 -0.0063,-11.67573 -0.479105,-24.7666 -1.050567,-29.0908 -0.571462,-4.32421 -0.79211,-8.26171 -0.490327,-8.75 C 96.871121,163.39951 96.683703,163 96.152855,163 c -1.834304,0 -2.366166,10.28906 -1.672379,32.35275 0.458046,14.56669 0.323507,24.37207 -0.393069,28.64725 -1.363398,8.13421 -0.380697,24 1.486522,24 0.707833,0 1.430767,-1.0125 1.60652,-2.25 0.451647,-3.18011 2.256729,-2.79785 2.641708,0.55943 0.229473,2.00113 0.804893,2.71687 2.000003,2.48773 1.44656,-0.27734 1.71392,-2.04307 1.9396,-12.80942 z M 98,230 c 0,-1.1 0.45,-2 1,-2 0.55,0 1,0.9 1,2 0,1.1 -0.45,2 -1,2 -0.55,0 -1,-0.9 -1,-2 z m -29.604556,15.75 c 0.238451,-1.2375 0.905295,-4.725 1.481876,-7.75 1.223487,-6.41896 1.55328,-23.48769 0.580742,-30.05684 -0.645542,-4.36041 0.790226,-17.52478 2.048575,-18.78313 1.409261,-1.40926 2.533929,2.7849 2.283886,8.51717 -0.148197,3.39746 0.0048,6.45148 0.34005,6.78671 0.874,0.874 1.631949,-20.55336 0.908045,-25.6706 -0.59461,-4.20327 -0.635376,-4.24277 -1.943745,-1.88341 -1.252284,2.25823 -1.401194,2.29412 -2.365932,0.57023 -0.566245,-1.01183 -0.976546,-6.37128 -0.911779,-11.90991 C 70.881929,160.0316 70.654377,154.15 70.311491,152.5 l -0.623429,-3 -0.865679,3 c -0.476124,1.65 -1.114065,8.61881 -1.417647,15.48624 -0.313842,7.09952 -1.047315,13.08309 -1.700167,13.86973 -0.633552,0.76339 -1.10766,4.35533 -1.057754,8.01376 0.421441,30.89411 0.208946,41.59914 -0.851096,42.87641 -0.63652,0.76696 -1.188451,3.72534 -1.226514,6.57417 -0.03806,2.84883 -0.409509,5.70376 -0.825436,6.34428 -0.84462,1.30071 0.634562,2.13782 3.987179,2.25646 1.551546,0.0549 2.362979,-0.60625 2.664496,-2.17105 z m 42.727236,-5.06121 c 0.10752,-3.29031 -0.30873,-6.27484 -0.96694,-6.93305 C 109.28142,232.88142 109,234.52365 109,240.5 c 0,9.18112 1.82354,9.3433 2.12268,0.18879 z M 56,238.94098 c 0,-4.45136 -0.369407,-6.83071 -1,-6.44098 -1.129433,0.69803 -1.310192,5.69904 -0.375,10.375 0.975024,4.87512 1.375,3.73075 1.375,-3.93402 z M 116.9189,219.75 c -0.0551,-11.1375 -0.0122,-21.26875 0.0954,-22.51389 C 117.2802,194.15783 116.16237,190 115.06885,190 c -0.97249,0 -2.44116,6.70301 -2.51972,11.5 -0.0375,2.2884 -0.46423,2.9303 -1.79913,2.70616 -1.28505,-0.21576 -1.75,0.38203 -1.75,2.25 0,2.49356 1.97067,3.74933 2.03041,1.29384 0.02,-0.82127 0.32995,-0.73553 0.90376,0.25 0.48034,0.825 1.39292,7.575 2.02796,15 1.12671,13.17381 1.71523,17 2.61481,17 0.2432,0 0.39708,-9.1125 0.34196,-20.25 z m 22.51483,18.09824 c 1.3903,-0.63346 2.7918,-1.98346 3.11444,-3 C 142.8708,233.83171 143.77945,233 144.56739,233 145.39562,233 146,232.02969 146,230.7 c 0,-5.6135 -6.58872,-6.4602 -11.70239,-1.50383 -3.82425,3.7066 -4.04817,5.05327 -1.29761,7.80383 2.31887,2.31887 3.00695,2.40959 6.43373,0.84824 z M 24.566722,232.38131 C 30.073004,228.18146 28.821054,223 22.3,223 18.986658,223 15,225.83723 15,228.19528 15,229.27587 19.840109,235 20.753813,235 c 0.208797,0 1.924606,-1.17841 3.812909,-2.61869 z M 111,221.94098 C 111,219.77344 110.583,218 110.07332,218 c -1.18919,0 -1.73429,2.74667 -1.23832,6.2398 0.56811,4.00125 2.165,2.30566 2.165,-2.29882 z m 23.97791,0.10029 c 1.4232,-2.65926 -0.43352,-44.58678 -2.01783,-45.56594 -0.43941,-0.27157 -1.06337,2.54789 -1.38659,6.26545 -0.32322,3.71757 -1.03448,10.89543 -1.58058,15.9508 -1.09451,10.13215 -1.30671,22.3271 -0.42833,24.61612 0.71439,1.86168 4.17215,1.05275 5.41333,-1.26643 z M 125.66228,216.75 c -0.27741,-0.6875 -0.50439,-0.125 -0.50439,1.25 0,1.375 0.22698,1.9375 0.50439,1.25 0.27741,-0.6875 0.27741,-1.8125 0,-2.5 z m 14.40186,-7.08586 C 139.31195,208.91195 139,209.92896 139,213.13333 c 0,5.89487 1.40676,7.30975 1.81414,1.82462 0.17277,-2.32632 -0.16473,-4.70854 -0.75,-5.29381 z m 12.28788,3.08586 c 0.34683,-2.8875 0.61462,-7.725 0.59509,-10.75 l -0.0355,-5.5 -1.82565,3.5 c -3.37227,6.46509 -3.76757,18 -0.61684,18 0.76397,0 1.4982,-2.04722 1.8829,-5.25 z m -103.471189,-23 c -0.08098,-17.49253 0.277151,-28.72543 1.000175,-31.37049 1.250729,-4.57556 1.464717,-11.20794 1.238278,-38.37951 -0.05729,-6.875 -0.07455,-14.075 -0.03835,-16 0.196564,-10.452447 -1.023832,-35.914997 -1.845269,-38.5 -0.8684,-2.732791 -1.005436,-2.421047 -1.538524,3.5 -0.321867,3.575 -0.547612,8.075 -0.501656,10 0.04596,1.925 -0.455064,4.834752 -1.11338,6.466116 -2.06149,5.108556 -2.878978,1.164709 -2.926623,-14.119051 -0.04608,-14.780669 -0.479507,-17.427466 -2.518349,-15.378614 -0.694848,0.698259 -1.172095,5.302279 -1.227023,11.837132 -0.04944,5.881929 -0.339961,13.081953 -0.645601,16.000053 -0.388874,3.712779 -0.09513,6.228882 0.978421,8.380872 1.27941,2.564638 1.337087,3.842175 0.34738,7.694364 C 37.126071,111.41843 36.940014,113.2595 38.497986,115.63727 39.324094,116.89807 40,118.82311 40,119.91513 c 0,1.09202 0.783772,2.42411 1.741716,2.9602 1.493639,0.83589 1.856929,3.37113 2.550617,17.79969 0.444896,9.25374 0.823519,17.94998 0.841385,19.32498 0.148942,11.46275 2.104814,55.57694 2.491858,56.20319 0.270852,0.43824 0.692473,0.79681 0.936935,0.79681 0.244463,0 0.387707,-12.2625 0.31832,-27.25 z m -5.801884,-70.16667 c -0.04342,-1.05416 0.192928,-1.64479 0.52522,-1.3125 0.332291,0.3323 0.367818,1.1948 0.07895,1.91667 -0.319226,0.79773 -0.556183,0.56078 -0.604167,-0.60417 z m -0.504741,-5.25055 c -0.351874,-0.91697 -0.175019,-2.13197 0.393011,-2.7 C 43.677594,110.92241 44,111.44286 44,113.3 c 0,3.08485 -0.4995,3.44667 -1.425794,1.03278 z m 0.08021,90.43612 c 0.4391,-8.8936 -0.523486,-16.30486 -1.723385,-13.2689 -0.968384,2.45019 -1.189909,19.90778 -0.26436,20.83333 1.234059,1.23406 1.62721,-0.26209 1.987745,-7.56443 z m 13.330275,2.54012 c 0.02185,-3.12571 -1.657561,-3.74853 -2.377122,-0.88157 -0.790717,3.15047 0.301113,6.32338 1.516286,4.4064 0.465038,-0.73362 0.852414,-2.31979 0.860836,-3.52483 z m 47.544099,-5.96558 C 103.17056,198.95455 102.52108,197 102.08552,197 c -0.85313,0 -0.32462,9.52683 0.66571,12 0.98471,2.4591 1.51357,-2.74853 0.77756,-7.65656 z m -67.599071,-1.15246 c -0.08687,-9.50522 -1.383182,-13.87332 -2.132984,-7.18736 -0.277336,2.47301 -0.395143,6.29638 -0.261793,8.49638 0.133351,2.2 0.292542,4.81406 0.353759,5.80902 0.06122,0.99496 0.561303,1.5309 1.111303,1.19098 0.55,-0.33992 0.968372,-4.07898 0.929715,-8.30902 z M 139.66228,204.75 c -0.27741,-0.6875 -0.50439,-0.125 -0.50439,1.25 0,1.375 0.22698,1.9375 0.50439,1.25 0.27741,-0.6875 0.27741,-1.8125 0,-2.5 z m -84.280723,-4.30194 c 0.341496,-0.88992 0.173849,-1.29132 -0.393011,-0.94098 C 54.444846,199.8431 54,200.54148 54,201.05902 c 0,1.43843 0.716766,1.12146 1.381557,-0.61096 z m 4.187142,-8.61557 c -0.849381,-9.34703 -0.849659,-10.97495 -0.0042,-24.67379 0.69357,-11.23804 0.721503,-11.33718 3.067731,-10.88867 2.163776,0.41363 2.379717,0.0984 2.506244,-3.6587 0.330491,-9.81354 -0.474852,-19.15961 -1.939158,-22.50408 L 61.619941,126.5 60.706897,131 c -0.502175,2.475 -0.92327,6.4125 -0.935769,8.75 -0.02192,4.10069 -1.065611,5.58541 -2.108847,3 -0.661077,-1.63832 -1.214015,30.5224 -0.777981,45.25 0.356978,12.0574 0.6966,13.8191 2.346076,12.16962 0.616457,-0.61645 0.747182,-3.83783 0.338323,-8.33713 z M 140,197.5 c 0,-1.925 -0.45,-3.5 -1,-3.5 -1.10888,0 -1.38676,5.2799 -0.33333,6.33333 C 139.81761,201.48428 140,201.09671 140,197.5 z m 7.42577,-9.35909 c -1.30167,-4.66887 -0.46862,-37.95906 1.54251,-61.64091 4.74547,-55.879829 5.23205,-70.258927 2.4555,-72.563253 -1.30348,-1.081796 -1.72456,-1.068113 -2.43356,0.07908 -1.5011,2.428832 -2.26184,15.763346 -1.53718,26.944226 0.57969,8.943988 0.40393,11.661585 -1.01403,15.679564 -1.8282,5.180453 -1.9847,7.510473 -2.64375,39.360383 -0.38741,18.72276 0.65917,51.63079 1.74324,54.81338 0.86332,2.53451 2.63824,0.0211 1.88727,-2.67247 z M 41.078178,182.67818 C 39.786931,181.38693 39.651287,183.2115 40.756881,187 l 0.729571,2.5 0.334952,-2.87182 c 0.184223,-1.5795 -0.150229,-3.357 -0.743226,-3.95 z m 75.296692,-4.88173 c 0.23983,-2.58695 -0.0673,-6.63695 -0.6825,-9 l -1.11855,-4.29645 -0.6686,3 c -0.92331,4.14294 -1.05949,17.93622 -0.19911,20.16821 0.55978,1.45219 0.86429,1.10649 1.46941,-1.66821 0.41981,-1.925 0.95952,-5.6166 1.19935,-8.20355 z M 138.96959,171.25 c -0.0217,-9.10396 -0.32026,-12.25247 -1.044,-11.01017 -0.55747,0.95691 -1.04338,6.13191 -1.0798,11.5 C 136.76366,183.84765 136.778,184 138,184 c 0.61597,0 0.98832,-4.89639 0.96959,-12.75 z M 26.49716,175.00895 C 27.143822,172.9715 26.472527,171 25.132113,171 c -0.41242,0 -1.623362,0.64718 -2.690983,1.43817 -1.91813,1.42113 -1.917433,1.4563 0.05887,2.9682 2.650709,2.02782 3.246209,1.96862 3.99716,-0.39742 z M 121,170 c 0,-2.13508 -0.41012,-4.13544 -0.91138,-4.44523 -1.09094,-0.67424 -2.53358,6.91625 -1.60122,8.42484 C 119.70395,175.94803 121,173.89525 121,170 z m -94.360648,-6.6992 c 0.585095,-2.33121 -0.867927,-8.43457 -2.722335,-11.43507 -2.645971,-4.28127 -4.585541,8.14809 -2.019645,12.94251 1.417372,2.64838 3.896755,1.86021 4.74198,-1.50744 z M 152,163 c 0,-0.55 -0.45,-1 -1,-1 -0.55,0 -1,0.45 -1,1 0,0.55 0.45,1 1,1 0.55,0 1,-0.45 1,-1 z M 32.524802,129.96167 c 0.33814,-16.75392 0.799944,-31.038965 1.026231,-31.744547 0.226286,-0.705583 0.126615,-4.007835 -0.221491,-7.338338 -0.511299,-4.891846 -1.036132,-6.213002 -2.731232,-6.875308 -4.614163,-1.802837 -6.599805,8.237127 -2.493541,12.608044 2.33649,2.487081 1.740416,5.334809 -0.693797,3.314593 -0.776034,-0.644052 -1.425284,-1.903403 -1.442775,-2.798559 -0.02736,-1.400402 -0.227892,-1.368704 -1.43678,0.227116 -1.071772,1.414816 -1.442661,6.158029 -1.563872,19.999999 -0.247977,28.31825 -0.03493,31.42304 2.067068,30.12394 0.493029,-0.30471 0.707697,-5.60659 0.47704,-11.78195 -0.485644,-13.0021 0.499721,-16.29335 2.363227,-7.89347 1.000799,4.51116 1.031382,7.57785 0.140459,14.08478 -0.987184,7.20999 -0.930853,8.5479 0.422883,10.04377 C 29.2972,152.8809 30,155.00955 30,156.66207 c 0,2.68927 0.852684,4.81858 1.621667,4.0496 0.158583,-0.15859 0.564994,-13.99609 0.903135,-30.75 z M 26.194949,111.5 c -0.02038,-1.65 0.187065,-2.44606 0.460988,-1.76903 0.273923,0.67703 0.290597,2.02703 0.03705,3 -0.25354,0.97297 -0.477659,0.41903 -0.498038,-1.23097 z M 29.157895,90 c 0,-1.375 0.226973,-1.9375 0.504386,-1.25 0.277412,0.6875 0.277412,1.8125 0,2.5 -0.277413,0.6875 -0.504386,0.125 -0.504386,-1.25 z m 93.311995,51.05361 c 0.24759,-5.19552 0.91383,-10.59552 1.48054,-12 0.63331,-1.56954 0.73631,-5.05848 0.26728,-9.05361 l -0.76309,-6.5 -1.72731,5.1879 c -1.08397,3.25566 -1.74951,8.46996 -1.78692,14 -0.0328,4.84665 -0.42388,11.03156 -0.86911,13.74423 -0.49315,3.00469 -0.4011,6.32642 0.23554,8.5 l 1.04502,3.56787 0.83395,-4 c 0.45867,-2.2 1.03652,-8.25088 1.2841,-13.44639 z m 16.13428,12.21722 c -0.3323,-0.33229 -0.56864,0.25834 -0.52522,1.3125 0.048,1.16495 0.28494,1.4019 0.60416,0.60417 0.28887,-0.72188 0.25335,-1.58438 -0.0789,-1.91667 z M 41.878858,141 c -0.481911,-0.88366 -0.772682,1.37627 -0.707651,5.5 l 0.110389,7 0.707651,-5.5 c 0.389208,-3.025 0.339533,-6.175 -0.110389,-7 z m 53.648204,4.75 C 95.20124,136.06823 95.154706,135.78635 94,136.5 c -1.102469,0.68136 -1.399022,14.76764 -0.333333,15.83333 1.663409,1.66341 2.087428,0.16295 1.860395,-6.58333 z M 153,148.5 c 0,-4.56625 -1.37642,-6.0401 -2.45808,-2.63208 C 149.96801,147.67615 151.41117,153 152.47525,153 152.76386,153 153,150.975 153,148.5 z M 96,130 c 0,-1.03508 -0.45,-2.16008 -1,-2.5 -0.584999,-0.36155 -1,0.67595 -1,2.5 0,1.82405 0.415001,2.86155 1,2.5 0.55,-0.33992 1,-1.46492 1,-2.5 z m -24.8875,-5.2875 c -0.816667,-0.81667 -1.091507,-0.0621 -1.033553,2.8375 0.07807,3.90614 0.09042,3.91849 1.1125,1.1125 0.73345,-2.0136 0.710527,-3.16053 -0.07895,-3.95 z m 23.491667,-3.44167 c -0.332292,-0.33229 -0.568641,0.25834 -0.52522,1.3125 0.04798,1.16495 0.284941,1.4019 0.604167,0.60417 0.288871,-0.72187 0.253344,-1.58437 -0.07895,-1.91667 z M 72,115.44098 C 72,115.19844 71.55,115 71,115 c -0.55,0 -1,0.47656 -1,1.05902 0,0.58246 0.45,0.7809 1,0.44098 0.55,-0.33992 1,-0.81648 1,-1.05902 z m 55.72884,-7.31306 c 1.44592,-3.4403 1.56826,-3.51156 2.36574,-1.37792 0.46253,1.2375 1.28508,2.25 1.82788,2.25 1.61687,0 2.48449,-6.83071 2.2863,-18 -0.10247,-5.775 -0.18686,-13.188422 -0.18755,-16.474271 -0.001,-5.332158 -0.16379,-5.811724 -1.5136,-4.461915 -0.87996,0.879963 -1.68231,3.959234 -1.9188,7.364004 -0.32729,4.711946 -0.89119,6.262656 -2.89528,7.961915 -2.3485,1.991289 -2.51938,2.830342 -3.03085,14.881997 -0.56636,13.34499 0.0719,14.98043 3.06616,7.85619 z M 107,103.5 c 0,-2.41008 -0.392,-4.624232 -0.8711,-4.920336 -1.00914,-0.623682 -2.22815,6.998116 -1.44548,9.037736 C 105.68073,110.21633 107,107.8715 107,103.5 z m -35.344063,-1.76903 c -0.273923,-0.67703 -0.481368,0.11903 -0.460988,1.76903 0.02038,1.65 0.244498,2.20394 0.498042,1.23097 0.253543,-0.97297 0.236869,-2.32297 -0.03705,-3 z m 0.94823,-4.460137 c -0.332292,-0.332291 -0.568641,0.258334 -0.52522,1.3125 0.04798,1.164943 0.284941,1.4019 0.604167,0.604167 0.288871,-0.721875 0.253344,-1.584375 -0.07895,-1.916667 z m 45.000003,-8 c -0.3323,-0.332291 -0.56864,0.258334 -0.52522,1.3125 0.048,1.164943 0.28494,1.4019 0.60416,0.604167 0.28887,-0.721875 0.25335,-1.584375 -0.0789,-1.916667 z M 33,75.940983 C 33,73.489616 32.603931,72.12675 32,72.5 31.45,72.839919 31,74.666476 31,76.559017 31,78.451558 31.45,80 32,80 c 0.55,0 1,-1.826558 1,-4.059017 z m 41,-0.818538 c 0,-1.582656 0.713396,-3.469621 1.585323,-4.193257 C 77.226184,69.567394 77.1542,66.213264 75.297114,57.5 c -0.480749,-2.255627 -0.460763,-6.757015 0.04583,-10.322074 0.560124,-3.941774 0.535916,-7.13435 -0.0643,-8.479475 l -0.962659,-2.1574 -1.302617,2.433962 C 70.718946,43.262189 70.821982,78 73.129125,78 73.608106,78 74,76.7051 74,75.122445 z M 128.29742,68.75 c 2.29071,-8.9803 3.12723,-16.720465 3.16734,-29.306764 l 0.0352,-11.056765 4.25,-4.834025 c 2.3375,-2.658714 4.25,-5.172526 4.25,-5.586247 0,-1.556287 -2.84903,-1.75716 -5.48988,-0.387069 C 133.00381,18.360609 131.20292,19 130.50814,19 c -0.69479,0 -1.82345,0.675 -2.50814,1.5 -0.68469,0.825 -2.25969,1.5 -3.5,1.5 -3.15997,0 -5.14106,2.522647 -3.51744,4.478987 0.89895,1.083172 1.72336,1.213582 3.08046,0.487287 2.87985,-1.541252 3.7048,1.253398 3.817,12.930822 0.0781,8.131173 -0.2245,10.637461 -1.38862,11.5 C 123.75301,53.426072 123.20961,75 125.89689,75 c 0.44345,0 1.52369,-2.8125 2.40053,-6.25 z M 19,64 C 19,61.314919 18.607511,58.875462 18.127802,58.578986 17.14728,57.97299 15.927005,66.646203 16.706859,68.678469 17.72672,71.336184 19,68.738436 19,64 z m 119,-5.940983 c 0,-4.152145 -1.37133,-6.139677 -2.39522,-3.471486 -0.80475,2.097167 -0.76974,5.914177 0.0619,6.745802 C 137.20661,62.873274 138,61.759923 138,58.059017 z M 58,47 c 0,-0.55 -0.45,-1 -1,-1 -0.55,0 -1,0.45 -1,1 0,0.55 0.45,1 1,1 0.55,0 1,-0.45 1,-1 z M 26.763569,37.107601 c 0.955037,-0.490819 3.004659,-1.395172 4.554714,-2.009673 3.844365,-1.524052 3.377185,-5.203921 -0.818283,-6.445432 -1.65,-0.488264 -3.772619,-1.279339 -4.716931,-1.757946 -2.548129,-1.291471 -6.665767,0.666722 -7.82757,3.722496 -1.988584,5.230372 3.45497,9.241657 8.80807,6.490555 z M 58.924567,23.636178 c -1.072571,-1.231715 -2.312215,9.939723 -1.280338,11.538172 0.550848,0.853302 1.065423,-0.812234 1.444161,-4.67435 0.323614,-3.3 0.249894,-6.38872 -0.163823,-6.863822 z M 144.5,34 c 0.33992,-0.55 2.16648,-1 4.05902,-1 C 151.9449,33 152,32.931393 152,28.715608 c 0,-3.668585 -0.41744,-4.530982 -2.90429,-6 -4.81372,-2.843534 -7.71805,-2.243409 -10.66039,2.202766 -2.10891,3.186782 -2.38933,4.299034 -1.50193,5.957173 C 138.76643,34.300603 143.18626,36.12567 144.5,34 z M 75.369714,21.75 C 76.666824,16.909849 76.137806,15 73.5,15 c -2.837054,0 -2.871111,0.123529 -1.447419,5.25 1.179415,4.246871 2.429508,4.81216 3.317133,1.5 z M 98.157895,57 c 0,-1.375 0.226973,-1.9375 0.504386,-1.25 0.277412,0.6875 0.277412,1.8125 0,2.5 -0.277413,0.6875 -0.504386,0.125 -0.504386,-1.25 z m -6,-7 c 0,-1.375 0.226973,-1.9375 0.504386,-1.25 0.277412,0.6875 0.277412,1.8125 0,2.5 -0.277413,0.6875 -0.504386,0.125 -0.504386,-1.25 z M 97,47.940983 c 0,-1.132459 0.45,-1.780902 1,-1.440983 0.55,0.339919 1,1.266476 1,2.059017 C 99,49.351558 98.55,50 98,50 97.45,50 97,49.073442 97,47.940983 z M 103.232,39 c 0,-1.925 0.2058,-2.7125 0.45733,-1.75 0.25152,0.9625 0.25152,2.5375 0,3.5 C 103.4378,41.7125 103.232,40.925 103.232,39 z M 109,32.059017 C 109,28.686339 109.44336,26 110,26 c 0.55,0 1,2.448442 1,5.440983 0,2.992541 -0.45,5.719098 -1,6.059017 -0.62464,0.386048 -1,-1.656282 -1,-5.440983 z M 103.01531,27.25 C 103.00689,26.0125 103.45,25 104,25 c 1.25292,0 1.25292,1.061241 0,3 -0.78387,1.212959 -0.9723,1.069438 -0.98469,-0.75 z M 96,25.059017 C 96,23.926558 96.45,23 97,23 c 0.55,0 1,0.648442 1,1.440983 0,0.792541 -0.45,1.719098 -1,2.059017 -0.55,0.339919 -1,-0.308524 -1,-1.440983 z"
         style="fill:#89643c" />
      <path
         inkscape:connector-curvature="0"
         id="path3852"
         d="M 31,262.10049 C 19.769859,261.17881 13.464688,257.66686 9.5908667,250.17572 8.0775989,247.24938 8.0960386,247.01897 9.9216946,246.04191 10.985076,245.4728 12.562715,245.2787 13.427558,245.61057 14.55537,246.04336 15,245.60932 15,244.0756 c 0,-1.1761 -0.675,-2.39739 -1.5,-2.71397 -1.145765,-0.43967 -1.5,-2.31779 -1.5,-7.95284 0,-6.63675 0.276031,-7.68549 2.75,-10.44821 1.956114,-2.18443 4.312391,-3.41702 8.162082,-4.26965 4.859895,-1.07636 5.540826,-1.55537 6.673922,-4.6948 0.743583,-2.06021 1.293087,-2.72235 1.337918,-1.61215 0.178916,4.43064 2.536585,9.84061 4.636477,10.63898 1.202514,0.4572 3.19013,2.45535 4.416923,4.44035 1.710987,2.76843 2.534976,3.35641 3.537578,2.52432 2.162874,-1.79502 2.709455,0.48045 2.333847,9.71602 -0.297357,7.31148 -0.09138,8.73766 1.397797,9.67842 1.305717,0.82486 2.281972,0.76896 3.867898,-0.22147 1.521538,-0.95021 2.427319,-1.01884 3.203456,-0.2427 0.595156,0.59515 3.847358,1.0821 7.227114,1.0821 4.948225,0 6.510584,-0.40395 8.022071,-2.07413 1.168509,-1.29118 2.712524,-1.91441 4.090342,-1.65103 4.960674,0.9483 4.751178,5.61624 4.665622,-103.95849 C 78.278893,85.767357 77.850644,33.677437 77.371384,26.560971 L 76.5,13.621943 73.29923,12.795136 c -1.760423,-0.454743 -3.507185,-1.322598 -3.881694,-1.928566 -0.849659,-1.3747769 5.465966,-0.63542 10.755683,1.259146 l 3.673219,1.315601 0.573643,9.029341 C 84.735585,27.436796 85.149816,80.1 85.340595,139.5 c 0.190779,59.4 0.67608,108.75035 1.078447,109.66744 0.608793,1.38759 2.138672,1.63781 9.115396,1.49088 4.830352,-0.10174 8.879382,-0.67214 9.553022,-1.34578 0.89227,-0.89227 1.62794,-0.89011 3.106,0.009 1.61822,0.98451 2.23114,0.81956 3.72622,-1.00283 1.65025,-2.01153 1.91554,-2.05505 3.41106,-0.55953 0.8919,0.8919 1.96836,1.27492 2.39214,0.85115 1.3554,-1.35541 2.1841,-19.88318 1.15876,-25.90735 -1.0524,-6.18316 -0.4518,-10.07102 1.45322,-9.4072 0.79624,0.27746 1.05999,2.98607 0.83302,8.55505 -0.21353,5.23908 0.0431,8.14904 0.71861,8.14904 0.57791,0 0.78952,0.68073 0.47025,1.51273 -0.31927,0.83201 -0.0872,2.10709 0.51565,2.83351 0.60288,0.72642 1.44538,3.75819 1.87222,6.73726 0.63737,4.44839 1.15364,5.47063 2.88846,5.71937 2.94442,0.42217 3.44643,-1.72861 1.66587,-7.13716 -1.93551,-5.8792 -1.11541,-9.15952 3.3406,-13.36208 2.50844,-2.36577 4.4415,-3.30363 6.80922,-3.30363 1.81849,0 3.86655,-0.675 4.55124,-1.5 1.73943,-2.09589 2.50309,-1.88601 3.84374,1.05639 1.33123,2.92174 2.82476,2.43404 4.29818,-1.40353 1.8546,-4.83039 3.80715,-31.4026 3.50159,-47.65286 -0.16548,-8.8 0.0222,-20.3667 0.41709,-25.70379 0.39487,-5.33708 0.29981,-12.98708 -0.21124,-17 -0.51106,-4.01291 -0.90162,-7.97121 -0.86791,-8.79621 0.0337,-0.825 0.003,-7.8 -0.0684,-15.5 -0.0713,-7.7 -0.20569,-23 -0.29854,-34 -0.0928,-11 -0.54225,-20.7875 -0.99865,-21.75 -1.05279,-2.2202 -3.42101,-2.236302 -5.84816,-0.03976 C 146.16821,52.157744 145.74304,52.202258 145,51 c -0.73924,-1.196123 -1.19208,-1.136149 -2.8671,0.379732 -1.94533,1.760496 -2.01273,1.715503 -3.05548,-2.039764 -0.58645,-2.111982 -1.06878,-4.430334 -1.07184,-5.151893 -0.003,-0.721559 -1.12336,-3.674714 -2.48953,-6.562565 -3.09551,-6.543361 -2.30548,-10.324537 3.20246,-15.327473 3.54869,-3.223329 4.10099,-3.399687 8.97144,-2.864731 5.14978,0.565638 8.0258,-0.75488 5.3056,-2.436056 -2.03733,-1.25914 -17.49686,-0.232454 -21.46493,1.425511 -2.00581,0.83808 -5.8821,1.820289 -8.61398,2.182685 -4.02683,0.534177 -5.34894,0.3133 -6.98449,-1.166851 -2.39057,-2.163438 -8.4208,-4.400879 -11.93215,-4.427277 -3.03966,-0.02285 -10.079127,-4.11952 -8.192136,-4.76747 0.719325,-0.2469998 2.159758,0.321862 3.200961,1.264138 1.431985,1.295929 3.573545,1.68765 8.792205,1.608213 5.60883,-0.08538 7.22265,0.252491 8.62907,1.80656 2.7346,3.0217 10.12856,3.574066 16.60908,1.240781 3.00345,-1.081379 8.61082,-2.237968 12.46082,-2.570197 3.85,-0.332229 8.00448,-0.87703 9.23218,-1.210669 1.74851,-0.475174 2.43768,-0.06612 3.18056,1.887816 0.52161,1.371937 2.38054,3.51422 4.13096,4.760627 6.1833,4.4029 5.95646,0.852926 5.95464,93.186763 -0.002,106.46271 -1.16015,127.07681 -7.73238,137.64283 -3.54257,5.69531 -6.51953,7.85722 -13.29903,9.65797 -8.61368,2.28794 -31.05451,3.78995 -45.96693,3.07666 -7.425,-0.35515 -14.175,-0.63495 -15,-0.62178 -0.825,0.0132 -11.625,0.20408 -24,0.42425 -12.375,0.22016 -26.325,0.0864 -31,-0.29732 z M 122.24475,242.5 c 0.26285,-1.375 0.0903,-2.5 -0.38342,-2.5 -0.47373,0 -0.86133,1.125 -0.86133,2.5 0,1.375 0.17254,2.5 0.38342,2.5 0.21089,0 0.59848,-1.125 0.86133,-2.5 z m 17.18898,-4.65176 c 1.3903,-0.63346 2.7918,-1.98346 3.11444,-3 C 142.8708,233.83171 143.77945,233 144.56739,233 145.39562,233 146,232.02969 146,230.7 c 0,-5.6135 -6.58872,-6.4602 -11.70239,-1.50383 -3.82425,3.7066 -4.04817,5.05327 -1.29761,7.80383 2.31887,2.31887 3.00695,2.40959 6.43373,0.84824 z M 24.566722,232.38131 C 30.073004,228.18146 28.821054,223 22.3,223 18.986658,223 15,225.83723 15,228.19528 15,229.27587 19.840109,235 20.753813,235 c 0.208797,0 1.924606,-1.17841 3.812909,-2.61869 z M 144.5,34 c 0.33992,-0.55 2.16648,-1 4.05902,-1 C 151.9449,33 152,32.931393 152,28.715608 c 0,-3.668585 -0.41744,-4.530982 -2.90429,-6 -4.81372,-2.843534 -7.71805,-2.243409 -10.66039,2.202766 -2.10891,3.186782 -2.38933,4.299034 -1.50193,5.957173 C 138.76643,34.300603 143.18626,36.12567 144.5,34 z M 29.666667,202.33333 C 28.613235,201.2799 28.891125,196 30,196 c 0.55,0 1,1.575 1,3.5 0,3.59671 -0.182387,3.98428 -1.333333,2.83333 z M 120.63029,199.75 c -0.93826,-3.50111 -0.73579,-8.56676 0.36971,-9.25 0.62464,-0.38605 1,1.65628 1,5.44098 0,6.41864 -0.38411,7.4868 -1.36971,3.80902 z M 101,183.55902 c 0,-0.79254 0.45,-1.7191 1,-2.05902 0.55,-0.33992 1,0.30852 1,1.44098 0,1.13246 -0.45,2.05902 -1,2.05902 -0.55,0 -1,-0.64844 -1,-1.44098 z m 0.57207,-6.30902 c -0.32276,-1.5125 -0.18282,-4.775 0.31098,-7.25 0.87591,-4.3902 0.90049,-4.32311 1.00738,2.75 0.11485,7.59948 -0.33169,9.12367 -1.31836,4.5 z m -48.493123,-3.66667 c -0.04342,-1.05416 0.192928,-1.64479 0.52522,-1.3125 0.332291,0.33229 0.367818,1.19479 0.07895,1.91667 -0.319226,0.79773 -0.556183,0.56078 -0.604167,-0.60417 z M 102.27236,160 c 0,-2.475 0.19502,-3.4875 0.43337,-2.25 0.23836,1.2375 0.23836,3.2625 0,4.5 -0.23835,1.2375 -0.43337,0.225 -0.43337,-2.25 z m 6.13733,-6.53784 c -1.66551,-3.09266 -1.71678,-3.657 -0.40747,-4.48469 C 110.56889,147.35492 111,147.86149 111,152.5 c 0,2.475 -0.15414,4.5 -0.34253,4.5 -0.18839,0 -1.19989,-1.59203 -2.24778,-3.53784 z m -34.330743,-7.87883 c -0.04342,-1.05416 0.192928,-1.64479 0.52522,-1.3125 0.332291,0.33229 0.367818,1.19479 0.07895,1.91667 -0.319226,0.79773 -0.556183,0.56078 -0.604167,-0.60417 z M 109.54777,144.75 c -0.41896,-0.9625 -0.41896,-2.5375 0,-3.5 0.72547,-1.66667 0.78168,-1.66667 1.18031,0 0.23021,0.9625 0.23021,2.5375 0,3.5 -0.39863,1.66667 -0.45484,1.66667 -1.18031,0 z m 18.89838,-8.83713 c -0.36954,-0.59793 -0.17109,-1.58793 0.44098,-2.2 C 129.70429,132.89571 130,133.18458 130,134.8 c 0,2.41451 -0.51946,2.78655 -1.55385,1.11287 z M 53.666667,134.33333 C 53.3,133.96667 53,133.20167 53,132.63333 c 0,-0.6266 0.465771,-0.56756 1.183333,0.15 0.650834,0.65084 0.950834,1.41584 0.666667,1.7 -0.284167,0.28417 -0.816667,0.21667 -1.183333,-0.15 z m 20.146785,-10.88517 c -0.377601,-0.57851 -0.358466,-4.17851 0.04252,-8 0.506983,-4.83163 0.868426,-6.03431 1.186548,-3.94816 0.6053,3.96937 -0.35345,13.28967 -1.22907,11.94816 z M 63.923592,106.95 C 63.881568,106.1525 63.203861,100.775 62.417577,95 61.039982,84.882019 59.866937,57.335832 60.744287,55.706748 61.956318,53.456221 65.201318,63.313324 65.943491,71.5 67.163905,84.961988 66.76169,105.63855 65.25,107.15011 64.25005,108.14997 63.984715,108.10994 63.923592,106.95 z M 20.070285,91.309017 c 0.112093,-7.66953 1.775492,-10.011558 1.85943,-2.618034 C 21.968372,92.096024 21.55,95.160081 21,95.5 20.383012,95.88132 20.02692,94.276124 20.070285,91.309017 z M 121.07895,80.583333 c -0.0434,-1.054166 0.19292,-1.644791 0.52522,-1.3125 0.33229,0.332292 0.36781,1.194792 0.0789,1.916667 -0.31922,0.797733 -0.55618,0.560776 -0.60416,-0.604167 z M 120,67.5 c 0,-1.375 0.45,-2.5 1,-2.5 0.55,0 1,1.125 1,2.5 0,1.375 -0.45,2.5 -1,2.5 -0.55,0 -1,-1.125 -1,-2.5 z m 0.23163,-11.558863 c 0.62134,-6.466356 2.72863,-9.06469 2.27248,-2.802008 -0.1747,2.398479 -0.35959,5.148371 -0.41087,6.110871 -0.0513,0.9625 -0.60049,1.75 -1.22047,1.75 -0.75181,0 -0.96534,-1.68481 -0.64114,-5.058863 z M 28.191717,56.93538 C 27.526951,55.870921 26.382307,55 25.648063,55 c -0.734244,0 -3.2385,-2.25745 -5.565012,-5.016556 -3.453144,-4.095224 -4.41659,-6.16138 -5.24586,-11.25 -1.268495,-7.78382 -0.234137,-10.780612 4.891819,-14.172809 3.312031,-2.191798 4.506211,-2.438547 9.14364,-1.889312 3.443202,0.407796 6.323449,1.464248 8.125067,2.98021 3.45514,2.907308 4.613629,2.943191 6.087861,0.188564 0.985302,-1.841055 1.283573,-1.931845 2.020508,-0.615015 1.311107,2.342818 2.262352,17.832326 1.434251,23.354497 -0.637982,4.254369 -0.89363,4.657749 -1.996253,3.149822 -1.747626,-2.390021 -3.231697,-2.169516 -6.079482,0.903294 -1.990844,2.148157 -2.710933,2.407758 -3.912532,1.410519 -1.214335,-1.007809 -1.795284,-0.69162 -3.312161,1.802684 -1.749532,2.876876 -1.898659,2.930176 -3.048192,1.089482 z M 26.763569,37.107601 c 0.955037,-0.490819 3.004659,-1.395172 4.554714,-2.009673 3.844365,-1.524052 3.377185,-5.203921 -0.818283,-6.445432 -1.65,-0.488264 -3.772619,-1.279339 -4.716931,-1.757946 -2.548129,-1.291471 -6.665767,0.666722 -7.82757,3.722496 -1.988584,5.230372 3.45497,9.241657 8.80807,6.490555 z M 52.369714,40.75 c 0.331637,-1.2375 0.609121,-3.514058 0.616631,-5.059017 C 52.994197,34.075653 53.424948,33.144598 54,33.5 c 1.10545,0.683206 1.341828,5.445637 0.393011,7.918213 C 53.452313,43.869632 51.689688,43.287508 52.369714,40.75 z M 16.502731,17.163054 c 4.401502,-1.506658 8.564002,-3.086263 9.25,-3.510233 1.838634,-1.136339 1.517872,0.877709 -0.39226,2.462978 -2.010654,1.668695 -9.79363,3.797589 -13.860471,3.791285 -2.1232152,-0.0033 -0.661109,-0.805266 5.002731,-2.74403 z"
         style="fill:#695f50" />
      <path
         inkscape:connector-curvature="0"
         id="path3850"
         d="M 32.5,261.04108 C 21.039077,260.04991 15.102593,256.96665 11.594891,250.1835 9.6856982,246.49153 10.278983,244.63638 13.084157,245.52671 14.556537,245.99403 15,245.64897 15,244.036 c 0,-1.15432 -0.675,-2.35779 -1.5,-2.67437 -1.145765,-0.43967 -1.5,-2.31779 -1.5,-7.95284 0,-6.63675 0.276031,-7.68549 2.75,-10.44821 1.956114,-2.18443 4.312391,-3.41702 8.162082,-4.26965 4.859895,-1.07636 5.540826,-1.55537 6.673922,-4.6948 0.743583,-2.06021 1.293087,-2.72235 1.337918,-1.61215 0.178916,4.43064 2.536585,9.84061 4.636477,10.63898 1.202514,0.4572 3.19013,2.45535 4.416923,4.44035 1.710987,2.76843 2.534976,3.35641 3.537578,2.52432 2.162874,-1.79502 2.709455,0.48045 2.333847,9.71602 -0.297357,7.31148 -0.09138,8.73766 1.397797,9.67842 1.305717,0.82486 2.281972,0.76896 3.867898,-0.22147 1.521538,-0.95021 2.427319,-1.01884 3.203456,-0.2427 0.595156,0.59515 3.847358,1.0821 7.227114,1.0821 4.948225,0 6.510584,-0.40395 8.022071,-2.07413 1.168509,-1.29118 2.712524,-1.91441 4.090342,-1.65103 1.217306,0.23271 2.779328,0.0733 3.471161,-0.35431 0.997449,-0.61646 1.251386,-21.75489 1.22652,-102.09897 C 78.33786,88.094702 77.955907,36.0875 77.506322,28.25 76.623777,12.864808 76.869573,12.119062 81.706401,15.506908 c 1.568282,1.098468 2.303163,2.928024 2.711285,6.75 C 84.725616,25.140609 85.136404,77 85.330548,137.5 c 0.194144,60.5 0.683083,110.75035 1.08653,111.66744 0.610368,1.38746 2.141311,1.6378 9.11736,1.49088 4.830352,-0.10174 8.879382,-0.67214 9.553022,-1.34578 0.89227,-0.89227 1.62794,-0.89011 3.106,0.009 1.61822,0.98451 2.23114,0.81956 3.72622,-1.00283 1.65025,-2.01153 1.91554,-2.05505 3.41106,-0.55953 0.8919,0.8919 1.96836,1.27492 2.39214,0.85115 1.3554,-1.35541 2.1841,-19.88318 1.15876,-25.90735 -1.0524,-6.18316 -0.4518,-10.07102 1.45322,-9.4072 0.79624,0.27746 1.05999,2.98607 0.83302,8.55505 -0.21353,5.23908 0.0431,8.14904 0.71861,8.14904 0.57791,0 0.78952,0.68073 0.47025,1.51273 -0.31927,0.83201 -0.0872,2.10709 0.51565,2.83351 0.60288,0.72642 1.44538,3.75819 1.87222,6.73726 0.63737,4.44839 1.15364,5.47063 2.88846,5.71937 2.94442,0.42217 3.44643,-1.72861 1.66587,-7.13716 -1.93551,-5.8792 -1.11541,-9.15952 3.3406,-13.36208 2.50844,-2.36577 4.4415,-3.30363 6.80922,-3.30363 1.81849,0 3.86655,-0.675 4.55124,-1.5 1.73943,-2.09589 2.50309,-1.88601 3.84374,1.05639 1.33123,2.92174 2.82476,2.43404 4.29818,-1.40353 1.8546,-4.83039 3.80715,-31.4026 3.50159,-47.65286 -0.16548,-8.8 0.0222,-20.3667 0.41709,-25.70379 0.39487,-5.33708 0.29981,-12.98708 -0.21124,-17 -0.51106,-4.01291 -0.90162,-7.97121 -0.86791,-8.79621 0.0337,-0.825 0.003,-7.8 -0.0684,-15.5 -0.0713,-7.7 -0.20569,-23 -0.29854,-34 -0.0928,-11 -0.54225,-20.7875 -0.99865,-21.75 -1.05279,-2.2202 -3.42101,-2.236302 -5.84816,-0.03976 C 146.16821,52.157744 145.74304,52.202258 145,51 c -0.73924,-1.196123 -1.19208,-1.136149 -2.8671,0.379732 -1.94533,1.760496 -2.01273,1.715503 -3.05548,-2.039764 -0.58645,-2.111982 -1.06878,-4.430334 -1.07184,-5.151893 -0.003,-0.721559 -1.11972,-3.667023 -2.48144,-6.545475 -2.12036,-4.482062 -2.329,-5.765482 -1.453,-8.938074 C 134.63372,26.667037 135.35034,25 135.66364,25 c 0.31329,0 0.31353,0.979287 5.4e-4,2.176193 -0.75259,2.877882 2.20526,7.752934 5.15279,8.492718 1.28542,0.322619 3.35382,0.04246 4.59645,-0.622577 1.24264,-0.665036 2.89546,-1.119204 3.67296,-1.009263 3.4513,0.488033 3.91362,-0.09896 3.91362,-4.968977 0,-4.252415 -0.38322,-5.20478 -2.78148,-6.912491 -1.52981,-1.089322 -3.89231,-2.190508 -5.25,-2.447081 -1.35768,-0.256572 -0.1592,-0.29827 2.66331,-0.09266 3.69106,0.268879 5.48014,-0.04585 6.37245,-1.121014 0.68233,-0.822166 1.74801,-1.477951 2.36816,-1.4573 2.1907,0.07295 8.3897,6.507123 9.50123,9.861676 0.79842,2.409587 1.12585,27.301715 1.12467,85.499996 -0.003,132.32916 -1.24779,140.72377 -21.65671,146.01226 -9.31829,2.41461 -30.29232,3.90066 -43.84163,3.10627 -13.740033,-0.80558 -12.385839,-0.79966 -39.5,-0.1725 -11.275,0.2608 -24.55,0.12393 -29.5,-0.30417 z M 122.24475,242.5 c 0.26285,-1.375 0.0903,-2.5 -0.38342,-2.5 -0.47373,0 -0.86133,1.125 -0.86133,2.5 0,1.375 0.17254,2.5 0.38342,2.5 0.21089,0 0.59848,-1.125 0.86133,-2.5 z m 22.47255,-7.02804 c 1.80549,-1.9708 3.2827,-4.04283 3.2827,-4.60453 0,-0.5617 -1.29869,-2.31996 -2.88597,-3.90725 -2.56515,-2.56515 -3.24996,-2.78159 -6.16013,-1.94696 -3.65785,1.04906 -7.62244,4.36709 -8.49211,7.10717 -0.59309,1.86865 1.01549,5.79213 2.93791,7.16587 2.3654,1.69028 8.0209,-0.21575 11.3176,-3.8143 z M 25.5,234.10213 c 2.446233,-1.42834 3.056181,-2.51052 3.304357,-5.86263 0.250723,-3.38652 -0.08307,-4.31829 -1.894156,-5.28756 -2.922655,-1.56416 -10.003182,-0.54527 -11.625115,1.67286 -1.760062,2.40703 -1.628675,7.30612 0.214914,8.01357 0.825,0.31659 1.5,1.20246 1.5,1.96862 0,1.94176 4.797899,1.65679 8.5,-0.50486 z m 4.166667,-31.7688 C 28.613235,201.2799 28.891125,196 30,196 c 0.55,0 1,1.575 1,3.5 0,3.59671 -0.182387,3.98428 -1.333333,2.83333 z M 120.63029,199.75 c -0.93826,-3.50111 -0.73579,-8.56676 0.36971,-9.25 0.62464,-0.38605 1,1.65628 1,5.44098 0,6.41864 -0.38411,7.4868 -1.36971,3.80902 z M 101,183.55902 c 0,-0.79254 0.45,-1.7191 1,-2.05902 0.55,-0.33992 1,0.30852 1,1.44098 0,1.13246 -0.45,2.05902 -1,2.05902 -0.55,0 -1,-0.64844 -1,-1.44098 z m 0.57207,-6.30902 c -0.32276,-1.5125 -0.18282,-4.775 0.31098,-7.25 0.87591,-4.3902 0.90049,-4.32311 1.00738,2.75 0.11485,7.59948 -0.33169,9.12367 -1.31836,4.5 z m -48.493123,-3.66667 c -0.04342,-1.05416 0.192928,-1.64479 0.52522,-1.3125 0.332291,0.33229 0.367818,1.19479 0.07895,1.91667 -0.319226,0.79773 -0.556183,0.56078 -0.604167,-0.60417 z M 102.27236,160 c 0,-2.475 0.19502,-3.4875 0.43337,-2.25 0.23836,1.2375 0.23836,3.2625 0,4.5 -0.23835,1.2375 -0.43337,0.225 -0.43337,-2.25 z m 6.13733,-6.53784 c -1.66551,-3.09266 -1.71678,-3.657 -0.40747,-4.48469 C 110.56889,147.35492 111,147.86149 111,152.5 c 0,2.475 -0.15414,4.5 -0.34253,4.5 -0.18839,0 -1.19989,-1.59203 -2.24778,-3.53784 z m -34.330743,-7.87883 c -0.04342,-1.05416 0.192928,-1.64479 0.52522,-1.3125 0.332291,0.33229 0.367818,1.19479 0.07895,1.91667 -0.319226,0.79773 -0.556183,0.56078 -0.604167,-0.60417 z M 109.54777,144.75 c -0.41896,-0.9625 -0.41896,-2.5375 0,-3.5 0.72547,-1.66667 0.78168,-1.66667 1.18031,0 0.23021,0.9625 0.23021,2.5375 0,3.5 -0.39863,1.66667 -0.45484,1.66667 -1.18031,0 z m 18.89838,-8.83713 c -0.36954,-0.59793 -0.17109,-1.58793 0.44098,-2.2 C 129.70429,132.89571 130,133.18458 130,134.8 c 0,2.41451 -0.51946,2.78655 -1.55385,1.11287 z M 53.666667,134.33333 C 53.3,133.96667 53,133.20167 53,132.63333 c 0,-0.6266 0.465771,-0.56756 1.183333,0.15 0.650834,0.65084 0.950834,1.41584 0.666667,1.7 -0.284167,0.28417 -0.816667,0.21667 -1.183333,-0.15 z m 20.146785,-10.88517 c -0.377601,-0.57851 -0.358466,-4.17851 0.04252,-8 0.506983,-4.83163 0.868426,-6.03431 1.186548,-3.94816 0.6053,3.96937 -0.35345,13.28967 -1.22907,11.94816 z M 63.923592,106.95 C 63.881568,106.1525 63.203861,100.775 62.417577,95 61.039982,84.882019 59.866937,57.335832 60.744287,55.706748 61.956318,53.456221 65.201318,63.313324 65.943491,71.5 67.163905,84.961988 66.76169,105.63855 65.25,107.15011 64.25005,108.14997 63.984715,108.10994 63.923592,106.95 z M 20.070285,91.309017 c 0.112093,-7.66953 1.775492,-10.011558 1.85943,-2.618034 C 21.968372,92.096024 21.55,95.160081 21,95.5 20.383012,95.88132 20.02692,94.276124 20.070285,91.309017 z M 121.07895,80.583333 c -0.0434,-1.054166 0.19292,-1.644791 0.52522,-1.3125 0.33229,0.332292 0.36781,1.194792 0.0789,1.916667 -0.31922,0.797733 -0.55618,0.560776 -0.60416,-0.604167 z M 120,67.5 c 0,-1.375 0.45,-2.5 1,-2.5 0.55,0 1,1.125 1,2.5 0,1.375 -0.45,2.5 -1,2.5 -0.55,0 -1,-1.125 -1,-2.5 z m 0.23163,-11.558863 c 0.62134,-6.466356 2.72863,-9.06469 2.27248,-2.802008 -0.1747,2.398479 -0.35959,5.148371 -0.41087,6.110871 -0.0513,0.9625 -0.60049,1.75 -1.22047,1.75 -0.75181,0 -0.96534,-1.68481 -0.64114,-5.058863 z M 28.191717,56.93538 C 27.526951,55.870921 26.382307,55 25.648063,55 c -0.734244,0 -3.2385,-2.25745 -5.565012,-5.016556 -3.453144,-4.095224 -4.41659,-6.16138 -5.24586,-11.25 -1.268495,-7.78382 -0.234137,-10.780612 4.891819,-14.172809 3.312031,-2.191798 4.506211,-2.438547 9.14364,-1.889312 3.443202,0.407796 6.323449,1.464248 8.125067,2.98021 3.45514,2.907308 4.613629,2.943191 6.087861,0.188564 0.985302,-1.841055 1.283573,-1.931845 2.020508,-0.615015 1.311107,2.342818 2.262352,17.832326 1.434251,23.354497 -0.637982,4.254369 -0.89363,4.657749 -1.996253,3.149822 -1.747626,-2.390021 -3.231697,-2.169516 -6.079482,0.903294 -1.990844,2.148157 -2.710933,2.407758 -3.912532,1.410519 -1.214335,-1.007809 -1.795284,-0.69162 -3.312161,1.802684 -1.749532,2.876876 -1.898659,2.930176 -3.048192,1.089482 z M 27.361626,38.5 C 26.946423,37.417998 27.46931,37 29.238024,37 c 2.9449,0 6.071462,-3.154452 5.592357,-5.642243 -0.189709,-0.985078 -2.223,-3.052381 -4.518425,-4.594007 -4.100512,-2.753936 -4.243063,-2.775121 -8.151216,-1.211389 -6.811518,2.725429 -7.726346,8.836783 -1.930497,12.896354 2.957659,2.071625 7.920356,2.107314 7.131383,0.05129 z m 25.008088,2.25 c 0.331637,-1.2375 0.609121,-3.514058 0.616631,-5.059017 C 52.994197,34.075653 53.424948,33.144598 54,33.5 c 1.10545,0.683206 1.341828,5.445637 0.393011,7.918213 C 53.452313,43.869632 51.689688,43.287508 52.369714,40.75 z M 116.5,20 c -0.33992,-0.55 -0.16803,-1 0.38197,-1 0.55,0 1.27811,0.45 1.61803,1 0.33992,0.55 0.16803,1 -0.38197,1 -0.55,0 -1.27811,-0.45 -1.61803,-1 z"
         style="fill:#715433" />
      <path
         inkscape:connector-curvature="0"
         id="path3848"
         d="m 32.5,261.0307 c -9.453573,-0.82848 -13.577916,-2.35583 -17.428004,-6.45406 l -2.325139,-2.475 2.875344,-0.72167 c 4.282831,-1.07492 15.711914,-0.9261 25.877799,0.33696 9.375015,1.16479 22.896118,1.07719 32.75,-0.2122 L 80,250.75234 80.0071,139.62617 C 80.014235,28.231503 80.291708,13.892083 82.399336,15.998925 83.181952,16.78125 83.64448,50.993402 84,134.39641 c 0.397256,93.19406 0.762788,117.61376 1.778847,118.83763 1.013551,1.22085 2.105725,1.35462 5.264789,0.64482 2.192269,-0.49257 5.891788,-0.82301 8.221153,-0.73431 2.329371,0.0887 6.485211,-0.10831 9.235211,-0.4378 2.75,-0.32948 9.05753,-1.03511 14.01674,-1.56807 C 131.26076,250.19899 137,248.51337 137,246.88494 c 0,-0.43672 -1.125,-1.91903 -2.5,-3.29403 -1.375,-1.375 -2.5,-2.85796 -2.5,-3.29546 0,-0.4375 2.0311,-0.79545 4.51356,-0.79545 3.95829,0 4.94703,-0.47315 8.03694,-3.84596 2.4435,-2.66723 3.33815,-4.42953 2.91904,-5.75 -0.68898,-2.1708 -0.15849,-2.34312 2.62589,-0.85297 1.69977,0.90969 2.15496,0.59392 3.38396,-2.34751 4.25239,-10.17738 5.35368,-36.84697 4.79851,-116.20356 -0.43546,-62.244663 -0.46584,-63.026976 -2.53364,-65.25 -1.44324,-1.551583 -3.2425,-2.25 -5.79645,-2.25 -5.83064,0 -10.26852,-2.352297 -12.24081,-6.488244 l -1.73962,-3.64801 2.23882,1.568127 c 2.56928,1.799592 6.3696,2.063519 7.33029,0.509078 0.36,-0.582477 1.62405,-0.982667 2.80902,-0.889309 4.40828,0.347304 4.65449,0.07392 4.65449,-5.168273 0,-4.669859 0.17943,-5.06971 2.05489,-4.579267 1.5228,0.398221 2.2932,-0.08946 2.97525,-1.883368 C 158.53634,21.08933 159.36178,20 159.86447,20 c 1.81574,0 4.93382,3.571732 6.02294,6.899223 0.78021,2.383723 1.11209,27.926412 1.11093,85.499997 -0.003,132.32916 -1.24779,140.72377 -21.65671,146.01226 -9.31829,2.41461 -30.29232,3.90066 -43.84163,3.10627 -13.740033,-0.80558 -12.385839,-0.79966 -39.5,-0.1725 -11.275,0.2608 -24.55,0.11925 -29.5,-0.31455 z M 21,242.56987 c -1.925,-1.27185 -4.234274,-3.15788 -5.131719,-4.19116 C 14.22138,236.48252 12.452283,232 13.350825,232 15.00843,232 17,233.42279 17,234.60699 c 0,1.94839 4.808681,1.65405 8.5,-0.52029 2.651572,-1.56189 3,-2.30854 3,-6.42871 0,-2.63843 0.434006,-4.5331 1,-4.36553 0.55,0.16284 2.266867,2.75115 3.81526,5.7518 2.102452,4.07438 2.67984,6.34192 2.280414,8.95574 C 34.548751,244.851 27.698719,246.99573 21,242.56987 z M 28.5,47 C 28.160081,46.45 27.096461,46 26.1364,46 24.144376,46 17,39.8142 17,38.08945 c 0,-0.767447 0.965584,-0.641487 2.95034,0.38487 3.9311,2.03285 8.187169,2.047598 7.411286,0.02568 -0.418339,-1.090174 0.11684,-1.5 1.958805,-1.5 2.746509,0 6.89718,-4.298566 6.096592,-6.313824 C 35.157849,30.033779 33.50183,28.4875 31.736981,27.25 c -1.76485,-1.2375 -2.540154,-2.235688 -1.722899,-2.218197 2.49699,0.05344 4.848389,2.445462 6.943619,7.063569 3.473495,7.655946 2.673672,11.069756 -3.265875,13.939433 C 28.933618,48.333721 29.284025,48.268578 28.5,47 z"
         style="fill:#2e2a25" />
    </g>
  </g>
</svg>
