<?xml version="1.0" encoding="UTF-8" standalone="no"?>
<!-- Created with Inkscape (http://www.inkscape.org/) -->

<svg
   xmlns:dc="http://purl.org/dc/elements/1.1/"
   xmlns:cc="http://creativecommons.org/ns#"
   xmlns:rdf="http://www.w3.org/1999/02/22-rdf-syntax-ns#"
   xmlns:svg="http://www.w3.org/2000/svg"
   xmlns="http://www.w3.org/2000/svg"
   xmlns:sodipodi="http://sodipodi.sourceforge.net/DTD/sodipodi-0.dtd"
   xmlns:inkscape="http://www.inkscape.org/namespaces/inkscape"
   width="210mm"
   height="297mm"
   id="svg2"
   version="1.1"
   inkscape:version="0.48.3.1 r9886"
   sodipodi:docname="nuisance.svg">
  <defs
     id="defs4" />
  <sodipodi:namedview
     id="base"
     pagecolor="#ffffff"
     bordercolor="#666666"
     borderopacity="1.0"
     inkscape:pageopacity="0.0"
     inkscape:pageshadow="2"
     inkscape:zoom="0.98994949"
     inkscape:cx="158.03369"
     inkscape:cy="221.29481"
     inkscape:document-units="px"
     inkscape:current-layer="layer1"
     showgrid="false"
     inkscape:window-width="1364"
     inkscape:window-height="747"
     inkscape:window-x="0"
     inkscape:window-y="19"
     inkscape:window-maximized="0" />
  <metadata
     id="metadata7">
    <rdf:RDF>
      <cc:Work
         rdf:about="">
        <dc:format>image/svg+xml</dc:format>
        <dc:type
           rdf:resource="http://purl.org/dc/dcmitype/StillImage" />
        <dc:title></dc:title>
      </cc:Work>
    </rdf:RDF>
  </metadata>
  <g
     inkscape:label="Calque 1"
     inkscape:groupmode="layer"
     id="layer1">
    <path
       style="fill:#818286;fill-opacity:1;stroke:#767676;stroke-width:0.5;stroke-linecap:butt;stroke-linejoin:miter;stroke-miterlimit:4;stroke-opacity:1;stroke-dasharray:none"
       d="m 25.446434,1043.5229 c -1.87681,-1.2374 -3.6228,-4.4853 -6.2042,-10.8222 -1.13041,-2.775 -2.50662,-5.7486 -4.28475,-8.6664 -5.6773598,-9.3162 -12.1530698,-0.2349 -12.4574798,-13.815 -0.30442,-13.58004 4.40812,-22.67812 6.42857,-28.92855 2.0204498,-6.25043 -0.4902,-13.64016 3.5714298,-18.57143 4.06163,-4.93127 12.44323,-7.9695 18.92857,-10.71429 6.48534,-2.74479 14.79379,-0.883 20,-2.49999 5.20621,-1.61699 11.70093,-8.3227 16.07143,-6.42858 4.3705,1.89412 3.88938,5.69714 7.5,8.21429 3.61062,2.51715 7.35217,2.3094 12.85714,5 5.50497,2.6906 15.168646,11.45465 17.142856,14.64286 1.97421,3.18821 -1.77412,8.11332 -0.93355,12.0368 0.88191,4.11641 6.31129,7.23822 6.64783,10.82034 0.33654,3.58212 -1.21352,13.97445 -1.07143,18.57145 0.14209,4.5969 1.25985,6.5321 -0.17857,8.5714 -1.43842,2.0393 -6.15146,5.5445 -9.46428,8.9286 -3.312816,3.384 -0.940516,5.9987 -4.999996,10.3571 -4.05948,4.3584 -6.8774,4.2916 -18.57143,6.0715 -11.69403,1.7798 -48.28347,-0.9886 -50.98214,-2.7679 z"
       id="path2998"
       inkscape:connector-curvature="0"
       sodipodi:nodetypes="ssssssssssssssssssss" />
    <path
       inkscape:connector-curvature="0"
       style="fill:#bcbdc1;fill-opacity:1;stroke:none"
       d="m 65.768554,942.54307 c -4.2422,0.0367 -9.75707,5.36638 -14.3125,6.78125 -5.20621,1.61699 -13.51466,-0.24479 -20,2.5 -6.48534,2.74479 -14.87587,5.78748 -18.9375,10.71875 -4.0616298,4.93127 -1.54205,12.31207 -3.5624998,18.5625 -1.50219,4.64715 -5.15744,15.1102 -5.8125,19.34373 -0.65506,4.2336 25.2907498,13.2807 35.4374998,13.1563 10.14675,-0.1244 13.58449,-9.0736 21.4375,-8.5625 7.85301,0.5111 12.37708,11.0858 21.0625,11.7812 8.68542,0.6955 26.437496,-9.6562 26.437496,-9.6562 l 2.34375,0 c 0.37838,-4.9317 1.11701,-10.98663 0.875,-13.56253 -0.33654,-3.58212 -5.77434,-6.69609 -6.65625,-10.8125 -0.84057,-3.92348 2.91171,-8.87429 0.9375,-12.0625 -1.97421,-3.18821 -11.651276,-11.9344 -17.156246,-14.625 -5.50497,-2.6906 -9.23313,-2.48285 -12.84375,-5 -3.61062,-2.51715 -3.1295,-6.32463 -7.5,-8.21875 -0.54631,-0.23676 -1.14397,-0.34899 -1.75,-0.34375 z"
       id="path2998-1"
       sodipodi:nodetypes="ssssszzzzccsssssss" />
    <path
       inkscape:connector-curvature="0"
       style="fill:#2a2a2a;fill-opacity:1;stroke:none"
       d="m 54.464684,1035.3755 c -1.85091,-1.4434 -4.75709,3.2113 -4.75709,3.2113 l -8.01786,1.0893 c 0,0 -3.3494,-3.9685 -6.25,-5.1875 -2.9006,-1.219 -0.90625,5.5313 -0.90625,5.5313 -4.42096,-2.5506 -6.97148,-2.4526 -15.0625,-6.8125 2.46072,6.1351 4.35563,9.2654 6.1875,10.4732 2.69867,1.7793 39.11847,4.4629 50.8125,2.683 11.48086,-1.7474 14.39941,-1.7211 18.34375,-5.8437 l -13.5,-1.2188 c 0,0 -2.71278,-10.1505 -5.53125,-7.8437 -2.81847,2.3068 -6.59375,8.2187 -6.59375,8.2187 l -9.125,-0.5625 c 0,0 -3.74914,-2.2947 -5.60005,-3.7381 z"
       id="path3004-6"
       sodipodi:nodetypes="zcczccsscczccz" />
    <path
       style="fill:#2a2a2a;fill-opacity:1;stroke:none"
       d="m 99.102404,986.38976 c 0.51601,-0.28509 2.281566,-10.94812 1.262686,-12.37764 -1.018876,-1.42952 -17.279146,-14.97633 -20.209366,-14.90279 -2.93022,0.0735 11.91702,14.42463 12.96352,15.66099 1.0465,1.23636 5.46715,11.90453 5.98316,11.61944 z"
       id="path3822"
       inkscape:connector-curvature="0"
       sodipodi:nodetypes="zzzzz" />
    <path
       style="fill:#2a2a2a;fill-opacity:1;stroke:none"
       d="m 93.290864,1027.2978 c 1.00662,0.7371 6.43685,-4.5305 8.586296,-8.0812 2.14945,-3.5507 3.55446,-8.9755 3.53553,-12.6269 -0.0189,-3.6515 -4.09606,-5.2459 -7.071056,-6.566 -2.975,-1.32016 0.19324,7.9998 -0.50508,9.5964 -0.69832,1.5966 -6.68316,4.3774 -7.07107,7.0711 -0.38791,2.6936 2.65314,3.6929 3.03046,5.5558 0.37732,1.863 -1.5117,4.3137 -0.50508,5.0508 z"
       id="path3824"
       inkscape:connector-curvature="0"
       sodipodi:nodetypes="zzzzzzzz" />
    <path
       sodipodi:nodetypes="zszzzsz"
       inkscape:connector-curvature="0"
       id="path3828"
       d="m 14.072414,988.47093 c -0.81428,1.40723 -4.5407198,6.70824 -3.78484,3.15211 1.46153,-6.87599 5.03383,-25.5858 5.9096,-26.31324 0.87577,-0.72744 7.49702,-5.59885 10.31114,-4.7789 2.81413,0.8199 -3.95267,5.55668 -4.74967,6.11366 -0.797,0.55698 -1.49515,5.33899 -3.73117,7.9855 -1.48895,1.76228 -3.14079,12.43364 -3.95506,13.84087 z"
       style="fill:#2a2a2a;fill-opacity:1;stroke:none" />
    <path
       style="fill:#2a2a2a;fill-opacity:1;stroke:none"
       d="m 7.1753642,1013.9133 c -0.18832,0.4246 1.73933,2.4047 3.0304598,3.0304 1.29113,0.6257 4.29315,0.5051 4.29315,0.5051 0.45425,-0.099 -7.1352898,-3.9602 -7.3236098,-3.5355 z"
       id="path3854"
       inkscape:connector-curvature="0"
       sodipodi:nodetypes="szss" />
  </g>
</svg>
