<?xml version="1.0" encoding="UTF-8" standalone="no"?>
<!-- Created with Inkscape (http://www.inkscape.org/) -->

<svg
   xmlns:dc="http://purl.org/dc/elements/1.1/"
   xmlns:cc="http://creativecommons.org/ns#"
   xmlns:rdf="http://www.w3.org/1999/02/22-rdf-syntax-ns#"
   xmlns:svg="http://www.w3.org/2000/svg"
   xmlns="http://www.w3.org/2000/svg"
   xmlns:sodipodi="http://sodipodi.sourceforge.net/DTD/sodipodi-0.dtd"
   xmlns:inkscape="http://www.inkscape.org/namespaces/inkscape"
   width="64"
   height="64"
   id="svg3825"
   version="1.1"
   inkscape:version="0.48.2 r9819"
   sodipodi:docname="pause.svg"
   inkscape:export-filename="F:\Projects\puyopuyo\puyopuyo-android\assets\images\bouttons\sound-off.png"
   inkscape:export-xdpi="90"
   inkscape:export-ydpi="90">
  <defs
     id="defs3827">
    <filter
       inkscape:collect="always"
       id="filter4377"
       color-interpolation-filters="sRGB">
      <feGaussianBlur
         inkscape:collect="always"
         stdDeviation="0.54961902"
         id="feGaussianBlur4379" />
    </filter>
    <filter
       inkscape:collect="always"
       id="filter3809"
       color-interpolation-filters="sRGB">
      <feGaussianBlur
         inkscape:collect="always"
         stdDeviation="0.50275165"
         id="feGaussianBlur3811" />
    </filter>
    <filter
       inkscape:collect="always"
       id="filter3907">
      <feGaussianBlur
         inkscape:collect="always"
         stdDeviation="0.82400329"
         id="feGaussianBlur3909" />
    </filter>
    <filter
       inkscape:collect="always"
       id="filter3840">
      <feGaussianBlur
         inkscape:collect="always"
         stdDeviation="5.2880243"
         id="feGaussianBlur3842" />
    </filter>
  </defs>
  <sodipodi:namedview
     id="base"
     pagecolor="#ffffff"
     bordercolor="#666666"
     borderopacity="1.0"
     inkscape:pageopacity="0.0"
     inkscape:pageshadow="2"
     inkscape:zoom="2.3554687"
     inkscape:cx="-27.712107"
     inkscape:cy="37.658989"
     inkscape:document-units="px"
     inkscape:current-layer="layer1"
     showgrid="false"
     inkscape:window-width="1680"
     inkscape:window-height="988"
     inkscape:window-x="-8"
     inkscape:window-y="-8"
     inkscape:window-maximized="1">
    <inkscape:grid
       type="xygrid"
       id="grid3837"
       empspacing="5"
       visible="true"
       enabled="true"
       snapvisiblegridlinesonly="true" />
  </sodipodi:namedview>
  <metadata
     id="metadata3830">
    <rdf:RDF>
      <cc:Work
         rdf:about="">
        <dc:format>image/svg+xml</dc:format>
        <dc:type
           rdf:resource="http://purl.org/dc/dcmitype/StillImage" />
        <dc:title />
      </cc:Work>
    </rdf:RDF>
  </metadata>
  <g
     inkscape:label="Calque 1"
     inkscape:groupmode="layer"
     id="layer1"
     transform="translate(0,-988.3622)">
    <g
       id="g2998"
       transform="matrix(2.3156543,0,0,2.3156238,-174.61528,-1383.2116)"
       inkscape:export-filename="F:\Projects\puyopuyo\puyopuyo-android\assets\images\bouttons\pause_button.png"
       inkscape:export-xdpi="90"
       inkscape:export-ydpi="90">
      <g
         style="filter:url(#filter4377)"
         transform="translate(0.62418726,0.70221066)"
         id="g4351">
        <rect
           ry="4.0000172"
           y="1024.3622"
           x="4"
           height="24.000061"
           width="9.0000048"
           id="rect4353"
           style="fill:#6a4b09;fill-opacity:1;fill-rule:evenodd;stroke:#000000;stroke-width:1;stroke-miterlimit:4;stroke-opacity:1;stroke-dasharray:none" />
        <rect
           ry="4"
           style="fill:#6a4b09;fill-opacity:1;fill-rule:evenodd;stroke:#000000;stroke-width:1;stroke-miterlimit:4;stroke-opacity:1;stroke-dasharray:none"
           id="rect4355"
           width="8"
           height="24.000017"
           x="20"
           y="1024.3622" />
      </g>
      <rect
         ry="4.0000172"
         y="1024.3622"
         x="4"
         height="24.000061"
         width="9.0000048"
         id="rect3833"
         style="fill:#483e2b;fill-opacity:1;fill-rule:evenodd;stroke:#000000;stroke-width:1;stroke-miterlimit:4;stroke-opacity:1;stroke-dasharray:none" />
      <rect
         ry="4"
         style="fill:#483e2b;fill-opacity:1;fill-rule:evenodd;stroke:#000000;stroke-width:1;stroke-miterlimit:4;stroke-opacity:1;stroke-dasharray:none"
         id="rect3835"
         width="8"
         height="24.000017"
         x="20"
         y="1024.3622" />
    </g>
    <g
       id="g3813"
       transform="matrix(1.6335325,0,0,1.6140681,-169.75609,-745.57247)">
      <path
         style="fill:#000000;fill-opacity:1;fill-rule:evenodd;stroke:#000000;stroke-width:0.64115608;stroke-opacity:1;filter:url(#filter3809)"
         d="m 15.877235,1021.486 c -0.744523,0.023 -1.383962,0.2014 -1.875,0.5938 l 0.03125,0.9062 0,15.9063 c -0.784058,-0.373 -1.643575,-0.5938 -2.5625,-0.5938 -3.4171093,0 -6.1874999,2.8599 -6.1874999,6.4063 0,3.5463 2.7703906,6.4375 6.1874999,6.4375 3.417109,0 6.1875,-2.8912 6.1875,-6.4375 0,-0.1053 0.0048,-0.2085 0,-0.3125 l 0,-19.5 c 4.288516,0.3692 9.118309,6.685 10.65625,8.96 -1.241585,-3.6249 -9.211232,-12.4652 -12.4375,-12.3663 z"
         id="path3787"
         inkscape:connector-curvature="0"
         sodipodi:nodetypes="ccccsssscccc" />
      <path
         sodipodi:nodetypes="ccccsssscccc"
         inkscape:connector-curvature="0"
         id="path3775"
         d="m 15.565141,1020.6277 c -0.744523,0.023 -1.383962,0.2014 -1.875,0.5938 l 0.03125,0.9062 0,15.9063 c -0.784058,-0.373 -1.643575,-0.5938 -2.5625,-0.5938 -3.4171089,0 -6.1874995,2.8599 -6.1874995,6.4063 0,3.5463 2.7703906,6.4375 6.1874995,6.4375 3.417109,0 6.1875,-2.8912 6.1875,-6.4375 0,-0.1053 0.0048,-0.2085 0,-0.3125 l 0,-19.5 c 4.288516,0.3692 9.118309,6.685 10.65625,8.96 -1.241585,-3.6249 -9.211232,-12.4652 -12.4375,-12.3663 z"
         style="fill:#483e2b;fill-opacity:1;fill-rule:evenodd;stroke:#000000;stroke-width:0.64115608;stroke-opacity:1" />
    </g>
    <path
       style="fill:#483e2b;fill-opacity:1;fill-rule:evenodd;stroke:#000000;stroke-width:1.15693772;stroke-miterlimit:4;stroke-opacity:1;stroke-dasharray:none"
       d="m -121.36002,906.65141 c -11.68342,-12.8263 -31.60849,-13.755 -44.43472,-2.0716 -12.82609,11.68331 -13.71062,31.56821 -2.02719,44.39441 11.68342,12.8259 31.52351,13.7508 44.34959,2.0675 12.82624,-11.6835 13.79575,-31.5641 2.11232,-44.39031 z m -6.23697,1.11691 -38.53266,35.0997 c -7.57739,-10.7524 -6.24248,-25.6134 3.66227,-34.6353 9.90314,-9.02071 24.86379,-8.99981 34.87039,-0.4644 z m 4.50411,4.9447 c 7.60567,10.761 6.25178,25.6861 -3.66624,34.7203 -9.91973,9.0363 -24.8656,8.9633 -34.86642,0.3794 l 38.53266,-35.0997 z"
       id="path3817"
       inkscape:connector-curvature="0" />
    <path
       style="fill:#483e2b;fill-opacity:1;fill-rule:evenodd;stroke:#000000;stroke-opacity:1"
       d="m -95.979098,1090.6191 c -0.692328,0 0.188037,-3.0286 0.188037,-6.6335 0,-3.605 -0.880365,-6.4213 -0.188037,-6.4213 0.692328,0 1.692321,2.9224 1.692321,6.5274 0,3.605 -0.999993,6.5274 -1.692321,6.5274 z"
       id="path3778-8"
       inkscape:connector-curvature="0"
       sodipodi:nodetypes="sssss" />
    <path
       sodipodi:nodetypes="sssss"
       inkscape:connector-curvature="0"
       id="path3829"
       d="m -92.85017,1093.5908 c -0.781563,0 0.212273,-4.4073 0.212273,-9.6536 0,-5.2462 -0.993836,-9.3447 -0.212273,-9.3447 0.781564,0 1.910448,4.2529 1.910448,9.4992 0,5.2462 -1.128884,9.4991 -1.910448,9.4991 z"
       style="fill:#483e2b;fill-opacity:1;fill-rule:evenodd;stroke:#000000;stroke-opacity:1" />
    <path
       style="fill:#483e2b;fill-opacity:1;fill-rule:evenodd;stroke:#000000;stroke-opacity:1"
       d="m -89.457589,1097.0933 c -0.824983,0 0.224066,-6.0324 0.224066,-13.213 0,-7.1806 -1.049049,-12.7903 -0.224066,-12.7903 0.824984,0 2.016584,5.821 2.016584,13.0017 0,7.1806 -1.1916,13.0016 -2.016584,13.0016 z"
       id="path3831"
       inkscape:connector-curvature="0"
       sodipodi:nodetypes="sssss" />
    <path
       sodipodi:nodetypes="sssss"
       inkscape:connector-curvature="0"
       id="path3833"
       d="m -85.104719,1101.5213 c -0.824983,0 0.224066,-8.0868 0.224066,-17.7129 0,-9.6261 -1.049049,-17.1463 -0.224066,-17.1463 0.824984,0 2.016584,7.8034 2.016584,17.4296 0,9.6261 -1.1916,17.4296 -2.016584,17.4296 z"
       style="fill:#483e2b;fill-opacity:1;fill-rule:evenodd;stroke:#000000;stroke-opacity:1" />
    <path
       id="path3865"
       d="m -100.20204,1063.3536 c -7.07596,0.1427 -16.8162,8.8694 -25.28125,13.75 l -10.5,0 c -3.8587,0 -6.96875,3.0788 -6.96875,6.9375 0,3.8587 3.11005,6.9688 6.96875,6.9688 l 10.5625,0 c 8.4745,4.3823 18.72439,12.6568 25.21875,12.7187 2.404455,0 3.090457,-40.3482 0,-40.375 z"
       style="fill:#483e2b;fill-opacity:1;fill-rule:evenodd;stroke:#000000;stroke-width:2.24499989;stroke-miterlimit:4;stroke-opacity:1;stroke-dasharray:none;filter:url(#filter3907)"
       inkscape:connector-curvature="0" />
    <path
       style="fill:#483e2b;fill-opacity:1;fill-rule:evenodd;stroke:#000000;stroke-width:2.245;stroke-miterlimit:4;stroke-opacity:1;stroke-dasharray:none"
       d="m -100.80243,1061.954 c -7.07597,0.1427 -16.81621,8.8694 -25.28125,13.75 l -10.5,0 c -3.85871,0 -6.96875,3.0788 -6.96875,6.9375 0,3.8587 3.11004,6.9688 6.96875,6.9688 l 10.5625,0 c 8.4745,4.3823 18.72439,12.6568 25.21875,12.7187 2.404449,0 3.090451,-40.3482 0,-40.375 z"
       id="rect3855"
       inkscape:connector-curvature="0" />
    <g
       id="g3844"
       transform="matrix(0.97055027,0,0,0.97055027,0.24604465,29.444483)">
      <g
         id="g3816"
         transform="matrix(0.19075473,0,0,0.19075473,27.777144,839.65939)"
         style="stroke:#000000;stroke-width:11.95074081;stroke-miterlimit:4;stroke-opacity:1;stroke-dasharray:none;filter:url(#filter3840)">
        <path
           style="fill:#483e2b;fill-opacity:1;stroke:#000000;stroke-width:11.95074081;stroke-miterlimit:4;stroke-opacity:1;stroke-dasharray:none"
           d="m -28.416235,1092.6449 c -12.52989,-12.4109 -22.76739,-23.1286 -22.75,-23.817 0.0302,-1.1951 34.5559,-66.8743 36.03988,-68.5597 0.3929,-0.44618 3.93463,3.9196 7.8705002,9.7018 3.93588,5.7822 7.55251005,10.758 8.03696005,11.0574 0.48443995,0.2995 7.24212995,-2.3788 15.01707975,-5.9517 13.22112,-6.0756 16.06721,-7.1485 16.06721,-6.0568 0,0.2416 -8.08687,23.681 -17.97083,52.0875 -9.8839498,28.4065 -17.8714498,52.1151 -17.7499998,52.6857 0.69328,3.2571 -4.0179,-0.7993 -24.5608002,-21.1472 z m 99.16321,22.1846 c -0.0651,-0.4125 -0.0783,-1.0481 -0.0292,-1.4124 0.0491,-0.3644 -7.99763,-23.9042 -17.88158,-52.3107 -9.88393,-28.4065 -17.9708,-51.8459 -17.9708,-52.0875 0,-1.0917 2.84609,-0.019 16.06722,6.0568 7.77494,3.5729 14.52573,6.2554 15.00174,5.9612 0.47601,-0.2942 4.10772,-5.2549 8.07047,-11.0239 3.96274,-5.769 7.51137,-10.13898 7.88584,-9.7112 1.46916,1.6783 35.976715,67.3508 36.006995,68.5261 0.0253,0.9822 -45.770265,46.7516 -46.778325,46.7516 -0.13967,0 -0.30723,-0.3375 -0.37236,-0.75 z M -4.1040148,998.24362 c -4.40581,-6.2348 -8.8494202,-12.0951 -9.8746902,-13.023 -1.38108,-1.2498 -5.57458,-2.0379 -16.18351,-3.0411 -10.60288,-1.0026 -14.61325,-1.7559 -15.45158,-2.9024 -0.62269,-0.8516 -1.66238,-7.726 -2.31041,-15.2764 -0.88045,-10.2584 -1.60544,-14.2002 -2.86848,-15.5958 -2.44112,-2.6974 -21.53945,-16.0322 -23.3298,-16.2893 -2.02901,-0.2913 -2.4692,-3.9361 -0.69022,-5.7151 2.03971,-2.03973 11.6781,-23.09044 11.6781,-25.50555 0,-2.40137 -9.57902,-23.03731 -11.6594,-25.1177 -1.64821,-1.64821 -1.42644,-5.69774 0.31203,-5.69774 1.37738,0 21.47884,-13.8828 23.77463,-16.41962 1.1606,-1.28245 1.93419,-5.6101 2.79438,-15.63244 0.86799,-10.11337 1.6189,-14.28848 2.77836,-15.44794 1.15946,-1.15946 5.33457,-1.91037 15.44794,-2.77837 10.12935,-0.86937 14.34381,-1.62817 15.66035,-2.81963 2.62558,-2.37612 16.3917102,-22.27633 16.3917102,-23.69573 0,-1.82332 4.04184,-2.02157 5.77992,-0.28349 1.9877498,1.98775 22.8776698,11.57722 25.2200798,11.57722 2.34241,0 23.23233,-9.58947 25.22008,-11.57722 1.73808,-1.73808 5.77992,-1.53983 5.77992,0.28349 0,1.4042 13.75285,21.3076 16.34251,23.65121 1.24963,1.1309 5.97704,1.98463 16.48432,2.97692 8.102725,0.76522 15.033775,1.69285 15.402335,2.06142 0.36857,0.36856 1.25527,7.25733 1.97046,15.30838 0.93682,10.546 1.74452,15.12908 2.88919,16.39392 2.28411,2.52392 22.38672,16.40188 23.75857,16.40188 1.78051,0 1.94227,4.06751 0.22985,5.77992 -1.99651,1.99651 -11.57722,22.88259 -11.57722,25.2385 0,2.26676 9.73516,23.35964 11.6781,25.30257 1.77898,1.779 1.33879,5.4238 -0.69022,5.7151 -1.78376,0.2561 -20.88451,13.5872 -23.31374,16.2715 -1.24938,1.3806 -2.00413,5.5642 -2.97453,16.4882 -0.71519,8.0511 -1.57282,14.9108 -1.90586,15.2438 -0.33303,0.3331 -7.24139,1.2402 -15.351905,2.0158 -10.92903,1.0452 -15.2273,1.8455 -16.60414,3.0915 -1.02175,0.9247 -5.46249,6.7824 -9.86831,13.0172 -4.40582,6.23478 -8.41212,11.33588 -8.9029,11.33588 -0.49079,0 -7.10752,-2.9462 -14.70385,-6.5471 l -13.81152,-6.54708 -14.02557,6.57058 c -7.71406,3.6139 -14.3538098,6.5601 -14.7549898,6.5471 -0.40118,-0.013 -4.33416995,-5.1246 -8.73999,-11.35938 z m 51.7177498,-36.1668 c 17.63623,-4.1583 34.42313,-17.5787 42.0627,-33.6273 5.21912,-10.96398 6.66757,-17.33306 6.56557,-28.86999 -0.0668,-7.55713 -0.64024,-11.1361 -2.80386,-17.5 -3.95702,-11.63884 -7.41658,-17.01672 -16.90369,-26.27687 -9.86662,-9.63056 -18.21177,-14.05647 -31.63058,-16.77547 -10.50918,-2.12943 -20.14809,-1.4674 -30.82658,2.11725 -10.6075398,3.56084 -17.4795498,7.99709 -26.00039,16.78467 -7.62016,7.85871 -13.62379,18.62608 -16.0823,28.84324 -1.62357,6.74732 -1.39317,21.99984 0.43915,29.071 5.73318,22.12507 24.0105302,40.29757 46.43164,46.16527 7.2026,1.8849 20.90518,1.9174 28.74834,0.068 z"
           id="path3818"
           inkscape:connector-curvature="0" />
      </g>
      <g
         style="stroke:#000000;stroke-width:11.95074081;stroke-miterlimit:4;stroke-opacity:1;stroke-dasharray:none"
         transform="matrix(0.19174159,0,0,0.19174159,27.244793,837.57676)"
         id="g3030">
        <path
           inkscape:connector-curvature="0"
           id="path3034"
           d="m -28.416235,1092.6449 c -12.52989,-12.4109 -22.76739,-23.1286 -22.75,-23.817 0.0302,-1.1951 34.5559,-66.8743 36.03988,-68.5597 0.3929,-0.44618 3.93463,3.9196 7.8705002,9.7018 3.93588,5.7822 7.55251005,10.758 8.03696005,11.0574 0.48443995,0.2995 7.24212995,-2.3788 15.01707975,-5.9517 13.22112,-6.0756 16.06721,-7.1485 16.06721,-6.0568 0,0.2416 -8.08687,23.681 -17.97083,52.0875 -9.8839498,28.4065 -17.8714498,52.1151 -17.7499998,52.6857 0.69328,3.2571 -4.0179,-0.7993 -24.5608002,-21.1472 z m 99.16321,22.1846 c -0.0651,-0.4125 -0.0783,-1.0481 -0.0292,-1.4124 0.0491,-0.3644 -7.99763,-23.9042 -17.88158,-52.3107 -9.88393,-28.4065 -17.9708,-51.8459 -17.9708,-52.0875 0,-1.0917 2.84609,-0.019 16.06722,6.0568 7.77494,3.5729 14.52573,6.2554 15.00174,5.9612 0.47601,-0.2942 4.10772,-5.2549 8.07047,-11.0239 3.96274,-5.769 7.51137,-10.13898 7.88584,-9.7112 1.46916,1.6783 35.976715,67.3508 36.006995,68.5261 0.0253,0.9822 -45.770265,46.7516 -46.778325,46.7516 -0.13967,0 -0.30723,-0.3375 -0.37236,-0.75 z M -4.1040148,998.24362 c -4.40581,-6.2348 -8.8494202,-12.0951 -9.8746902,-13.023 -1.38108,-1.2498 -5.57458,-2.0379 -16.18351,-3.0411 -10.60288,-1.0026 -14.61325,-1.7559 -15.45158,-2.9024 -0.62269,-0.8516 -1.66238,-7.726 -2.31041,-15.2764 -0.88045,-10.2584 -1.60544,-14.2002 -2.86848,-15.5958 -2.44112,-2.6974 -21.53945,-16.0322 -23.3298,-16.2893 -2.02901,-0.2913 -2.4692,-3.9361 -0.69022,-5.7151 2.03971,-2.03973 11.6781,-23.09044 11.6781,-25.50555 0,-2.40137 -9.57902,-23.03731 -11.6594,-25.1177 -1.64821,-1.64821 -1.42644,-5.69774 0.31203,-5.69774 1.37738,0 21.47884,-13.8828 23.77463,-16.41962 1.1606,-1.28245 1.93419,-5.6101 2.79438,-15.63244 0.86799,-10.11337 1.6189,-14.28848 2.77836,-15.44794 1.15946,-1.15946 5.33457,-1.91037 15.44794,-2.77837 10.12935,-0.86937 14.34381,-1.62817 15.66035,-2.81963 2.62558,-2.37612 16.3917102,-22.27633 16.3917102,-23.69573 0,-1.82332 4.04184,-2.02157 5.77992,-0.28349 1.9877498,1.98775 22.8776698,11.57722 25.2200798,11.57722 2.34241,0 23.23233,-9.58947 25.22008,-11.57722 1.73808,-1.73808 5.77992,-1.53983 5.77992,0.28349 0,1.4042 13.75285,21.3076 16.34251,23.65121 1.24963,1.1309 5.97704,1.98463 16.48432,2.97692 8.102725,0.76522 15.033775,1.69285 15.402335,2.06142 0.36857,0.36856 1.25527,7.25733 1.97046,15.30838 0.93682,10.546 1.74452,15.12908 2.88919,16.39392 2.28411,2.52392 22.38672,16.40188 23.75857,16.40188 1.78051,0 1.94227,4.06751 0.22985,5.77992 -1.99651,1.99651 -11.57722,22.88259 -11.57722,25.2385 0,2.26676 9.73516,23.35964 11.6781,25.30257 1.77898,1.779 1.33879,5.4238 -0.69022,5.7151 -1.78376,0.2561 -20.88451,13.5872 -23.31374,16.2715 -1.24938,1.3806 -2.00413,5.5642 -2.97453,16.4882 -0.71519,8.0511 -1.57282,14.9108 -1.90586,15.2438 -0.33303,0.3331 -7.24139,1.2402 -15.351905,2.0158 -10.92903,1.0452 -15.2273,1.8455 -16.60414,3.0915 -1.02175,0.9247 -5.46249,6.7824 -9.86831,13.0172 -4.40582,6.23478 -8.41212,11.33588 -8.9029,11.33588 -0.49079,0 -7.10752,-2.9462 -14.70385,-6.5471 l -13.81152,-6.54708 -14.02557,6.57058 c -7.71406,3.6139 -14.3538098,6.5601 -14.7549898,6.5471 -0.40118,-0.013 -4.33416995,-5.1246 -8.73999,-11.35938 z m 51.7177498,-36.1668 c 17.63623,-4.1583 34.42313,-17.5787 42.0627,-33.6273 5.21912,-10.96398 6.66757,-17.33306 6.56557,-28.86999 -0.0668,-7.55713 -0.64024,-11.1361 -2.80386,-17.5 -3.95702,-11.63884 -7.41658,-17.01672 -16.90369,-26.27687 -9.86662,-9.63056 -18.21177,-14.05647 -31.63058,-16.77547 -10.50918,-2.12943 -20.14809,-1.4674 -30.82658,2.11725 -10.6075398,3.56084 -17.4795498,7.99709 -26.00039,16.78467 -7.62016,7.85871 -13.62379,18.62608 -16.0823,28.84324 -1.62357,6.74732 -1.39317,21.99984 0.43915,29.071 5.73318,22.12507 24.0105302,40.29757 46.43164,46.16527 7.2026,1.8849 20.90518,1.9174 28.74834,0.068 z"
           style="fill:#483e2b;fill-opacity:1;stroke:#000000;stroke-width:11.95074081;stroke-miterlimit:4;stroke-opacity:1;stroke-dasharray:none" />
      </g>
    </g>
    <path
       style="fill:#000000"
       d=""
       id="path3024"
       inkscape:connector-curvature="0" />
  </g>
</svg>
