<?xml version="1.0" encoding="UTF-8" standalone="no"?>
<!-- Created with Inkscape (http://www.inkscape.org/) -->

<svg
   xmlns:dc="http://purl.org/dc/elements/1.1/"
   xmlns:cc="http://creativecommons.org/ns#"
   xmlns:rdf="http://www.w3.org/1999/02/22-rdf-syntax-ns#"
   xmlns:svg="http://www.w3.org/2000/svg"
   xmlns="http://www.w3.org/2000/svg"
   xmlns:sodipodi="http://sodipodi.sourceforge.net/DTD/sodipodi-0.dtd"
   xmlns:inkscape="http://www.inkscape.org/namespaces/inkscape"
   width="32"
   height="32"
   id="svg3825"
   version="1.1"
   inkscape:version="0.48.2 r9819"
   sodipodi:docname="pause.svg"
   inkscape:export-filename="F:\Projects\puyopuyo\puyopuyo-android\assets\images\music-off.png"
   inkscape:export-xdpi="90"
   inkscape:export-ydpi="90">
  <defs
     id="defs3827">
    <filter
       inkscape:collect="always"
       id="filter4377">
      <feGaussianBlur
         inkscape:collect="always"
         stdDeviation="0.54961902"
         id="feGaussianBlur4379" />
    </filter>
    <filter
       inkscape:collect="always"
       id="filter3809">
      <feGaussianBlur
         inkscape:collect="always"
         stdDeviation="0.50275165"
         id="feGaussianBlur3811" />
    </filter>
  </defs>
  <sodipodi:namedview
     id="base"
     pagecolor="#ffffff"
     bordercolor="#666666"
     borderopacity="1.0"
     inkscape:pageopacity="0.0"
     inkscape:pageshadow="2"
     inkscape:zoom="13.324543"
     inkscape:cx="16"
     inkscape:cy="12.162994"
     inkscape:document-units="px"
     inkscape:current-layer="layer1"
     showgrid="false"
     inkscape:window-width="1680"
     inkscape:window-height="988"
     inkscape:window-x="-8"
     inkscape:window-y="-8"
     inkscape:window-maximized="1">
    <inkscape:grid
       type="xygrid"
       id="grid3837"
       empspacing="5"
       visible="true"
       enabled="true"
       snapvisiblegridlinesonly="true" />
  </sodipodi:namedview>
  <metadata
     id="metadata3830">
    <rdf:RDF>
      <cc:Work
         rdf:about="">
        <dc:format>image/svg+xml</dc:format>
        <dc:type
           rdf:resource="http://purl.org/dc/dcmitype/StillImage" />
        <dc:title></dc:title>
      </cc:Work>
    </rdf:RDF>
  </metadata>
  <g
     inkscape:label="Calque 1"
     inkscape:groupmode="layer"
     id="layer1"
     transform="translate(0,-1020.3622)">
    <g
       id="g2998"
       transform="translate(-50.87126,-8.8946682)">
      <g
         style="filter:url(#filter4377)"
         transform="translate(0.62418726,0.70221066)"
         id="g4351">
        <rect
           ry="4.0000172"
           y="1024.3622"
           x="4"
           height="24.000061"
           width="9.0000048"
           id="rect4353"
           style="fill:#6a4b09;fill-opacity:1;fill-rule:evenodd;stroke:#000000;stroke-width:1;stroke-miterlimit:4;stroke-opacity:1;stroke-dasharray:none" />
        <rect
           ry="4"
           style="fill:#6a4b09;fill-opacity:1;fill-rule:evenodd;stroke:#000000;stroke-width:1;stroke-miterlimit:4;stroke-opacity:1;stroke-dasharray:none"
           id="rect4355"
           width="8"
           height="24.000017"
           x="20"
           y="1024.3622" />
      </g>
      <rect
         ry="4.0000172"
         y="1024.3622"
         x="4"
         height="24.000061"
         width="9.0000048"
         id="rect3833"
         style="fill:#483e2b;fill-opacity:1;fill-rule:evenodd;stroke:#000000;stroke-width:1;stroke-miterlimit:4;stroke-opacity:1;stroke-dasharray:none" />
      <rect
         ry="4"
         style="fill:#483e2b;fill-opacity:1;fill-rule:evenodd;stroke:#000000;stroke-width:1;stroke-miterlimit:4;stroke-opacity:1;stroke-dasharray:none"
         id="rect3835"
         width="8"
         height="24.000017"
         x="20"
         y="1024.3622" />
    </g>
    <g
       id="g3813"
       transform="matrix(0.80876849,0,0,0.80876849,3.7756974,198.1538)">
      <path
         style="fill:#000000;fill-opacity:1;fill-rule:evenodd;stroke:#000000;stroke-width:0.64115608;stroke-opacity:1;filter:url(#filter3809)"
         d="m 15.877235,1021.486 c -0.744523,0.023 -1.383962,0.2014 -1.875,0.5938 l 0.03125,0.9062 0,15.9063 c -0.784058,-0.373 -1.643575,-0.5938 -2.5625,-0.5938 -3.4171093,0 -6.1874999,2.8599 -6.1874999,6.4063 0,3.5463 2.7703906,6.4375 6.1874999,6.4375 3.417109,0 6.1875,-2.8912 6.1875,-6.4375 0,-0.1053 0.0048,-0.2085 0,-0.3125 l 0,-19.5 c 4.288516,0.3692 9.118309,6.685 10.65625,8.96 -1.241585,-3.6249 -9.211232,-12.4652 -12.4375,-12.3663 z"
         id="path3787"
         inkscape:connector-curvature="0"
         sodipodi:nodetypes="ccccsssscccc" />
      <path
         sodipodi:nodetypes="ccccsssscccc"
         inkscape:connector-curvature="0"
         id="path3775"
         d="m 15.565141,1020.6277 c -0.744523,0.023 -1.383962,0.2014 -1.875,0.5938 l 0.03125,0.9062 0,15.9063 c -0.784058,-0.373 -1.643575,-0.5938 -2.5625,-0.5938 -3.4171089,0 -6.1874995,2.8599 -6.1874995,6.4063 0,3.5463 2.7703906,6.4375 6.1874995,6.4375 3.417109,0 6.1875,-2.8912 6.1875,-6.4375 0,-0.1053 0.0048,-0.2085 0,-0.3125 l 0,-19.5 c 4.288516,0.3692 9.118309,6.685 10.65625,8.96 -1.241585,-3.6249 -9.211232,-12.4652 -12.4375,-12.3663 z"
         style="fill:#483e2b;fill-opacity:1;fill-rule:evenodd;stroke:#000000;stroke-width:0.64115608;stroke-opacity:1" />
    </g>
    <path
       style="fill:#483e2b;fill-opacity:1;fill-rule:evenodd;stroke:#000000;stroke-width:0.57624793;stroke-miterlimit:4;stroke-opacity:1;stroke-dasharray:none"
       d="m 27.52659,1025.8285 c -5.784509,-6.4269 -15.64949,-6.8924 -21.9998083,-1.0381 -6.35024808,5.8542 -6.7881798,15.8179 -1.0036703,22.2448 5.7845096,6.4268 15.6074136,6.8903 21.9576626,1.0361 6.350319,-5.8543 6.830326,-15.8159 1.045816,-22.2428 z m -3.087951,0.5596 -19.0776698,17.5875 c -3.751596,-5.3877 -3.0906793,-12.8341 1.813202,-17.3548 4.9030818,-4.5202 12.3101608,-4.5096 17.2644678,-0.2327 z m 2.230003,2.4776 c 3.765599,5.3921 3.095283,12.8707 -1.815168,17.3975 -4.911298,4.5278 -12.311058,4.4912 -17.2625019,0.1901 l 19.0776699,-17.5876 z"
       id="path3817"
       inkscape:connector-curvature="0" />
  </g>
</svg>
