<?xml version="1.0" encoding="UTF-8" standalone="no"?>
<!-- Created with Inkscape (http://www.inkscape.org/) -->

<svg
   xmlns:dc="http://purl.org/dc/elements/1.1/"
   xmlns:cc="http://creativecommons.org/ns#"
   xmlns:rdf="http://www.w3.org/1999/02/22-rdf-syntax-ns#"
   xmlns:svg="http://www.w3.org/2000/svg"
   xmlns="http://www.w3.org/2000/svg"
   xmlns:sodipodi="http://sodipodi.sourceforge.net/DTD/sodipodi-0.dtd"
   xmlns:inkscape="http://www.inkscape.org/namespaces/inkscape"
   width="64"
   height="64"
   id="svg3825"
   version="1.1"
   inkscape:version="0.48.2 r9819"
   sodipodi:docname="pause.svg"
   inkscape:export-filename="F:\Projects\puyopuyo\puyopuyo-android\assets\images\bouttons\sound-off.png"
   inkscape:export-xdpi="90"
   inkscape:export-ydpi="90">
  <defs
     id="defs3827">
    <filter
       inkscape:collect="always"
       id="filter4377"
       color-interpolation-filters="sRGB">
      <feGaussianBlur
         inkscape:collect="always"
         stdDeviation="0.54961902"
         id="feGaussianBlur4379" />
    </filter>
    <filter
       inkscape:collect="always"
       id="filter3809"
       color-interpolation-filters="sRGB">
      <feGaussianBlur
         inkscape:collect="always"
         stdDeviation="0.50275165"
         id="feGaussianBlur3811" />
    </filter>
    <filter
       inkscape:collect="always"
       id="filter3907">
      <feGaussianBlur
         inkscape:collect="always"
         stdDeviation="0.82400329"
         id="feGaussianBlur3909" />
    </filter>
  </defs>
  <sodipodi:namedview
     id="base"
     pagecolor="#ffffff"
     bordercolor="#666666"
     borderopacity="1.0"
     inkscape:pageopacity="0.0"
     inkscape:pageshadow="2"
     inkscape:zoom="6.6622716"
     inkscape:cx="23.921933"
     inkscape:cy="33.813691"
     inkscape:document-units="px"
     inkscape:current-layer="layer1"
     showgrid="false"
     inkscape:window-width="1680"
     inkscape:window-height="988"
     inkscape:window-x="-8"
     inkscape:window-y="-8"
     inkscape:window-maximized="1">
    <inkscape:grid
       type="xygrid"
       id="grid3837"
       empspacing="5"
       visible="true"
       enabled="true"
       snapvisiblegridlinesonly="true" />
  </sodipodi:namedview>
  <metadata
     id="metadata3830">
    <rdf:RDF>
      <cc:Work
         rdf:about="">
        <dc:format>image/svg+xml</dc:format>
        <dc:type
           rdf:resource="http://purl.org/dc/dcmitype/StillImage" />
        <dc:title></dc:title>
      </cc:Work>
    </rdf:RDF>
  </metadata>
  <g
     inkscape:label="Calque 1"
     inkscape:groupmode="layer"
     id="layer1"
     transform="translate(0,-988.3622)">
    <g
       id="g2998"
       transform="matrix(2.3156543,0,0,2.3156238,-174.61528,-1383.2116)"
       inkscape:export-filename="F:\Projects\puyopuyo\puyopuyo-android\assets\images\bouttons\pause_button.png"
       inkscape:export-xdpi="90"
       inkscape:export-ydpi="90">
      <g
         style="filter:url(#filter4377)"
         transform="translate(0.62418726,0.70221066)"
         id="g4351">
        <rect
           ry="4.0000172"
           y="1024.3622"
           x="4"
           height="24.000061"
           width="9.0000048"
           id="rect4353"
           style="fill:#6a4b09;fill-opacity:1;fill-rule:evenodd;stroke:#000000;stroke-width:1;stroke-miterlimit:4;stroke-opacity:1;stroke-dasharray:none" />
        <rect
           ry="4"
           style="fill:#6a4b09;fill-opacity:1;fill-rule:evenodd;stroke:#000000;stroke-width:1;stroke-miterlimit:4;stroke-opacity:1;stroke-dasharray:none"
           id="rect4355"
           width="8"
           height="24.000017"
           x="20"
           y="1024.3622" />
      </g>
      <rect
         ry="4.0000172"
         y="1024.3622"
         x="4"
         height="24.000061"
         width="9.0000048"
         id="rect3833"
         style="fill:#483e2b;fill-opacity:1;fill-rule:evenodd;stroke:#000000;stroke-width:1;stroke-miterlimit:4;stroke-opacity:1;stroke-dasharray:none" />
      <rect
         ry="4"
         style="fill:#483e2b;fill-opacity:1;fill-rule:evenodd;stroke:#000000;stroke-width:1;stroke-miterlimit:4;stroke-opacity:1;stroke-dasharray:none"
         id="rect3835"
         width="8"
         height="24.000017"
         x="20"
         y="1024.3622" />
    </g>
    <g
       id="g3813"
       transform="matrix(1.6335325,0,0,1.6140681,-169.75609,-745.57247)">
      <path
         style="fill:#000000;fill-opacity:1;fill-rule:evenodd;stroke:#000000;stroke-width:0.64115608;stroke-opacity:1;filter:url(#filter3809)"
         d="m 15.877235,1021.486 c -0.744523,0.023 -1.383962,0.2014 -1.875,0.5938 l 0.03125,0.9062 0,15.9063 c -0.784058,-0.373 -1.643575,-0.5938 -2.5625,-0.5938 -3.4171093,0 -6.1874999,2.8599 -6.1874999,6.4063 0,3.5463 2.7703906,6.4375 6.1874999,6.4375 3.417109,0 6.1875,-2.8912 6.1875,-6.4375 0,-0.1053 0.0048,-0.2085 0,-0.3125 l 0,-19.5 c 4.288516,0.3692 9.118309,6.685 10.65625,8.96 -1.241585,-3.6249 -9.211232,-12.4652 -12.4375,-12.3663 z"
         id="path3787"
         inkscape:connector-curvature="0"
         sodipodi:nodetypes="ccccsssscccc" />
      <path
         sodipodi:nodetypes="ccccsssscccc"
         inkscape:connector-curvature="0"
         id="path3775"
         d="m 15.565141,1020.6277 c -0.744523,0.023 -1.383962,0.2014 -1.875,0.5938 l 0.03125,0.9062 0,15.9063 c -0.784058,-0.373 -1.643575,-0.5938 -2.5625,-0.5938 -3.4171089,0 -6.1874995,2.8599 -6.1874995,6.4063 0,3.5463 2.7703906,6.4375 6.1874995,6.4375 3.417109,0 6.1875,-2.8912 6.1875,-6.4375 0,-0.1053 0.0048,-0.2085 0,-0.3125 l 0,-19.5 c 4.288516,0.3692 9.118309,6.685 10.65625,8.96 -1.241585,-3.6249 -9.211232,-12.4652 -12.4375,-12.3663 z"
         style="fill:#483e2b;fill-opacity:1;fill-rule:evenodd;stroke:#000000;stroke-width:0.64115608;stroke-opacity:1" />
    </g>
    <path
       style="fill:#483e2b;fill-opacity:1;fill-rule:evenodd;stroke:#000000;stroke-width:1.15693772;stroke-miterlimit:4;stroke-opacity:1;stroke-dasharray:none"
       d="m -121.36002,906.65141 c -11.68342,-12.8263 -31.60849,-13.755 -44.43472,-2.0716 -12.82609,11.68331 -13.71062,31.56821 -2.02719,44.39441 11.68342,12.8259 31.52351,13.7508 44.34959,2.0675 12.82624,-11.6835 13.79575,-31.5641 2.11232,-44.39031 z m -6.23697,1.11691 -38.53266,35.0997 c -7.57739,-10.7524 -6.24248,-25.6134 3.66227,-34.6353 9.90314,-9.02071 24.86379,-8.99981 34.87039,-0.4644 z m 4.50411,4.9447 c 7.60567,10.761 6.25178,25.6861 -3.66624,34.7203 -9.91973,9.0363 -24.8656,8.9633 -34.86642,0.3794 l 38.53266,-35.0997 z"
       id="path3817"
       inkscape:connector-curvature="0" />
    <path
       style="fill:#483e2b;fill-opacity:1;fill-rule:evenodd;stroke:#000000;stroke-opacity:1"
       d="m 49.917085,1027.2773 c -0.692328,0 0.188037,-3.0286 0.188037,-6.6335 0,-3.605 -0.880365,-6.4213 -0.188037,-6.4213 0.692328,0 1.692321,2.9224 1.692321,6.5274 0,3.605 -0.999993,6.5274 -1.692321,6.5274 z"
       id="path3778-8"
       inkscape:connector-curvature="0"
       sodipodi:nodetypes="sssss" />
    <path
       sodipodi:nodetypes="sssss"
       inkscape:connector-curvature="0"
       id="path3829"
       d="m 53.046013,1030.249 c -0.781563,0 0.212273,-4.4073 0.212273,-9.6536 0,-5.2462 -0.993836,-9.3447 -0.212273,-9.3447 0.781564,0 1.910448,4.2529 1.910448,9.4992 0,5.2462 -1.128884,9.4991 -1.910448,9.4991 z"
       style="fill:#483e2b;fill-opacity:1;fill-rule:evenodd;stroke:#000000;stroke-opacity:1" />
    <path
       style="fill:#483e2b;fill-opacity:1;fill-rule:evenodd;stroke:#000000;stroke-opacity:1"
       d="m 56.438594,1033.7515 c -0.824983,0 0.224066,-6.0324 0.224066,-13.213 0,-7.1806 -1.049049,-12.7903 -0.224066,-12.7903 0.824984,0 2.016584,5.821 2.016584,13.0017 0,7.1806 -1.1916,13.0016 -2.016584,13.0016 z"
       id="path3831"
       inkscape:connector-curvature="0"
       sodipodi:nodetypes="sssss" />
    <path
       sodipodi:nodetypes="sssss"
       inkscape:connector-curvature="0"
       id="path3833"
       d="m 60.791464,1038.1795 c -0.824983,0 0.224066,-8.0868 0.224066,-17.7129 0,-9.6261 -1.049049,-17.1463 -0.224066,-17.1463 0.824984,0 2.016584,7.8034 2.016584,17.4296 0,9.6261 -1.1916,17.4296 -2.016584,17.4296 z"
       style="fill:#483e2b;fill-opacity:1;fill-rule:evenodd;stroke:#000000;stroke-opacity:1" />
    <path
       id="path3865"
       d="m 45.694146,1000.0118 c -7.075967,0.1427 -16.816204,8.8694 -25.28125,13.75 l -10.5000002,0 c -3.858702,0 -6.96875,3.0788 -6.96875,6.9375 0,3.8587 3.110048,6.9688 6.96875,6.9688 l 10.5625002,0 c 8.474502,4.3823 18.724389,12.6568 25.21875,12.7187 2.404452,0 3.090454,-40.3482 0,-40.375 z"
       style="fill:#483e2b;fill-opacity:1;fill-rule:evenodd;stroke:#000000;stroke-width:2.24499989;stroke-miterlimit:4;stroke-opacity:1;stroke-dasharray:none;filter:url(#filter3907)"
       inkscape:connector-curvature="0" />
    <path
       style="fill:#483e2b;fill-opacity:1;fill-rule:evenodd;stroke:#000000;stroke-width:2.24452376;stroke-miterlimit:4;stroke-opacity:1;stroke-dasharray:none"
       d="m 45.09375,998.6122 c -7.075967,0.1427 -16.816204,8.8694 -25.28125,13.75 l -10.5,0 c -3.858702,0 -6.96875,3.0788 -6.96875,6.9375 0,3.8587 3.110048,6.9688 6.96875,6.9688 l 10.5625,0 c 8.474502,4.3823 18.724389,12.6568 25.21875,12.7187 2.404452,0 3.090454,-40.3482 0,-40.375 z"
       id="rect3855"
       inkscape:connector-curvature="0" />
  </g>
</svg>
