<?xml version="1.0" encoding="UTF-8" standalone="no"?>
<!-- Created with Inkscape (http://www.inkscape.org/) -->

<svg
   xmlns:dc="http://purl.org/dc/elements/1.1/"
   xmlns:cc="http://creativecommons.org/ns#"
   xmlns:rdf="http://www.w3.org/1999/02/22-rdf-syntax-ns#"
   xmlns:svg="http://www.w3.org/2000/svg"
   xmlns="http://www.w3.org/2000/svg"
   xmlns:sodipodi="http://sodipodi.sourceforge.net/DTD/sodipodi-0.dtd"
   xmlns:inkscape="http://www.inkscape.org/namespaces/inkscape"
   width="512"
   height="256"
   id="svg2"
   version="1.1"
   inkscape:version="0.48.2 r9819"
   sodipodi:docname="perdu-fr.svg">
  <defs
     id="defs4" />
  <sodipodi:namedview
     id="base"
     pagecolor="#ffffff"
     bordercolor="#666666"
     borderopacity="1.0"
     inkscape:pageopacity="0.0"
     inkscape:pageshadow="2"
     inkscape:zoom="0.75683594"
     inkscape:cx="54.816395"
     inkscape:cy="24.104436"
     inkscape:document-units="px"
     inkscape:current-layer="g3808"
     showgrid="false"
     inkscape:snap-bbox="true"
     inkscape:snap-global="false"
     inkscape:window-width="1680"
     inkscape:window-height="988"
     inkscape:window-x="-8"
     inkscape:window-y="-8"
     inkscape:window-maximized="1" />
  <metadata
     id="metadata7">
    <rdf:RDF>
      <cc:Work
         rdf:about="">
        <dc:format>image/svg+xml</dc:format>
        <dc:type
           rdf:resource="http://purl.org/dc/dcmitype/StillImage" />
        <dc:title />
      </cc:Work>
    </rdf:RDF>
  </metadata>
  <g
     inkscape:label="Calque 1"
     inkscape:groupmode="layer"
     id="layer1"
     transform="translate(0,-796.36218)" />
  <g
     transform="matrix(3.7744445,0,0,5.5775647,-61.492633,-56.878032)"
     style="font-size:40px;font-style:normal;font-weight:normal;line-height:125%;letter-spacing:0px;word-spacing:0px;fill:#000000;fill-opacity:1;stroke:none;font-family:Sans"
     id="flowRoot2985">
    <g
       id="g3808"
       style="stroke:#000000;stroke-opacity:1;stroke-width:1.19609389;stroke-miterlimit:4;stroke-dasharray:none;fill:#000000;fill-opacity:1">
      <flowRoot
         xml:space="preserve"
         id="flowRoot3000"
         style="fill:black;stroke:none;stroke-opacity:1;stroke-width:1px;stroke-linejoin:miter;stroke-linecap:butt;fill-opacity:1;font-family:Sans;font-style:normal;font-weight:normal;font-size:64px;line-height:452.99986458000001000%;letter-spacing:0px;word-spacing:0px"><flowRegion
           id="flowRegion3002"><rect
             id="rect3004"
             width="479.62839"
             height="223.29807"
             x="18.498064"
             y="16.846453"
             style="line-height:452.99986458000001000%;font-size:64px" /></flowRegion><flowPara
           id="flowPara3006"></flowPara></flowRoot>      <text
         xml:space="preserve"
         style="font-size:143.9999987px;font-style:normal;font-weight:normal;line-height:125%;letter-spacing:0px;word-spacing:0px;fill:#000000;fill-opacity:1;stroke:none;font-family:Sans"
         x="192.90839"
         y="100.08774"
         id="text3008"
         sodipodi:linespacing="125%"
         transform="matrix(0.26493965,0,0,0.17928972,16.291837,10.197646)"><tspan
           sodipodi:role="line"
           id="tspan3010"></tspan></text>
      <g
         transform="matrix(1.2156143,0,0,0.82262935,-1.1658386,2.4746723)"
         style="font-size:25.20933150999999800px;font-style:normal;font-weight:normal;line-height:125%;letter-spacing:0px;word-spacing:0px;fill:#ffffff;stroke:#000000;font-family:Sans;fill-opacity:1;stroke-width:0.65384142;stroke-miterlimit:4;stroke-dasharray:none;stroke-opacity:1"
         id="text3012">
        <path
           d="m 26.842769,32.951144 c -0.525208,1.4e-5 -0.919103,-0.307717 -1.181688,-0.923193 -0.229784,-0.52518 -0.443144,-0.84522 -0.64008,-0.960121 -0.172341,-0.09025 -0.599061,-0.135386 -1.280162,-0.135402 -1.189902,1.6e-5 -2.511093,0.910899 -3.963576,2.732652 -1.969484,2.445447 -2.954222,4.763686 -2.954219,6.954723 -3e-6,1.0586 0.340552,1.969483 1.021668,2.732652 0.697518,0.787794 1.538649,1.18169 2.523395,1.181687 0.845226,3e-6 1.694563,-0.217461 2.548013,-0.65239 0.475947,-0.246181 1.206295,-0.730344 2.191045,-1.45249 0.467739,-0.344655 0.820604,-0.516984 1.058595,-0.516989 0.352852,5e-6 0.648274,0.133355 0.886266,0.400051 0.237965,0.266704 0.356954,0.564177 0.356968,0.89242 -1.4e-5,0.36928 -0.155931,0.693424 -0.467751,0.97243 -2.166439,1.920243 -4.357482,2.880363 -6.573136,2.880363 -1.698681,0 -3.134759,-0.652389 -4.308236,-1.957169 -1.132452,-1.263747 -1.698677,-2.757267 -1.698675,-4.480565 -2e-6,-2.78188 1.165272,-5.633519 3.495825,-8.554925 1.944854,-2.437213 3.906125,-3.655827 5.883818,-3.655845 0.402091,1.8e-5 0.763162,0.01848 1.083214,0.05539 0.320028,0.03695 0.603141,0.09644 0.849338,0.178484 0.287203,-0.418495 0.660583,-0.627752 1.120141,-0.627771 0.566211,1.9e-5 0.923179,0.373399 1.070904,1.120141 0.131284,0.664716 0.196933,1.481229 0.196948,2.44954 -1.5e-5,0.336467 -0.09028,0.631889 -0.270803,0.886265 -0.221581,0.320055 -0.537518,0.480075 -0.947812,0.480061 z"
           style="font-variant:normal;font-stretch:normal;font-family:Comic Sans MS;-inkscape-font-specification:Comic Sans MS;fill:#ffffff;fill-opacity:1;stroke-width:0.65384142;stroke-miterlimit:4;stroke-dasharray:none;stroke:#000000;stroke-opacity:1"
           id="path3017"
           inkscape:connector-curvature="0" />
        <path
           d="m 34.794541,47.488361 c -1.378641,-10e-7 -2.56443,-0.508782 -3.557372,-1.526346 -1.107833,-1.132449 -1.69047,-2.654691 -1.747912,-4.56673 -0.04924,-1.854585 0.418512,-3.48761 1.403253,-4.899079 1.14886,-1.665839 2.74906,-2.498764 4.800606,-2.498776 1.641223,1.2e-5 2.884456,0.750875 3.7297,2.252591 0.672894,1.214522 0.997037,2.675217 0.972431,4.382091 -0.02463,1.821772 -0.500588,3.376839 -1.427873,4.665203 -1.050398,1.460697 -2.441341,2.191045 -4.172833,2.191046 z m 0.738554,-10.992155 c -1.206311,-0.0082 -2.145916,0.566235 -2.818816,1.723294 -0.533405,0.927304 -0.800105,1.985898 -0.800101,3.175785 -4e-6,1.189898 0.324139,2.117193 0.97243,2.781889 0.541602,0.549815 1.177579,0.824721 1.907933,0.82472 0.853433,10e-7 1.587884,-0.311833 2.203354,-0.935503 0.697515,-0.689314 1.066792,-1.620713 1.107832,-2.794198 0.114877,-3.175777 -0.742666,-4.767771 -2.572632,-4.775987 z"
           style="font-variant:normal;font-stretch:normal;font-family:Comic Sans MS;-inkscape-font-specification:Comic Sans MS;fill:#ffffff;fill-opacity:1;stroke-width:0.65384142;stroke-miterlimit:4;stroke-dasharray:none;stroke:#000000;stroke-opacity:1"
           id="path3019"
           inkscape:connector-curvature="0" />
        <path
           d="m 52.864512,47.636072 c -0.705741,-10e-7 -1.103739,-0.38569 -1.193997,-1.157069 l -0.344659,-2.695725 c -0.114896,-0.960117 -0.172339,-1.858691 -0.172329,-2.695724 -10e-6,-0.229767 0.01435,-0.619559 0.04308,-1.169378 0.02871,-0.549806 0.04307,-0.939598 0.04308,-1.169378 -9e-6,-1.772522 -0.328255,-2.658786 -0.984739,-2.658797 -0.919098,1.1e-5 -1.797157,0.54572 -2.634178,1.637129 -0.754972,0.992954 -1.345816,2.248496 -1.772532,3.766629 -0.01642,0.320045 -0.05334,0.722147 -0.110783,1.206306 -0.04924,0.410312 -0.07386,0.80831 -0.07386,1.193997 -4e-6,0.246187 0.02461,0.615464 0.07386,1.107832 0.04923,0.492371 0.07385,0.861648 0.07386,1.107832 -4e-6,0.369277 -0.112839,0.668802 -0.338504,0.898574 -0.225673,0.229772 -0.51494,0.344659 -0.867802,0.344659 -0.361074,0 -0.652392,-0.114887 -0.873956,-0.344659 -0.221569,-0.229772 -0.332352,-0.529297 -0.33235,-0.898574 -2e-6,-0.246184 -0.02667,-0.615461 -0.08001,-1.107832 -0.05334,-0.492368 -0.08001,-0.861645 -0.08001,-1.107832 -2e-6,-0.845231 0.05949,-2.01666 0.178484,-3.514289 0.118987,-1.497617 0.178482,-2.669046 0.178484,-3.51429 -2e-6,-0.262587 -0.01436,-0.652379 -0.04308,-1.169378 -0.02872,-0.516976 -0.04308,-0.906769 -0.04308,-1.169378 -2e-6,-0.352852 0.116936,-0.642119 0.350814,-0.867802 0.233873,-0.225656 0.52314,-0.33849 0.867801,-0.338504 0.754963,1.4e-5 1.169374,0.533414 1.243234,1.600202 l 0.03693,1.440181 c 1.378629,-1.838168 2.794191,-2.757257 4.246689,-2.75727 1.312976,1.3e-5 2.227962,0.578547 2.744961,1.735603 0.352854,0.77139 0.545698,1.912046 0.578535,3.42197 l 0,1.243234 -0.01231,1.144759 c -1.1e-5,0.681117 0.0882,1.561227 0.264649,2.640333 0.17642,1.079112 0.264637,1.955119 0.264649,2.628024 -1.2e-5,0.361071 -0.11695,0.654441 -0.350814,0.880111 -0.233887,0.225668 -0.527257,0.338503 -0.88011,0.338504 z"
           style="font-variant:normal;font-stretch:normal;font-family:Comic Sans MS;-inkscape-font-specification:Comic Sans MS;fill:#ffffff;fill-opacity:1;stroke-width:0.65384142;stroke-miterlimit:4;stroke-dasharray:none;stroke:#000000;stroke-opacity:1"
           id="path3021"
           inkscape:connector-curvature="0" />
        <path
           d="m 64.853713,36.27464 c -0.17234,1e-5 -0.375442,-0.0082 -0.609308,-0.02462 -0.233885,-0.0164 -0.436987,-0.02461 -0.609307,-0.02462 -0.188751,10e-6 -0.746769,0.06156 -1.674058,0.184638 l 0.233876,7.274764 0.01231,0.541606 0.01231,0.627772 c 0.03282,1.797149 -0.398005,2.695723 -1.29247,2.695724 -0.328252,-10e-7 -0.613416,-0.106681 -0.855493,-0.32004 -0.242086,-0.213361 -0.363127,-0.480061 -0.363122,-0.800101 -5e-6,-0.311834 0.0123,-0.779584 0.03693,-1.403254 0.02461,-0.623666 0.03692,-1.091417 0.03693,-1.403254 L 59.536119,36.43466 c -0.599054,-0.02461 -1.509937,-0.09436 -2.732652,-0.209257 -0.730349,-0.09846 -1.095523,-0.504668 -1.095523,-1.218615 0,-0.361059 0.110783,-0.660584 0.33235,-0.898575 0.221565,-0.237966 0.504677,-0.356955 0.849338,-0.356968 l 2.584941,0.209257 c -4e-6,-0.418501 -0.01847,-0.978571 -0.05539,-1.680212 -0.03693,-0.701612 -0.0554,-1.208342 -0.05539,-1.520192 -5e-6,-0.344642 0.118985,-0.629806 0.356968,-0.855492 0.237974,-0.225652 0.529292,-0.338487 0.873956,-0.338504 0.738548,1.7e-5 1.169372,0.603169 1.292471,1.809459 0.02461,0.303643 0.03692,0.668817 0.03693,1.095522 l -0.02462,0.713936 -0.01231,0.763174 c 1.017556,-0.131286 1.600193,-0.196935 1.747913,-0.196948 0.853431,1.3e-5 1.411449,0.04104 1.674057,0.123092 0.500565,0.164136 0.750852,0.549825 0.750864,1.157069 -1.2e-5,0.361083 -0.112846,0.658556 -0.338505,0.89242 -0.22568,0.233886 -0.514947,0.350824 -0.867801,0.350814 z"
           style="font-variant:normal;font-stretch:normal;font-family:Comic Sans MS;-inkscape-font-specification:Comic Sans MS;fill:#ffffff;fill-opacity:1;stroke-width:0.65384142;stroke-miterlimit:4;stroke-dasharray:none;stroke:#000000;stroke-opacity:1"
           id="path3023"
           inkscape:connector-curvature="0" />
        <path
           d="m 70.836006,31.178613 c -0.3939,1.5e-5 -0.734455,-0.139489 -1.021667,-0.418515 -0.287219,-0.278993 -0.430827,-0.615445 -0.430824,-1.009358 -3e-6,-0.393878 0.143605,-0.73033 0.430824,-1.009358 0.287212,-0.278991 0.627767,-0.418495 1.021667,-0.418514 0.393891,1.9e-5 0.732395,0.139523 1.015512,0.418514 0.283108,0.279028 0.424664,0.61548 0.424669,1.009358 -5e-6,0.393913 -0.141561,0.730365 -0.424669,1.009358 -0.283117,0.279026 -0.621621,0.41853 -1.015512,0.418515 z m 0.553916,9.995106 c -5e-6,0.492375 0.01436,1.228877 0.04308,2.209509 0.02872,0.980639 0.04308,1.717141 0.04308,2.209509 -5e-6,0.361072 -0.110788,0.656494 -0.33235,0.886266 -0.221571,0.229772 -0.512889,0.344659 -0.873956,0.344659 -0.352869,0 -0.642135,-0.114887 -0.867802,-0.344659 -0.225672,-0.229772 -0.338507,-0.525194 -0.338504,-0.886266 -3e-6,-0.492368 -0.01436,-1.22887 -0.04308,-2.209509 -0.02872,-0.980632 -0.04308,-1.717134 -0.04308,-2.209509 -2e-6,-0.771373 0.04103,-1.733545 0.123092,-2.886518 0.08206,-1.152956 0.12309,-2.115128 0.123093,-2.886518 -3e-6,-0.369265 0.112832,-0.66879 0.338504,-0.898574 0.225667,-0.229761 0.514933,-0.344647 0.867802,-0.344659 0.352861,1.2e-5 0.642128,0.114898 0.867801,0.344659 0.225665,0.229784 0.3385,0.529309 0.338505,0.898574 -5e-6,0.77139 -0.04104,1.733562 -0.123093,2.886518 -0.08207,1.152973 -0.123097,2.115145 -0.123092,2.886518 z"
           style="font-variant:normal;font-stretch:normal;font-family:Comic Sans MS;-inkscape-font-specification:Comic Sans MS;fill:#ffffff;fill-opacity:1;stroke-width:0.65384142;stroke-miterlimit:4;stroke-dasharray:none;stroke:#000000;stroke-opacity:1"
           id="path3025"
           inkscape:connector-curvature="0" />
        <path
           d="m 85.016256,47.636072 c -0.70574,-10e-7 -1.103739,-0.38569 -1.193996,-1.157069 l -0.344659,-2.695725 c -0.114896,-0.960117 -0.172339,-1.858691 -0.17233,-2.695724 -9e-6,-0.229767 0.01435,-0.619559 0.04308,-1.169378 0.02871,-0.549806 0.04307,-0.939598 0.04308,-1.169378 -9e-6,-1.772522 -0.328256,-2.658786 -0.984739,-2.658797 -0.919098,1.1e-5 -1.797157,0.54572 -2.634179,1.637129 -0.754972,0.992954 -1.345815,2.248496 -1.772531,3.766629 -0.01642,0.320045 -0.05334,0.722147 -0.110783,1.206306 -0.04924,0.410312 -0.07386,0.80831 -0.07386,1.193997 -4e-6,0.246187 0.02461,0.615464 0.07386,1.107832 0.04923,0.492371 0.07385,0.861648 0.07386,1.107832 -4e-6,0.369277 -0.112839,0.668802 -0.338505,0.898574 -0.225673,0.229772 -0.51494,0.344659 -0.867801,0.344659 -0.361074,0 -0.652392,-0.114887 -0.873957,-0.344659 -0.221568,-0.229772 -0.332351,-0.529297 -0.332349,-0.898574 -2e-6,-0.246184 -0.02667,-0.615461 -0.08001,-1.107832 -0.05334,-0.492368 -0.08001,-0.861645 -0.08001,-1.107832 -2e-6,-0.845231 0.05949,-2.01666 0.178484,-3.514289 0.118987,-1.497617 0.178482,-2.669046 0.178484,-3.51429 -2e-6,-0.262587 -0.01436,-0.652379 -0.04308,-1.169378 -0.02872,-0.516976 -0.04308,-0.906769 -0.04308,-1.169378 -2e-6,-0.352852 0.116936,-0.642119 0.350813,-0.867802 0.233874,-0.225656 0.523141,-0.33849 0.867802,-0.338504 0.754963,1.4e-5 1.169374,0.533414 1.243234,1.600202 l 0.03693,1.440181 c 1.378629,-1.838168 2.794191,-2.757257 4.246689,-2.75727 1.312976,1.3e-5 2.227962,0.578547 2.744961,1.735603 0.352853,0.77139 0.545698,1.912046 0.578535,3.42197 l 0,1.243234 -0.01231,1.144759 c -1.2e-5,0.681117 0.08821,1.561227 0.264649,2.640333 0.17642,1.079112 0.264636,1.955119 0.264649,2.628024 -1.3e-5,0.361071 -0.11695,0.654441 -0.350814,0.880111 -0.233887,0.225668 -0.527257,0.338503 -0.880111,0.338504 z"
           style="font-variant:normal;font-stretch:normal;font-family:Comic Sans MS;-inkscape-font-specification:Comic Sans MS;fill:#ffffff;fill-opacity:1;stroke-width:0.65384142;stroke-miterlimit:4;stroke-dasharray:none;stroke:#000000;stroke-opacity:1"
           id="path3027"
           inkscape:connector-curvature="0" />
        <path
           d="m 98.81492,39.573517 c -1.2e-5,0.59085 0.0041,1.477115 0.01231,2.658797 0.0082,1.18169 0.0123,2.067955 0.01231,2.658796 -1.2e-5,0.180538 0.01435,0.455444 0.04308,0.82472 0.02871,0.369278 0.04307,0.644184 0.04308,0.824719 -1.1e-5,0.352865 -0.119001,0.642132 -0.356968,0.867802 -0.23799,0.225668 -0.529308,0.338503 -0.873956,0.338504 -0.631885,-10e-7 -1.033986,-0.389793 -1.206306,-1.169378 -1.025779,0.5334 -2.207465,0.8001 -3.545062,0.800101 -1.075012,-10e-7 -1.96538,-0.237979 -2.671106,-0.713936 -0.779588,-0.525194 -1.243236,-1.29247 -1.390945,-2.301829 -0.320041,-2.174629 -0.480062,-4.111281 -0.48006,-5.809963 -2e-6,-1.124235 0.123091,-2.404395 0.369277,-3.840484 0.114885,-0.713924 0.504677,-1.070891 1.169378,-1.070905 0.352862,1.4e-5 0.648284,0.112848 0.886266,0.338505 0.237975,0.225682 0.356964,0.514949 0.356968,0.867801 -4e-6,0.377495 -0.0595,0.980648 -0.178484,1.809459 -0.118993,0.828832 -0.178488,1.460706 -0.178484,1.895624 -4e-6,1.370436 0.04513,2.543916 0.135402,3.520444 0.09026,0.976537 0.225665,1.760224 0.406205,2.351065 0.270798,0.147713 0.537498,0.260548 0.8001,0.338504 0.262592,0.07796 0.521086,0.11694 0.775483,0.116938 1.099619,2e-6 2.260789,-0.17643 3.483516,-0.529297 l -0.01231,-2.498777 -0.02462,-2.387993 c -9e-6,-1.772522 0.07795,-3.311176 0.233876,-4.615967 0.09026,-0.754954 0.488256,-1.132437 1.193996,-1.13245 0.352854,1.3e-5 0.648276,0.114899 0.886266,0.344659 0.237967,0.229785 0.34875,0.517 0.33235,0.861647 z"
           style="font-variant:normal;font-stretch:normal;font-family:Comic Sans MS;-inkscape-font-specification:Comic Sans MS;fill:#ffffff;fill-opacity:1;stroke-width:0.65384142;stroke-miterlimit:4;stroke-dasharray:none;stroke:#000000;stroke-opacity:1"
           id="path3029"
           inkscape:connector-curvature="0" />
        <path
           d="m 107.61602,47.328341 c -1.85459,-1e-6 -3.35632,-0.463649 -4.50518,-1.390945 -1.25554,-1.025768 -1.88331,-2.461845 -1.88331,-4.308235 0,-2.133595 0.51698,-3.922537 1.55096,-5.366831 1.12424,-1.575571 2.62597,-2.363362 4.50519,-2.363374 1.36221,1.2e-5 2.47414,0.229785 3.3358,0.689317 1.05858,0.566237 1.58788,1.436089 1.58789,2.60956 -1e-5,0.820625 -0.46366,1.567385 -1.39094,2.240282 -0.41032,0.295429 -1.28017,0.754974 -2.60956,1.378636 l -4.70213,2.227973 c 0.45954,0.681114 1.03192,1.193999 1.71714,1.538655 0.68521,0.344661 1.48325,0.51699 2.39414,0.516989 0.56622,10e-7 1.23092,-0.106679 1.9941,-0.320041 0.96832,-0.270801 1.59199,-0.625717 1.87101,-1.064749 0.279,-0.439027 0.57852,-0.658541 0.89857,-0.658545 0.28721,4e-6 0.54365,0.108735 0.76933,0.326195 0.22566,0.217466 0.33849,0.469806 0.3385,0.757019 -1e-5,0.910885 -0.73446,1.694573 -2.20335,2.351065 -1.25555,0.558019 -2.47827,0.837028 -3.66816,0.837029 z M 107.28368,36.11462 c -1.00116,10e-6 -1.83409,0.387751 -2.49878,1.163223 -0.6647,0.775491 -1.16118,1.942817 -1.48942,3.50198 l 3.77894,-1.79715 c 1.4853,-0.722133 2.5439,-1.349904 3.17578,-1.883314 -0.70574,-0.656483 -1.69458,-0.984729 -2.96652,-0.984739 z"
           style="font-variant:normal;font-stretch:normal;font-family:Comic Sans MS;-inkscape-font-specification:Comic Sans MS;fill:#ffffff;fill-opacity:1;stroke-width:0.65384142;stroke-miterlimit:4;stroke-dasharray:none;stroke:#000000;stroke-opacity:1"
           id="path3031"
           inkscape:connector-curvature="0" />
        <path
           d="m 125.27979,37.665584 c -0.0575,1.025779 -0.46776,1.538663 -1.23092,1.538656 -0.70574,7e-6 -1.0586,-0.406197 -1.0586,-1.218615 0,-0.155909 -0.0123,-0.443124 -0.0369,-0.861647 l -0.0369,-1.033977 c -1.29658,0.155928 -2.33466,0.521101 -3.11424,1.095523 -0.73035,0.533409 -1.33761,1.337612 -1.82177,2.412612 l 0.0246,6.745465 c 0,0.828822 -0.40621,1.243233 -1.21861,1.243234 -0.72215,-10e-7 -1.08322,-0.414412 -1.08322,-1.243234 l 0,-8.641089 c 0,-0.270794 0.0103,-0.676999 0.0308,-1.218615 0.0205,-0.541596 0.0308,-0.947801 0.0308,-1.218615 0,-0.82881 0.36107,-1.243221 1.08321,-1.243234 0.8042,1.3e-5 1.21041,0.681124 1.21862,2.043335 1.57557,-1.518128 3.32349,-2.277198 5.24373,-2.277211 0.66469,1.3e-5 1.16117,0.250301 1.48942,0.750864 0.32824,0.500588 0.49236,1.255554 0.49237,2.264901 -1e-5,0.42673 -0.004,0.713946 -0.0123,0.861647 z"
           style="font-variant:normal;font-stretch:normal;font-family:Comic Sans MS;-inkscape-font-specification:Comic Sans MS;fill:#ffffff;fill-opacity:1;stroke-width:0.65384142;stroke-miterlimit:4;stroke-dasharray:none;stroke:#000000;stroke-opacity:1"
           id="path3033"
           inkscape:connector-curvature="0" />
      </g>
    </g>
  </g>
  <flowRoot
     xml:space="preserve"
     id="flowRoot2993"
     style="fill:black;stroke:none;stroke-opacity:1;stroke-width:1px;stroke-linejoin:miter;stroke-linecap:butt;fill-opacity:1;font-family:Sans;font-style:normal;font-weight:normal;font-size:40px;line-height:125%;letter-spacing:0px;word-spacing:0px"><flowRegion
       id="flowRegion2995"><rect
         id="rect2997"
         width="0"
         height="231.42857"
         x="118.57143"
         y="15.642857" /></flowRegion><flowPara
       id="flowPara2999" /></flowRoot></svg>
