<?xml version="1.0" encoding="UTF-8" standalone="no"?>
<!-- Created with Inkscape (http://www.inkscape.org/) -->

<svg
   xmlns:dc="http://purl.org/dc/elements/1.1/"
   xmlns:cc="http://creativecommons.org/ns#"
   xmlns:rdf="http://www.w3.org/1999/02/22-rdf-syntax-ns#"
   xmlns:svg="http://www.w3.org/2000/svg"
   xmlns="http://www.w3.org/2000/svg"
   xmlns:xlink="http://www.w3.org/1999/xlink"
   xmlns:sodipodi="http://sodipodi.sourceforge.net/DTD/sodipodi-0.dtd"
   xmlns:inkscape="http://www.inkscape.org/namespaces/inkscape"
   width="210mm"
   height="297mm"
   id="svg5686"
   version="1.1"
   inkscape:version="0.48.3.1 r9886"
   sodipodi:docname="red-fall.svg">
  <defs
     id="defs5688">
    <linearGradient
       id="linearGradient7126">
      <stop
         style="stop-color:#ffffff;stop-opacity:1;"
         offset="0"
         id="stop7128" />
      <stop
         style="stop-color:#d1d1d1;stop-opacity:1;"
         offset="1"
         id="stop7130" />
    </linearGradient>
    <linearGradient
       inkscape:collect="always"
       id="linearGradient7091">
      <stop
         style="stop-color:#000000;stop-opacity:1;"
         offset="0"
         id="stop7093" />
      <stop
         style="stop-color:#000000;stop-opacity:0;"
         offset="1"
         id="stop7095" />
    </linearGradient>
    <linearGradient
       id="linearGradient6696">
      <stop
         style="stop-color:#fffbee;stop-opacity:1;"
         offset="0"
         id="stop6698" />
      <stop
         style="stop-color:#dca400;stop-opacity:1;"
         offset="1"
         id="stop6700" />
    </linearGradient>
    <linearGradient
       id="linearGradient6684">
      <stop
         style="stop-color:#ffffff;stop-opacity:0.27642277;"
         offset="0"
         id="stop6686" />
      <stop
         style="stop-color:#ffffff;stop-opacity:0;"
         offset="1"
         id="stop6688" />
    </linearGradient>
    <linearGradient
       id="linearGradient6676">
      <stop
         style="stop-color:#646464;stop-opacity:1;"
         offset="0"
         id="stop6678" />
      <stop
         style="stop-color:#b0aaae;stop-opacity:1;"
         offset="1"
         id="stop6680" />
    </linearGradient>
    <linearGradient
       id="linearGradient6654">
      <stop
         style="stop-color:#ffffff;stop-opacity:1;"
         offset="0"
         id="stop6656" />
      <stop
         style="stop-color:#ff0000;stop-opacity:0;"
         offset="1"
         id="stop6658" />
    </linearGradient>
    <linearGradient
       id="linearGradient6578">
      <stop
         style="stop-color:#ff0000;stop-opacity:1;"
         offset="0"
         id="stop6580" />
      <stop
         style="stop-color:#ff0000;stop-opacity:1;"
         offset="1"
         id="stop6582" />
    </linearGradient>
    <linearGradient
       id="linearGradient6527">
      <stop
         style="stop-color:#ff6673;stop-opacity:1;"
         offset="0"
         id="stop6529" />
      <stop
         style="stop-color:#ffffff;stop-opacity:1;"
         offset="1"
         id="stop6531" />
    </linearGradient>
    <filter
       id="filter6586"
       inkscape:label="Inner Shadow"
       inkscape:menu="Shadows and Glows"
       inkscape:menu-tooltip="Adds a colorizable drop shadow inside"
       color-interpolation-filters="sRGB">
      <feGaussianBlur
         id="feGaussianBlur6588"
         stdDeviation="4"
         result="result8" />
      <feOffset
         id="feOffset6590"
         dx="4"
         dy="4"
         result="result11" />
      <feComposite
         id="feComposite6592"
         in2="result11"
         result="result6"
         in="SourceGraphic"
         operator="in" />
      <feFlood
         id="feFlood6594"
         result="result10"
         in="result6"
         flood-opacity="1"
         flood-color="rgb(0,0,0)" />
      <feBlend
         id="feBlend6596"
         in2="result10"
         mode="normal"
         in="result6"
         result="result12" />
      <feComposite
         id="feComposite6598"
         in2="SourceGraphic"
         result="result2"
         operator="in" />
    </filter>
    <linearGradient
       inkscape:collect="always"
       xlink:href="#linearGradient6654"
       id="linearGradient6646"
       x1="-1327.0316"
       y1="734.45605"
       x2="-1320.8827"
       y2="1227.0374"
       gradientUnits="userSpaceOnUse" />
    <linearGradient
       inkscape:collect="always"
       xlink:href="#linearGradient6676"
       id="linearGradient6682"
       x1="-1606.0791"
       y1="882.25653"
       x2="-1410.5093"
       y2="701.00226"
       gradientUnits="userSpaceOnUse" />
    <radialGradient
       inkscape:collect="always"
       xlink:href="#linearGradient6684"
       id="radialGradient6690"
       cx="-1485.6091"
       cy="760.37238"
       fx="-1485.6091"
       fy="760.37238"
       r="112.52979"
       gradientTransform="matrix(1,0,0,0.92969066,0,55.911797)"
       gradientUnits="userSpaceOnUse" />
    <radialGradient
       inkscape:collect="always"
       xlink:href="#linearGradient6696"
       id="radialGradient6702"
       cx="-1440.4236"
       cy="752.9632"
       fx="-1440.4236"
       fy="752.9632"
       r="26.535674"
       gradientTransform="matrix(1,0,0,0.55275916,0,342.46839)"
       gradientUnits="userSpaceOnUse" />
    <radialGradient
       inkscape:collect="always"
       xlink:href="#linearGradient6696"
       id="radialGradient6714"
       gradientUnits="userSpaceOnUse"
       gradientTransform="matrix(1,0,0,0.55275916,0,342.46839)"
       cx="-1440.4236"
       cy="752.9632"
       fx="-1440.4236"
       fy="752.9632"
       r="26.535674" />
    <radialGradient
       inkscape:collect="always"
       xlink:href="#linearGradient6696"
       id="radialGradient6718"
       gradientUnits="userSpaceOnUse"
       gradientTransform="matrix(1,0,0,0.55275916,0,342.46839)"
       cx="-1440.4236"
       cy="752.9632"
       fx="-1440.4236"
       fy="752.9632"
       r="26.535674" />
    <radialGradient
       inkscape:collect="always"
       xlink:href="#linearGradient6696"
       id="radialGradient6722"
       gradientUnits="userSpaceOnUse"
       gradientTransform="matrix(1,0,0,0.55275916,0,342.46839)"
       cx="-1440.4236"
       cy="752.9632"
       fx="-1440.4236"
       fy="752.9632"
       r="26.535674" />
    <radialGradient
       inkscape:collect="always"
       xlink:href="#linearGradient6696"
       id="radialGradient6726"
       gradientUnits="userSpaceOnUse"
       gradientTransform="matrix(1,0,0,0.55275916,0,342.46839)"
       cx="-1440.4236"
       cy="752.9632"
       fx="-1440.4236"
       fy="752.9632"
       r="26.535674" />
    <radialGradient
       inkscape:collect="always"
       xlink:href="#linearGradient6696"
       id="radialGradient6730"
       gradientUnits="userSpaceOnUse"
       gradientTransform="matrix(1,0,0,0.55275916,0,342.46839)"
       cx="-1440.4236"
       cy="752.9632"
       fx="-1440.4236"
       fy="752.9632"
       r="26.535674" />
    <filter
       id="filter3962"
       inkscape:label="Inner Shadow"
       inkscape:menu="Shadows and Glows"
       inkscape:menu-tooltip="Adds a colorizable drop shadow inside"
       color-interpolation-filters="sRGB">
      <feGaussianBlur
         id="feGaussianBlur3964"
         stdDeviation="4"
         result="result8" />
      <feOffset
         id="feOffset3966"
         dx="4"
         dy="4"
         result="result11" />
      <feComposite
         id="feComposite3968"
         in2="result11"
         result="result6"
         in="SourceGraphic"
         operator="in" />
      <feFlood
         id="feFlood3970"
         result="result10"
         in="result6"
         flood-opacity="1"
         flood-color="rgb(0,0,0)" />
      <feBlend
         id="feBlend3972"
         in2="result10"
         mode="normal"
         in="result6"
         result="result12" />
      <feComposite
         id="feComposite3974"
         in2="SourceGraphic"
         result="result2"
         operator="in" />
    </filter>
    <radialGradient
       inkscape:collect="always"
       xlink:href="#linearGradient6696"
       id="radialGradient3978"
       gradientUnits="userSpaceOnUse"
       gradientTransform="matrix(1,0,0,0.55275916,0,342.46839)"
       cx="-1440.4236"
       cy="752.9632"
       fx="-1440.4236"
       fy="752.9632"
       r="26.535674" />
    <radialGradient
       inkscape:collect="always"
       xlink:href="#linearGradient6696"
       id="radialGradient3982"
       gradientUnits="userSpaceOnUse"
       gradientTransform="matrix(1,0,0,0.55275916,0,342.46839)"
       cx="-1440.4236"
       cy="752.9632"
       fx="-1440.4236"
       fy="752.9632"
       r="26.535674" />
    <radialGradient
       inkscape:collect="always"
       xlink:href="#linearGradient6696"
       id="radialGradient3986"
       gradientUnits="userSpaceOnUse"
       gradientTransform="matrix(1,0,0,0.55275916,0,342.46839)"
       cx="-1440.4236"
       cy="752.9632"
       fx="-1440.4236"
       fy="752.9632"
       r="26.535674" />
    <linearGradient
       inkscape:collect="always"
       xlink:href="#linearGradient7091"
       id="linearGradient7097"
       x1="-1283.1785"
       y1="1018.4255"
       x2="-1189.6485"
       y2="1018.4255"
       gradientUnits="userSpaceOnUse" />
    <linearGradient
       inkscape:collect="always"
       xlink:href="#linearGradient7091"
       id="linearGradient7109"
       gradientUnits="userSpaceOnUse"
       x1="-1283.1785"
       y1="1018.4255"
       x2="-1189.6485"
       y2="1018.4255" />
    <linearGradient
       inkscape:collect="always"
       xlink:href="#linearGradient7091"
       id="linearGradient7111"
       gradientUnits="userSpaceOnUse"
       x1="-1283.1785"
       y1="1018.4255"
       x2="-1189.6485"
       y2="1018.4255" />
    <linearGradient
       inkscape:collect="always"
       xlink:href="#linearGradient7091"
       id="linearGradient7113"
       gradientUnits="userSpaceOnUse"
       x1="-1283.1785"
       y1="1018.4255"
       x2="-1189.6485"
       y2="1018.4255" />
    <linearGradient
       inkscape:collect="always"
       xlink:href="#linearGradient7091"
       id="linearGradient7118"
       gradientUnits="userSpaceOnUse"
       x1="-1283.1785"
       y1="1018.4255"
       x2="-1189.6485"
       y2="1018.4255" />
    <linearGradient
       inkscape:collect="always"
       xlink:href="#linearGradient7091"
       id="linearGradient7120"
       gradientUnits="userSpaceOnUse"
       x1="-1283.1785"
       y1="1018.4255"
       x2="-1189.6485"
       y2="1018.4255" />
    <linearGradient
       inkscape:collect="always"
       xlink:href="#linearGradient7091"
       id="linearGradient7122"
       gradientUnits="userSpaceOnUse"
       x1="-1283.1785"
       y1="1018.4255"
       x2="-1189.6485"
       y2="1018.4255" />
    <linearGradient
       inkscape:collect="always"
       xlink:href="#linearGradient7126"
       id="linearGradient7132"
       x1="-1315.6946"
       y1="759.11713"
       x2="-1340.1775"
       y2="760.54761"
       gradientUnits="userSpaceOnUse" />
    <linearGradient
       inkscape:collect="always"
       xlink:href="#linearGradient7126"
       id="linearGradient7152"
       gradientUnits="userSpaceOnUse"
       x1="-1315.6946"
       y1="759.11713"
       x2="-1340.1775"
       y2="760.54761" />
    <linearGradient
       inkscape:collect="always"
       xlink:href="#linearGradient7091"
       id="linearGradient7154"
       gradientUnits="userSpaceOnUse"
       x1="-1283.1785"
       y1="1018.4255"
       x2="-1189.6485"
       y2="1018.4255" />
    <linearGradient
       inkscape:collect="always"
       xlink:href="#linearGradient7126"
       id="linearGradient7156"
       gradientUnits="userSpaceOnUse"
       x1="-1315.6946"
       y1="759.11713"
       x2="-1340.1775"
       y2="760.54761" />
    <linearGradient
       inkscape:collect="always"
       xlink:href="#linearGradient7091"
       id="linearGradient7158"
       gradientUnits="userSpaceOnUse"
       x1="-1283.1785"
       y1="1018.4255"
       x2="-1189.6485"
       y2="1018.4255" />
    <linearGradient
       inkscape:collect="always"
       xlink:href="#linearGradient7126"
       id="linearGradient7160"
       gradientUnits="userSpaceOnUse"
       x1="-1315.6946"
       y1="759.11713"
       x2="-1340.1775"
       y2="760.54761" />
    <linearGradient
       inkscape:collect="always"
       xlink:href="#linearGradient7091"
       id="linearGradient7162"
       gradientUnits="userSpaceOnUse"
       x1="-1283.1785"
       y1="1018.4255"
       x2="-1189.6485"
       y2="1018.4255" />
    <linearGradient
       inkscape:collect="always"
       xlink:href="#linearGradient6654"
       id="linearGradient7191"
       gradientUnits="userSpaceOnUse"
       x1="-1327.0316"
       y1="734.45605"
       x2="-1320.8827"
       y2="1227.0374" />
    <linearGradient
       inkscape:collect="always"
       xlink:href="#linearGradient7126"
       id="linearGradient7193"
       gradientUnits="userSpaceOnUse"
       x1="-1315.6946"
       y1="759.11713"
       x2="-1340.1775"
       y2="760.54761" />
    <linearGradient
       inkscape:collect="always"
       xlink:href="#linearGradient7091"
       id="linearGradient7195"
       gradientUnits="userSpaceOnUse"
       x1="-1283.1785"
       y1="1018.4255"
       x2="-1189.6485"
       y2="1018.4255" />
    <radialGradient
       inkscape:collect="always"
       xlink:href="#linearGradient6684"
       id="radialGradient7197"
       gradientUnits="userSpaceOnUse"
       gradientTransform="matrix(1,0,0,0.92969066,0,55.911797)"
       cx="-1485.6091"
       cy="760.37238"
       fx="-1485.6091"
       fy="760.37238"
       r="112.52979" />
    <linearGradient
       inkscape:collect="always"
       xlink:href="#linearGradient6676"
       id="linearGradient7199"
       gradientUnits="userSpaceOnUse"
       x1="-1606.0791"
       y1="882.25653"
       x2="-1410.5093"
       y2="701.00226" />
    <radialGradient
       inkscape:collect="always"
       xlink:href="#linearGradient6696"
       id="radialGradient7201"
       gradientUnits="userSpaceOnUse"
       gradientTransform="matrix(1,0,0,0.55275916,0,342.46839)"
       cx="-1440.4236"
       cy="752.9632"
       fx="-1440.4236"
       fy="752.9632"
       r="26.535674" />
    <radialGradient
       inkscape:collect="always"
       xlink:href="#linearGradient6696"
       id="radialGradient7203"
       gradientUnits="userSpaceOnUse"
       gradientTransform="matrix(1,0,0,0.55275916,0,342.46839)"
       cx="-1440.4236"
       cy="752.9632"
       fx="-1440.4236"
       fy="752.9632"
       r="26.535674" />
    <radialGradient
       inkscape:collect="always"
       xlink:href="#linearGradient6696"
       id="radialGradient7205"
       gradientUnits="userSpaceOnUse"
       gradientTransform="matrix(1,0,0,0.55275916,0,342.46839)"
       cx="-1440.4236"
       cy="752.9632"
       fx="-1440.4236"
       fy="752.9632"
       r="26.535674" />
    <radialGradient
       inkscape:collect="always"
       xlink:href="#linearGradient6696"
       id="radialGradient7207"
       gradientUnits="userSpaceOnUse"
       gradientTransform="matrix(1,0,0,0.55275916,0,342.46839)"
       cx="-1440.4236"
       cy="752.9632"
       fx="-1440.4236"
       fy="752.9632"
       r="26.535674" />
    <radialGradient
       inkscape:collect="always"
       xlink:href="#linearGradient6696"
       id="radialGradient7209"
       gradientUnits="userSpaceOnUse"
       gradientTransform="matrix(1,0,0,0.55275916,0,342.46839)"
       cx="-1440.4236"
       cy="752.9632"
       fx="-1440.4236"
       fy="752.9632"
       r="26.535674" />
    <radialGradient
       inkscape:collect="always"
       xlink:href="#linearGradient6696"
       id="radialGradient7211"
       gradientUnits="userSpaceOnUse"
       gradientTransform="matrix(1,0,0,0.55275916,0,342.46839)"
       cx="-1440.4236"
       cy="752.9632"
       fx="-1440.4236"
       fy="752.9632"
       r="26.535674" />
    <radialGradient
       inkscape:collect="always"
       xlink:href="#linearGradient6696"
       id="radialGradient7213"
       gradientUnits="userSpaceOnUse"
       gradientTransform="matrix(1,0,0,0.55275916,0,342.46839)"
       cx="-1440.4236"
       cy="752.9632"
       fx="-1440.4236"
       fy="752.9632"
       r="26.535674" />
    <radialGradient
       inkscape:collect="always"
       xlink:href="#linearGradient6696"
       id="radialGradient7215"
       gradientUnits="userSpaceOnUse"
       gradientTransform="matrix(1,0,0,0.55275916,0,342.46839)"
       cx="-1440.4236"
       cy="752.9632"
       fx="-1440.4236"
       fy="752.9632"
       r="26.535674" />
    <radialGradient
       inkscape:collect="always"
       xlink:href="#linearGradient6696"
       id="radialGradient7217"
       gradientUnits="userSpaceOnUse"
       gradientTransform="matrix(1,0,0,0.55275916,0,342.46839)"
       cx="-1440.4236"
       cy="752.9632"
       fx="-1440.4236"
       fy="752.9632"
       r="26.535674" />
    <linearGradient
       inkscape:collect="always"
       xlink:href="#linearGradient7126"
       id="linearGradient7219"
       gradientUnits="userSpaceOnUse"
       x1="-1315.6946"
       y1="759.11713"
       x2="-1340.1775"
       y2="760.54761" />
    <linearGradient
       inkscape:collect="always"
       xlink:href="#linearGradient7091"
       id="linearGradient7221"
       gradientUnits="userSpaceOnUse"
       x1="-1283.1785"
       y1="1018.4255"
       x2="-1189.6485"
       y2="1018.4255" />
    <linearGradient
       inkscape:collect="always"
       xlink:href="#linearGradient6654"
       id="linearGradient4267"
       gradientUnits="userSpaceOnUse"
       x1="-1324.9886"
       y1="833.22479"
       x2="-1322.9257"
       y2="1273.8225" />
  </defs>
  <sodipodi:namedview
     id="base"
     pagecolor="#ffffff"
     bordercolor="#666666"
     borderopacity="1.0"
     inkscape:pageopacity="0.0"
     inkscape:pageshadow="2"
     inkscape:zoom="0.6990758"
     inkscape:cx="552.54629"
     inkscape:cy="120.78254"
     inkscape:document-units="px"
     inkscape:current-layer="layer1"
     showgrid="false"
     inkscape:window-width="1366"
     inkscape:window-height="721"
     inkscape:window-x="0"
     inkscape:window-y="25"
     inkscape:window-maximized="1" />
  <metadata
     id="metadata5691">
    <rdf:RDF>
      <cc:Work
         rdf:about="">
        <dc:format>image/svg+xml</dc:format>
        <dc:type
           rdf:resource="http://purl.org/dc/dcmitype/StillImage" />
        <dc:title />
      </cc:Work>
    </rdf:RDF>
  </metadata>
  <g
     inkscape:label="Calque 1"
     inkscape:groupmode="layer"
     id="layer1">
    <path
       sodipodi:type="arc"
       style="fill:#850000;fill-opacity:1;fill-rule:evenodd;stroke:none"
       id="path6475"
       sodipodi:cx="-1312.8395"
       sodipodi:cy="1075.3578"
       sodipodi:rx="204.86986"
       sodipodi:ry="173.51222"
       d="m -1107.9696,1075.3578 a 204.86986,173.51222 0 1 1 -409.7397,0 204.86986,173.51222 0 1 1 409.7397,0 z"
       transform="matrix(1.0128381,0,0,1.1958812,1540.5197,-447.80785)"
       inkscape:export-filename="C:\Users\Nicolas\Desktop\fall.png"
       inkscape:export-xdpi="90"
       inkscape:export-ydpi="90" />
    <path
       transform="matrix(0.99021155,0,0,1.1674711,1510.8712,-417.39074)"
       d="m -1107.9696,1075.3578 a 204.86986,173.51222 0 1 1 -409.7397,0 204.86986,173.51222 0 1 1 409.7397,0 z"
       sodipodi:ry="173.51222"
       sodipodi:rx="204.86986"
       sodipodi:cy="1075.3578"
       sodipodi:cx="-1312.8395"
       id="path6543"
       style="fill:url(#linearGradient4267);fill-opacity:1;fill-rule:evenodd;stroke:none"
       sodipodi:type="arc"
       inkscape:export-filename="C:\Users\Nicolas\Desktop\fall.png"
       inkscape:export-xdpi="90"
       inkscape:export-ydpi="90" />
    <g
       id="g6670"
       transform="matrix(0.44291193,0.00384377,0,0.53034423,936.12451,324.53342)"
       inkscape:export-filename="C:\Users\Nicolas\Desktop\fall.png"
       inkscape:export-xdpi="90"
       inkscape:export-ydpi="90">
      <path
         style="fill:#000000;fill-opacity:1;fill-rule:evenodd;stroke:none"
         d="m -1990.494,1116.1424 c -36.725,-5.264 -52.5457,-13.9461 -62.5374,-34.3193 -6.1068,-12.4519 -7.9503,-21.5157 -7.9503,-39.0883 0,-15.1897 3.6654,-31.7171 9.7327,-43.88487 4.1682,-8.3591 44.3334,-102.63681 42.9664,-95.33656 l -11.7011,62.48892 0.3195,32.90512 c 0.4016,41.36069 1.5534,44.98279 16.7542,52.69119 20.1066,10.196 57.0607,10.2579 88.6579,0.1485 22.7118,-7.2666 31.5198,-11.7076 82.7152,-41.7054 41.5201,-24.32855 64.9381,-35.28317 88.4693,-41.38482 24.8136,-6.43414 44.5344,-8.30721 61.1374,-5.80676 24.9921,3.76389 40.3932,11.95161 50.4603,26.82627 6.9306,10.24047 8.7927,18.28871 9.8378,42.52131 l 0.7258,16.8286 -11.8111,-0.7824 c -15.1757,-1.0052 -43.2482,3.0948 -79.9741,11.6804 -27.5789,6.4472 -39.2302,9.4941 -110.2142,28.8219 -88.828,24.1864 -107.2202,28.1309 -134.5022,28.846 -11.5988,0.304 -24.9239,-0.2799 -33.0861,-1.4498 z"
         id="path6666"
         inkscape:connector-curvature="0"
         sodipodi:nodetypes="ssssscsssssssscsssss" />
      <path
         inkscape:connector-curvature="0"
         id="path6668"
         d="m -1294.3609,1116.1424 c 36.725,-5.264 52.5457,-13.9461 62.5374,-34.3193 6.1069,-12.4519 7.9504,-21.5157 7.9504,-39.0883 0,-15.1897 -3.6654,-31.7171 -9.7328,-43.88487 -4.1682,-8.3591 -37.6858,-105.75259 -36.7462,-95.08336 l 5.4809,62.23572 -0.3195,32.90512 c -0.4016,41.36069 -1.5534,44.98279 -16.7542,52.69119 -20.1066,10.196 -57.0607,10.2579 -88.6579,0.1485 -22.7118,-7.2666 -31.5198,-11.7076 -82.7152,-41.7054 -41.5201,-24.32855 -64.9381,-35.28317 -88.4693,-41.38482 -24.8136,-6.43414 -44.5344,-8.30721 -61.1374,-5.80676 -24.9921,3.76389 -40.3932,11.95161 -50.4603,26.82627 -6.9306,10.24047 -8.7927,18.28871 -9.8378,42.52131 l -0.7258,16.8286 11.8111,-0.7824 c 15.1757,-1.0052 43.2482,3.0948 79.9741,11.6804 27.5789,6.4472 39.2302,9.4941 110.2142,28.8219 88.828,24.1864 107.2202,28.1309 134.5022,28.846 11.5988,0.304 24.9239,-0.2799 33.0861,-1.4498 z"
         style="fill:#000000;fill-opacity:1;fill-rule:evenodd;stroke:none"
         sodipodi:nodetypes="ssssscsssssssscsssss" />
    </g>
    <g
       id="g7138"
       transform="matrix(0.98780716,0,0,1.0779486,1509.2221,-337.96791)">
      <path
         d="m -1250.1281,756.61383 c 0,22.04983 -20.2658,39.92476 -45.265,39.92476 -24.9991,0 -45.265,-17.87493 -45.265,-39.92476 0,-22.04983 20.2659,-39.92475 45.265,-39.92475 24.9992,0 45.265,17.87492 45.265,39.92475 z"
         sodipodi:ry="39.924755"
         sodipodi:rx="45.265011"
         sodipodi:cy="756.61383"
         sodipodi:cx="-1295.3931"
         id="path4000"
         style="fill:url(#linearGradient7193);fill-opacity:1;fill-rule:evenodd;stroke:#000000;stroke-width:3;stroke-miterlimit:4;stroke-opacity:1;stroke-dasharray:none"
         sodipodi:type="arc"
         transform="translate(-95.510129,260.38121)" />
      <path
         transform="matrix(1.1935484,0,0,2.1893783,155.63766,-608.90149)"
         d="m -1276.575,738.30438 c 0,5.75824 -7.0589,10.42621 -15.7664,10.42621 -8.7076,0 -15.7665,-4.66797 -15.7665,-10.42621 0,-5.75823 7.0589,-10.42621 15.7665,-10.42621 8.7075,0 15.7664,4.66798 15.7664,10.42621 z"
         sodipodi:ry="10.42621"
         sodipodi:rx="15.766464"
         sodipodi:cy="738.30438"
         sodipodi:cx="-1292.3414"
         id="path4002"
         style="fill:#000000;fill-opacity:1;fill-rule:evenodd;stroke:url(#linearGradient7195);stroke-width:1.85584128;stroke-miterlimit:4;stroke-opacity:1;stroke-dasharray:none"
         sodipodi:type="arc" />
    </g>
    <path
       sodipodi:type="arc"
       style="fill:url(#radialGradient7197);fill-opacity:1;fill-rule:evenodd;stroke:url(#linearGradient7199);stroke-width:10;stroke-miterlimit:4;stroke-opacity:1;stroke-dasharray:none"
       id="path6674"
       sodipodi:cx="-1508.6538"
       sodipodi:cy="795.22571"
       sodipodi:rx="107.52979"
       sodipodi:ry="99.617897"
       d="m -1401.124,795.22571 a 107.52979,99.617897 0 1 1 -215.0596,0 107.52979,99.617897 0 1 1 215.0596,0 z"
       transform="matrix(0.3250641,-0.54352597,0.2831547,0.20166209,361.71754,-274.72546)"
       inkscape:export-filename="C:\Users\Nicolas\Desktop\fall.png"
       inkscape:export-xdpi="90"
       inkscape:export-ydpi="90" />
    <path
       sodipodi:type="arc"
       style="fill:none;stroke:url(#radialGradient7201);stroke-width:5.5999999;stroke-miterlimit:4;stroke-opacity:1;stroke-dasharray:none"
       id="path6694"
       sodipodi:cx="-1455.0687"
       sodipodi:cy="765.73596"
       sodipodi:rx="23.735674"
       sodipodi:ry="11.867837"
       d="m -1431.3331,765.73596 a 23.735674,11.867837 0 1 1 -47.4713,0 23.735674,11.867837 0 1 1 47.4713,0 z"
       transform="matrix(0.1389182,-0.3244508,0.32157645,0.26711689,17.93694,93.584173)"
       inkscape:export-filename="C:\Users\Nicolas\Desktop\fall.png"
       inkscape:export-xdpi="90"
       inkscape:export-ydpi="90" />
    <path
       transform="matrix(0.28590194,-0.17581405,0.1192913,0.4213684,380.99568,202.64023)"
       d="m -1431.3331,765.73596 a 23.735674,11.867837 0 1 1 -47.4713,0 23.735674,11.867837 0 1 1 47.4713,0 z"
       sodipodi:ry="11.867837"
       sodipodi:rx="23.735674"
       sodipodi:cy="765.73596"
       sodipodi:cx="-1455.0687"
       id="path6712"
       style="fill:none;stroke:url(#radialGradient7203);stroke-width:5.5999999;stroke-miterlimit:4;stroke-opacity:1;stroke-dasharray:none"
       sodipodi:type="arc"
       inkscape:export-filename="C:\Users\Nicolas\Desktop\fall.png"
       inkscape:export-xdpi="90"
       inkscape:export-ydpi="90" />
    <path
       sodipodi:type="arc"
       style="fill:none;stroke:url(#radialGradient7205);stroke-width:5.5999999;stroke-miterlimit:4;stroke-opacity:1;stroke-dasharray:none"
       id="path6716"
       sodipodi:cx="-1455.0687"
       sodipodi:cy="765.73596"
       sodipodi:rx="23.735674"
       sodipodi:ry="11.867837"
       d="m -1431.3331,765.73596 a 23.735674,11.867837 0 1 1 -47.4713,0 23.735674,11.867837 0 1 1 47.4713,0 z"
       transform="matrix(0.18325833,-0.2970805,0.27981929,0.3182081,101.71869,115.08128)"
       inkscape:transform-center-x="6.5608596"
       inkscape:transform-center-y="8.4425225"
       inkscape:export-filename="C:\Users\Nicolas\Desktop\fall.png"
       inkscape:export-xdpi="90"
       inkscape:export-ydpi="90" />
    <path
       transform="matrix(0.31421274,-0.10333741,0.03197051,0.4396365,479.54051,312.54428)"
       d="m -1431.3331,765.73596 a 23.735674,11.867837 0 1 1 -47.4713,0 23.735674,11.867837 0 1 1 47.4713,0 z"
       sodipodi:ry="11.867837"
       sodipodi:rx="23.735674"
       sodipodi:cy="765.73596"
       sodipodi:cx="-1455.0687"
       id="path6720"
       style="fill:none;stroke:url(#radialGradient7207);stroke-width:5.5999999;stroke-miterlimit:4;stroke-opacity:1;stroke-dasharray:none"
       sodipodi:type="arc"
       inkscape:export-filename="C:\Users\Nicolas\Desktop\fall.png"
       inkscape:export-xdpi="90"
       inkscape:export-ydpi="90" />
    <path
       sodipodi:type="arc"
       style="fill:none;stroke:url(#radialGradient7209);stroke-width:5.5999999;stroke-miterlimit:4;stroke-opacity:1;stroke-dasharray:none"
       id="path6724"
       sodipodi:cx="-1455.0687"
       sodipodi:cy="765.73596"
       sodipodi:rx="23.735674"
       sodipodi:ry="11.867837"
       d="m -1431.3331,765.73596 a 23.735674,11.867837 0 1 1 -47.4713,0 23.735674,11.867837 0 1 1 47.4713,0 z"
       transform="matrix(0.32676853,-0.03308681,-0.04878377,0.43779379,551.23202,421.7587)"
       inkscape:export-filename="C:\Users\Nicolas\Desktop\fall.png"
       inkscape:export-xdpi="90"
       inkscape:export-ydpi="90" />
    <path
       transform="matrix(0.32676853,-0.03308681,-0.04878377,0.43779379,542.7747,428.83784)"
       d="m -1431.3331,765.73596 a 23.735674,11.867837 0 1 1 -47.4713,0 23.735674,11.867837 0 1 1 47.4713,0 z"
       sodipodi:ry="11.867837"
       sodipodi:rx="23.735674"
       sodipodi:cy="765.73596"
       sodipodi:cx="-1455.0687"
       id="path6728"
       style="fill:none;stroke:url(#radialGradient7211);stroke-width:5.5999999;stroke-miterlimit:4;stroke-opacity:1;stroke-dasharray:none"
       sodipodi:type="arc"
       inkscape:export-filename="C:\Users\Nicolas\Desktop\fall.png"
       inkscape:export-xdpi="90"
       inkscape:export-ydpi="90" />
    <g
       id="g3957"
       transform="matrix(0.98780716,0,0,1.0779486,1141.8372,-372.66207)"
       style="filter:url(#filter3962)"
       inkscape:export-filename="C:\Users\Nicolas\Desktop\fall.png"
       inkscape:export-xdpi="90"
       inkscape:export-ydpi="90">
      <path
         transform="matrix(1,0,0,1.3225806,344.74087,-343.41696)"
         d="m -1239.4936,1184.3221 c 0,18.368 -23.5361,33.2582 -52.5694,33.2582 -29.0333,0 -52.5694,-14.8902 -52.5694,-33.2582 0,-18.368 23.5361,-33.2582 52.5694,-33.2582 29.0333,0 52.5694,14.8902 52.5694,33.2582 z"
         sodipodi:ry="33.258198"
         sodipodi:rx="52.569408"
         sodipodi:cy="1184.3221"
         sodipodi:cx="-1292.063"
         id="path3171"
         style="fill:#1a1a1a;fill-rule:evenodd;stroke:none"
         sodipodi:type="arc" />
      <path
         id="path3951"
         d="m -950.03125,1179 c -15.16246,0.6431 -28.61392,6.6819 -37.71875,15.8438 2.94109,9.1202 10.1753,15.5937 18.625,15.5937 11.0603,0 20,-11.0596 20,-24.6875 0,-2.3423 -0.25515,-4.6032 -0.75,-6.75 -0.0515,0 -0.10476,0 -0.15625,0 z"
         style="fill:#ffffff;fill-opacity:1;fill-rule:evenodd;stroke:none"
         inkscape:connector-curvature="0" />
      <path
         id="path3954"
         d="m -944.125,1179.0312 c -0.4431,1.5533 -0.6875,3.2123 -0.6875,4.9376 0,8.6902 6.08855,15.7187 13.59375,15.7187 6.74499,0 12.3103,-5.6956 13.375,-13.1563 -7.58155,-4.3066 -16.57387,-7.0115 -26.28125,-7.5 z"
         style="fill:#ffffff;fill-opacity:1;fill-rule:evenodd;stroke:none"
         inkscape:connector-curvature="0" />
    </g>
    <path
       sodipodi:type="arc"
       style="fill:none;stroke:url(#radialGradient7213);stroke-width:5.5999999;stroke-miterlimit:4;stroke-opacity:1;stroke-dasharray:none"
       id="path3976"
       sodipodi:cx="-1455.0687"
       sodipodi:cy="765.73596"
       sodipodi:rx="23.735674"
       sodipodi:ry="11.867837"
       d="m -1431.3331,765.73596 a 23.735674,11.867837 0 1 1 -47.4713,0 23.735674,11.867837 0 1 1 47.4713,0 z"
       transform="matrix(0.20877415,-0.27630572,0.25024862,0.34629769,136.45286,148.08338)"
       inkscape:export-filename="C:\Users\Nicolas\Desktop\fall.png"
       inkscape:export-xdpi="90"
       inkscape:export-ydpi="90" />
    <path
       transform="matrix(0.20877415,-0.27630572,0.25024862,0.34629769,130.80082,157.33515)"
       d="m -1431.3331,765.73596 a 23.735674,11.867837 0 1 1 -47.4713,0 23.735674,11.867837 0 1 1 47.4713,0 z"
       sodipodi:ry="11.867837"
       sodipodi:rx="23.735674"
       sodipodi:cy="765.73596"
       sodipodi:cx="-1455.0687"
       id="path3980"
       style="fill:none;stroke:url(#radialGradient7215);stroke-width:5.5999999;stroke-miterlimit:4;stroke-opacity:1;stroke-dasharray:none"
       sodipodi:type="arc"
       inkscape:transform-center-x="-6.8699218"
       inkscape:transform-center-y="-15.73506"
       inkscape:export-filename="C:\Users\Nicolas\Desktop\fall.png"
       inkscape:export-xdpi="90"
       inkscape:export-ydpi="90" />
    <path
       inkscape:transform-center-y="-15.73506"
       inkscape:transform-center-x="-6.8699218"
       sodipodi:type="arc"
       style="fill:none;stroke:url(#radialGradient7217);stroke-width:5.5999999;stroke-miterlimit:4;stroke-opacity:1;stroke-dasharray:none"
       id="path3984"
       sodipodi:cx="-1455.0687"
       sodipodi:cy="765.73596"
       sodipodi:rx="23.735674"
       sodipodi:ry="11.867837"
       d="m -1431.3331,765.73596 a 23.735674,11.867837 0 1 1 -47.4713,0 23.735674,11.867837 0 1 1 47.4713,0 z"
       transform="matrix(0.20877415,-0.27630572,0.25024862,0.34629769,128.68129,166.58693)"
       inkscape:export-filename="C:\Users\Nicolas\Desktop\fall.png"
       inkscape:export-xdpi="90"
       inkscape:export-ydpi="90" />
    <g
       id="g7146"
       transform="matrix(-0.98780716,0,0,1.0779486,-1086.7666,-337.96791)">
      <path
         transform="translate(-95.510129,260.38121)"
         sodipodi:type="arc"
         style="fill:url(#linearGradient7219);fill-opacity:1;fill-rule:evenodd;stroke:#000000;stroke-width:3;stroke-miterlimit:4;stroke-opacity:1;stroke-dasharray:none"
         id="path7148"
         sodipodi:cx="-1295.3931"
         sodipodi:cy="756.61383"
         sodipodi:rx="45.265011"
         sodipodi:ry="39.924755"
         d="m -1250.1281,756.61383 c 0,22.04983 -20.2658,39.92476 -45.265,39.92476 -24.9991,0 -45.265,-17.87493 -45.265,-39.92476 0,-22.04983 20.2659,-39.92475 45.265,-39.92475 24.9992,0 45.265,17.87492 45.265,39.92475 z" />
      <path
         sodipodi:type="arc"
         style="fill:#000000;fill-opacity:1;fill-rule:evenodd;stroke:url(#linearGradient7221);stroke-width:1.85584128;stroke-miterlimit:4;stroke-opacity:1;stroke-dasharray:none"
         id="path7150"
         sodipodi:cx="-1292.3414"
         sodipodi:cy="738.30438"
         sodipodi:rx="15.766464"
         sodipodi:ry="10.42621"
         d="m -1276.575,738.30438 c 0,5.75824 -7.0589,10.42621 -15.7664,10.42621 -8.7076,0 -15.7665,-4.66797 -15.7665,-10.42621 0,-5.75823 7.0589,-10.42621 15.7665,-10.42621 8.7075,0 15.7664,4.66798 15.7664,10.42621 z"
         transform="matrix(1.1935484,0,0,2.1893783,155.63766,-608.90149)" />
    </g>
  </g>
</svg>
