<?xml version="1.0" encoding="UTF-8" standalone="no"?>
<!-- Created with Inkscape (http://www.inkscape.org/) -->

<svg
   xmlns:dc="http://purl.org/dc/elements/1.1/"
   xmlns:cc="http://creativecommons.org/ns#"
   xmlns:rdf="http://www.w3.org/1999/02/22-rdf-syntax-ns#"
   xmlns:svg="http://www.w3.org/2000/svg"
   xmlns="http://www.w3.org/2000/svg"
   xmlns:xlink="http://www.w3.org/1999/xlink"
   xmlns:sodipodi="http://sodipodi.sourceforge.net/DTD/sodipodi-0.dtd"
   xmlns:inkscape="http://www.inkscape.org/namespaces/inkscape"
   id="svg3932"
   version="1.1"
   inkscape:version="0.48.2 r9819"
   width="182"
   height="124"
   sodipodi:docname="top_panel.svg">
  <metadata
     id="metadata3938">
    <rdf:RDF>
      <cc:Work
         rdf:about="">
        <dc:format>image/svg+xml</dc:format>
        <dc:type
           rdf:resource="http://purl.org/dc/dcmitype/StillImage" />
        <dc:title></dc:title>
      </cc:Work>
    </rdf:RDF>
  </metadata>
  <defs
     id="defs3936">
    <linearGradient
       id="linearGradient4472">
      <stop
         style="stop-color:#929292;stop-opacity:1;"
         offset="0"
         id="stop4474" />
      <stop
         style="stop-color:#4d4d4d;stop-opacity:1;"
         offset="1"
         id="stop4476" />
    </linearGradient>
    <radialGradient
       inkscape:collect="always"
       xlink:href="#linearGradient4472"
       id="radialGradient4482"
       cx="23.060461"
       cy="71.754776"
       fx="23.060461"
       fy="71.754776"
       r="4.6441336"
       gradientTransform="matrix(0.95794304,-0.09756251,0.09611158,0.94369664,-5.3948736,7.6353976)"
       gradientUnits="userSpaceOnUse" />
    <radialGradient
       inkscape:collect="always"
       xlink:href="#linearGradient4472"
       id="radialGradient4486"
       gradientUnits="userSpaceOnUse"
       gradientTransform="matrix(0.95794304,-0.09756251,0.09611158,0.94369664,121.85438,9.493051)"
       cx="23.060461"
       cy="71.754776"
       fx="23.060461"
       fy="71.754776"
       r="4.6441336" />
    <radialGradient
       inkscape:collect="always"
       xlink:href="#linearGradient4472"
       id="radialGradient4498"
       cx="41.147022"
       cy="43.217964"
       fx="41.147022"
       fy="43.217964"
       r="1.4861227"
       gradientTransform="matrix(1,0,0,3.8125001,-16.811764,-99.47033)"
       gradientUnits="userSpaceOnUse" />
    <radialGradient
       inkscape:collect="always"
       xlink:href="#linearGradient4472"
       id="radialGradient4513"
       cx="22.624987"
       cy="42.973557"
       fx="22.624987"
       fy="42.973557"
       r="3.296875"
       gradientTransform="matrix(1,0,0,1.6874669,0.65017869,-14.051576)"
       gradientUnits="userSpaceOnUse" />
    <radialGradient
       inkscape:collect="always"
       xlink:href="#linearGradient4472"
       id="radialGradient4517"
       gradientUnits="userSpaceOnUse"
       gradientTransform="matrix(1,0,0,3.8125001,-16.625999,-113.21697)"
       cx="41.147022"
       cy="43.217964"
       fx="41.147022"
       fy="43.217964"
       r="1.4861227" />
    <radialGradient
       inkscape:collect="always"
       xlink:href="#linearGradient4472"
       id="radialGradient4525"
       gradientUnits="userSpaceOnUse"
       gradientTransform="matrix(1,0,0,1.6874669,128.0852,-11.822392)"
       cx="22.624987"
       cy="42.973557"
       fx="22.624987"
       fy="42.973557"
       r="3.296875" />
    <radialGradient
       inkscape:collect="always"
       xlink:href="#linearGradient4472"
       id="radialGradient4527"
       gradientUnits="userSpaceOnUse"
       gradientTransform="matrix(1,0,0,3.8125001,110.62326,-97.241146)"
       cx="41.147022"
       cy="43.217964"
       fx="41.147022"
       fy="43.217964"
       r="1.4861227" />
    <radialGradient
       inkscape:collect="always"
       xlink:href="#linearGradient4472"
       id="radialGradient4529"
       gradientUnits="userSpaceOnUse"
       gradientTransform="matrix(1,0,0,3.8125001,110.80902,-110.98779)"
       cx="41.147022"
       cy="43.217964"
       fx="41.147022"
       fy="43.217964"
       r="1.4861227" />
  </defs>
  <sodipodi:namedview
     pagecolor="#ffffff"
     bordercolor="#666666"
     borderopacity="1"
     objecttolerance="10"
     gridtolerance="10"
     guidetolerance="10"
     inkscape:pageopacity="0"
     inkscape:pageshadow="2"
     inkscape:window-width="1680"
     inkscape:window-height="988"
     id="namedview3934"
     showgrid="false"
     inkscape:zoom="2.6915677"
     inkscape:cx="51.464433"
     inkscape:cy="28.562239"
     inkscape:window-x="-8"
     inkscape:window-y="-8"
     inkscape:window-maximized="1"
     inkscape:current-layer="svg3932" />
  <g
     id="g4531"
     inkscape:export-filename="F:\Projects\puyopuyo\puyopuyo-android\assets\images\top_panel.png"
     inkscape:export-xdpi="90"
     inkscape:export-ydpi="90">
    <rect
       y="69.570763"
       x="20.062656"
       height="8.9167366"
       width="9.2882671"
       id="rect4468"
       style="fill:url(#radialGradient4482);fill-opacity:1;fill-rule:evenodd;stroke:none" />
    <rect
       style="fill:url(#radialGradient4486);fill-opacity:1;fill-rule:evenodd;stroke:none"
       id="rect4484"
       width="9.2882671"
       height="8.9167366"
       x="147.31192"
       y="71.428413" />
    <g
       transform="translate(1.3003578,-1.4861227)"
       id="g4452">
      <path
         inkscape:connector-curvature="0"
         id="path4466"
         d="m 21.499613,119.61409 c -1.650213,-0.7192 -3.617813,-2.05159 -4.372445,-2.96086 -1.557605,-1.8768 -6.176698,-2.2037 -7.8265049,-0.55389 -2.2081497,2.20815 -5.1271142,-0.0608 -6.8843011,-5.35115 C 0.93216232,106.27968 0.79324162,103.07898 1.3773499,86.809546 1.7481929,76.480291 2.3084457,67.359778 2.6223562,66.541741 3.3778339,64.572997 8.7762727,63.636441 14.71033,64.44464 c 2.634319,0.358785 6.47717,0.593267 8.53967,0.521069 4.130973,-0.144603 121.4893,-0.184362 127.5,-0.04319 2.0625,0.04844 7.14762,-0.171719 11.30028,-0.489241 6.54358,-0.500339 7.87376,-0.315369 9.97646,1.387295 2.23293,1.808119 2.3154,2.171621 1.03532,4.563477 -1.54341,2.883884 -0.92088,4.83346 3.17376,9.939284 2.10425,2.623907 2.26418,3.789372 2.26418,16.5 0,11.939086 -0.25842,14.121326 -2.03402,17.176666 -4.25296,7.31821 -0.58863,7.0013 -80.46598,6.9593 -56.618403,-0.0298 -72.124483,-0.30975 -74.500387,-1.34521 z M 153.8,79.8 c 1.58146,-1.581457 1.5146,-2.342538 -0.37143,-4.228571 -2.24114,-2.241144 -5.17497,-1.945798 -5.98373,0.602375 -1.11304,3.506864 3.71797,6.26339 6.35516,3.626196 z m -128,-2 C 27.418022,76.181978 27.314603,73.505986 25.578361,72.065034 23.815988,70.602394 20,72.637853 20,75.040547 20,76.847522 21.902705,79 23.5,79 c 0.605,0 1.64,-0.54 2.3,-1.2 z"
         style="fill:#b1aaa3" />
      <path
         inkscape:connector-curvature="0"
         id="path4464"
         d="m 22,118.05208 c -8.015527,-4.45393 -9.991098,-5.12721 -11.957095,-4.07504 -3.5079106,1.87737 -4.9254433,1.1729 -6.05103,-3.00721 -0.5968672,-2.2166 -1.5142121,-3.76504 -2.0385441,-3.44099 C 0.81695544,108.23116 0.6168422,82.70957 1.75,81.59688 2.1625,81.191831 2.95,77.629331 3.5,73.680214 L 4.5,66.5 12,66.633783 c 11.384424,0.203073 9.592996,0.209747 73,-0.27198 44.83642,-0.34064 60.42672,-0.154193 63.26031,0.756538 2.94187,0.945533 4.25314,0.944828 6.02462,-0.0032 1.36706,-0.731631 5.22646,-1.093594 9.73969,-0.913462 L 171.5,66.5 l -0.28147,4.572901 c -0.23446,3.809235 0.21642,5.199404 2.6999,8.324452 1.79245,2.255507 3.24866,5.534066 3.65166,8.221471 1.10339,7.357932 -0.04,21.448296 -2.07638,25.588576 -3.44217,6.99835 -1.02774,6.79279 -79.763946,6.79105 C 28.032249,119.99695 25.373802,119.92677 22,118.05208 z M 154.96013,80.548039 c 1.72877,-2.083036 0.95012,-4.53008 -2.18575,-6.86911 -2.64654,-1.974038 -2.78436,-1.97987 -4.75,-0.200991 -2.48817,2.251761 -2.62896,6.070543 -0.27438,7.441963 2.53048,1.473868 5.81907,1.304258 7.21013,-0.371862 z M 27.027607,77.948415 c 1.455427,-2.719489 0.887279,-5.984083 -1.277607,-7.341173 -2.009074,-1.259416 -4.283425,-0.195582 -6.401415,2.994281 -1.112665,1.675764 -1.077598,2.340353 0.221346,4.194856 1.959964,2.79824 5.99742,2.88055 7.457676,0.152036 z"
         style="fill:#ae875d" />
      <path
         inkscape:connector-curvature="0"
         id="path4462"
         d="m 23.129816,118.92438 c -1.303602,-0.52187 -3.700628,-2.06834 -5.326726,-3.43661 -3.266694,-2.74875 -5.824132,-3.11609 -8.7916995,-1.26281 -3.0178681,1.88469 -4.7498533,-0.33257 -2.6271199,-3.3632 C 7.7273255,108.94428 8,105.50269 8,90.468623 8,70.52967 8.6960083,67.544186 12.753632,70.078214 c 1.847096,1.15353 2.331119,1.045501 3.926583,-0.87638 1.292532,-1.556972 2.471686,-2.014848 4.069785,-1.580333 2.886051,0.784701 2.832335,1.511494 -0.313898,4.247109 -3.088079,2.68505 -2.861505,4.72917 0.82934,7.482191 l 2.765442,2.062759 2.109558,-2.109558 c 2.57419,-2.57419 2.740644,-6.939251 0.331783,-8.700653 -3.165114,-2.314388 -0.758807,-3.803878 5.557468,-3.440041 3.193242,0.183941 6.142887,-0.0026 6.554767,-0.414435 1.475333,-1.475332 3.481104,-0.706626 4.389334,1.682201 1.195416,3.14418 8.374989,4.97627 11.659579,2.975302 2.372323,-1.445216 3.884813,-1.592526 13.336964,-1.298962 1.358685,0.0422 3.089987,0.961399 3.847338,2.042668 1.321499,1.886704 1.432254,1.89307 2.747859,0.157931 0.753973,-0.994407 1.385171,-2.558013 1.402663,-3.47468 0.03444,-1.805 1.811197,-2.803253 3.733435,-2.097597 0.660897,0.242616 1.708296,1.976328 2.327552,3.852692 1.222563,3.704402 2.403058,4.333508 3.37566,1.798948 0.497974,-1.2977 0.906298,-1.37404 2.090893,-0.390914 1.215728,1.008964 1.779614,0.681403 3.238167,-1.881053 0.971353,-1.70652 2.130154,-3.105609 2.575113,-3.109086 0.444959,-0.0035 0.571328,0.378265 0.28082,0.848317 -0.290508,0.470052 0.515012,1.834684 1.790045,3.032515 2.29614,2.157112 2.340858,2.159561 4.690518,0.256924 2.089,-1.691574 2.50455,-1.740042 3.4801,-0.405903 0.86487,1.182779 1.55632,1.275025 3.1528,0.420614 1.65408,-0.885236 2.38537,-0.71829 3.82582,0.873388 2.40659,2.659255 2.85736,2.522242 5.04081,-1.532178 2.21828,-4.119096 3.96719,-4.480388 4.84071,-1 0.81257,3.237517 2.17381,3.171192 3.93585,-0.191772 l 1.41036,-2.691772 0.68585,3.122674 c 0.37722,1.717471 1.33923,3.664926 2.1378,4.327679 1.20435,0.999519 1.7476,0.501453 3.18572,-2.920731 1.96506,-4.676104 2.79555,-5.102181 3.79669,-1.947874 l 0.69768,2.198204 1.78451,-2.20378 c 1.23237,-1.521914 1.94202,-1.815295 2.29358,-0.948204 0.39468,0.973456 0.72696,0.943946 1.47882,-0.131335 0.6733,-0.962919 1.84298,-1.162622 3.82613,-0.653244 3.07291,0.789287 3.58008,0.787434 16.22645,-0.05928 9.1403,-0.611969 11.00555,0.0948 9.19221,3.483043 -1.22328,2.285728 -0.13769,4.987768 4.19434,10.439721 2.05804,2.590084 2.24337,3.870603 2.24337,15.5 0,10.933521 -0.2797,13.157951 -2.03402,16.176671 -4.25053,7.31403 -0.69964,7.00414 -79.46598,6.93506 -41.976892,-0.0368 -71.458937,-0.44572 -72.870184,-1.01068 z m 4.263195,-9.50617 c 0.966021,-2.51741 0.702605,-16.241082 -0.323913,-16.875505 -0.511996,-0.316431 -1.232439,-0.08743 -1.600985,0.508889 -1.044605,1.690207 -1.803048,12.477786 -1.07986,15.359196 0.732315,2.91777 2.096212,3.37506 3.004758,1.00742 z m 57.841844,-8.42952 c -0.04237,-6.768242 -0.554794,-9.002084 -1.783211,-7.773668 -0.748463,0.748464 -1.235805,11.463238 -0.658696,14.482188 0.916003,4.79176 2.486885,0.47616 2.441907,-6.70852 z M 52.662281,102.75 c -0.277413,-0.6875 -0.504386,-0.125 -0.504386,1.25 0,1.375 0.226973,1.9375 0.504386,1.25 0.277412,-0.6875 0.277412,-1.8125 0,-2.5 z m 36.993656,-1.01903 c -0.273923,-0.67703 -0.481368,0.11903 -0.460988,1.76903 0.02038,1.65 0.244498,2.20394 0.498042,1.23097 0.253543,-0.97297 0.236869,-2.32297 -0.03705,-3 z m -37,-9.000002 C 52.382014,92.053936 52.174569,92.85 52.194949,94.5 c 0.02038,1.65 0.244498,2.203936 0.498042,1.230968 0.253543,-0.972967 0.236869,-2.322967 -0.03705,-3 z M 155.42857,80.428571 c 2.15527,-2.155266 1.99697,-2.953054 -1.16835,-5.888102 -3.08632,-2.8618 -4.20138,-3.085608 -6.42935,-1.290469 -2.39435,1.929191 -2.82506,4.313278 -1.19873,6.635198 1.77508,2.534276 6.51287,2.826939 8.79643,0.543373 z M 4.20784,108.9612 C 3.5075505,107.83986 2.4993045,107.19141 1.9672932,107.52021 1.3630125,107.89368 1,103.19501 1,95 1,86.509288 1.3527451,82.099974 2,82.5 c 0.5707236,0.352727 1.0326585,-0.587811 1.0760779,-2.190983 0.041843,-1.544959 0.6043429,-4.264774 1.25,-6.044032 C 5.2933953,71.599317 5.5,74.547237 5.5,91.014985 5.5,102.00674 5.4957461,111 5.4905468,111 c -0.0052,0 -0.5824173,-0.91746 -1.2827068,-2.0388 z"
         style="fill:#997146" />
      <path
         inkscape:connector-curvature="0"
         id="path4460"
         d="m 23.129816,118.92438 c -1.303602,-0.52187 -3.700628,-2.06834 -5.326726,-3.43661 -3.260169,-2.74326 -5.824061,-3.11613 -8.7711804,-1.27562 -2.6886655,1.67909 -3.5049036,0.43936 -1.612396,-2.44897 C 8.6391392,109.9018 9.1487829,105.21311 9.6572238,91.176418 10.261925,74.482239 10.797621,71.245493 12.5,74 c 1.057142,1.710491 1.978045,1.124684 3.930067,-2.5 1.070159,-1.987165 2.655777,-3.5 3.668387,-3.5 2.891518,0 3.011707,1.543545 0.30354,3.898266 -3.054892,2.656194 -2.817279,4.70706 0.863448,7.452535 l 2.765442,2.062759 2.109558,-2.109558 c 2.613647,-2.613647 2.72821,-6.928016 0.234558,-8.833354 -1.615423,-1.234305 -1.669478,-1.567341 -0.390457,-2.405617 1.065866,-0.698574 2.071126,-0.421909 3.564451,0.980997 2.845426,2.673138 8.457552,2.644942 9.161257,-0.04603 0.761316,-2.911279 1.936756,-2.454768 3.218546,1.25 0.618447,1.7875 2.124968,4.012749 3.347826,4.944998 C 47.393964,76.809159 47.5,77.58022 47.5,91.362649 c 0,13.937911 0.08952,14.568011 2.42291,17.053511 2.09035,2.22661 2.639377,2.39308 4,1.21283 0.8674,-0.75241 2.109123,-1.17439 2.759386,-0.93774 2.202396,0.80153 3.538607,-3.77602 3.143478,-10.768829 -0.402287,-7.11949 -1.318015,-9.362027 -2.826352,-6.921486 -1.601879,2.591895 -2.388834,-1.771696 -1.231571,-6.828945 0.638068,-2.788362 0.704244,-5.289872 0.166521,-6.294617 -0.582608,-1.088614 -0.463817,-2.02301 0.342236,-2.691974 1.936913,-1.607495 6.544392,-2.480397 8.471156,-1.604888 0.96373,0.437912 2.651174,0.823943 3.749876,0.857847 2.478464,0.07648 3.228646,4.340291 3.523335,20.025581 C 72.228014,105.4839 72.587238,108 73.953518,108 c 0.406748,0 0.521255,-5.66638 0.254461,-12.591958 -0.517257,-13.427238 0.728978,-22.280905 3.454656,-24.543017 1.297515,-1.076842 1.791942,-0.965886 2.997696,0.672722 1.159386,1.575593 1.384374,5.449774 1.141788,19.660992 -0.232785,13.637041 1.94e-4,17.997371 1.015202,19.000001 1.083029,1.06983 1.566569,0.96362 2.718744,-0.59712 1.127639,-1.52752 1.686948,-1.66143 2.86294,-0.68544 1.186049,0.98433 1.676033,0.81213 2.599643,-0.91365 0.837842,-1.56553 0.856985,-4.41885 0.07256,-10.814571 -1.462546,-11.924639 -1.359696,-21.411164 0.256091,-23.620883 1.239729,-1.695431 1.406242,-1.624587 2.523969,1.073844 0.682024,1.646551 1.326657,9.146213 1.498911,17.43834 0.16623,8.00212 0.708403,15.19538 1.204828,15.98503 1.468797,2.33635 2.195733,-3.16974 2.326682,-17.62316 0.08141,-8.985053 0.524675,-13.614602 1.420921,-14.8403 1.23826,-1.693413 1.37413,-1.69518 2.75,-0.03578 1.12132,1.352386 1.44739,5.125998 1.44739,16.750617 0,10.236293 0.3581,15.126353 1.12679,15.386913 2.08307,0.7061 2.36886,-2.76995 1.37321,-16.702581 -1.02333,-14.320048 -0.77,-17 1.60699,-17 1.50996,0 1.54137,0.362721 1.77508,20.5 0.14974,12.902341 0.96133,16.118441 3.27057,12.960361 0.98684,-1.34958 1.34736,-5.8227 1.34736,-16.717232 0,-8.341101 0.45469,-15.724214 1.03518,-16.80887 1.56296,-2.920402 3.80665,-2.323987 4.735,1.25865 l 0.82737,3.19291 1.32254,-3.19291 C 123.64749,73.436809 124.5899,72 125.01433,72 c 1.86681,0 2.46821,4.525456 2.59141,19.5 0.16433,19.97383 0.0951,19.19919 1.58359,17.71067 0.77426,-0.77426 1.39607,-7.11963 1.78169,-18.181691 0.61676,-17.692368 1.60753,-21.635323 4.46465,-17.767889 1.15188,1.559199 1.4448,1.587859 2.55513,0.25 C 138.68055,72.67999 140.08979,72 141.12244,72 c 1.03266,0 2.78787,-0.910313 3.90048,-2.022918 1.60672,-1.606721 2.42968,-1.805224 4,-0.964817 1.41627,0.757965 2.59285,0.728552 4.14791,-0.103693 1.73849,-0.930409 2.38653,-0.866816 3.25384,0.3193 2.09156,2.860379 5.54502,3.102154 10.18958,0.713369 4.78431,-2.460661 6.19442,-2.208988 4.33203,0.77317 -1.30377,2.087676 -0.0934,5.066685 4.31035,10.608919 2.05804,2.590084 2.24337,3.870603 2.24337,15.5 0,10.93352 -0.2797,13.15795 -2.03402,16.17667 -4.25053,7.31403 -0.69964,7.00414 -79.46598,6.93506 -41.976892,-0.0368 -71.458937,-0.44572 -72.870184,-1.01068 z M 28.106809,109.25 C 29.450958,105.75394 28.876021,90.474959 27.342641,88.942184 25.299562,86.899912 23.654633,91.94562 23.574727,100.5 c -0.07732,8.27744 0.60044,11.5 2.418639,11.5 0.580875,0 1.531924,-1.2375 2.113443,-2.75 z M 148.79298,99.907021 C 148.6277,95.164326 148.06413,91.5 147.5,91.5 c -1.13995,0 -1.9132,12.71753 -0.99556,16.37373 1.24326,4.95353 2.577,0.31061 2.28854,-7.966709 z M 164,104.5 c 0,-4.519663 -1.32911,-6.690698 -2.39522,-3.91247 -0.79876,2.08154 -0.77557,7.90835 0.0347,8.71862 C 163.01673,110.6834 164,108.6814 164,104.5 z m -129.434022,1 c 0.725663,-3.86812 -0.146623,-10.12279 -1.531067,-10.978424 -1.142452,-0.706074 -2.449448,9.596974 -1.569235,12.370284 1.001971,3.15692 2.361442,2.5466 3.100302,-1.39186 z M 16.6422,100.29546 C 15.702262,89.17601 14,88.534673 14,99.3 c 0,7.41121 0.243941,8.7 1.646736,8.7 1.442845,0 1.566099,-0.95394 0.995464,-7.70454 z M 138.30703,103.75 C 139.01263,98.492431 138.01664,87 136.8554,87 136.38493,87 136,91.725 136,97.5 c 0,10.62792 1.26102,14.04415 2.30703,6.25 z m -72.644749,0 c -0.277413,-0.6875 -0.504386,-0.125 -0.504386,1.25 0,1.375 0.226973,1.9375 0.504386,1.25 0.277412,-0.6875 0.277412,-1.8125 0,-2.5 z M 122.83003,86.5 c 0.0162,-2.2 -0.35734,-4.9 -0.83003,-6 -0.56634,-1.317937 -0.8494,0.898766 -0.83003,6.5 0.0197,5.706942 0.29248,7.678512 0.83003,6 0.44035,-1.375 0.81387,-4.3 0.83003,-6.5 z m 32.59854,-6.071429 c 2.15527,-2.155266 1.99697,-2.953054 -1.16835,-5.888102 -3.08632,-2.8618 -4.20138,-3.085608 -6.42935,-1.290469 -2.39435,1.929191 -2.82506,4.313278 -1.19873,6.635198 1.77508,2.534276 6.51287,2.826939 8.79643,0.543373 z M 1,95.135282 C 1,84.422439 1.2447798,82.333333 2.5,82.333333 c 1.2515427,0 1.5,2.02515 1.5,12.226345 C 4,104.50505 3.7201567,106.89341 2.5,107.36163 1.214805,107.8548 1,106.10395 1,95.135282 z M 55.194949,99.5 c -0.02038,-1.65 0.187065,-2.446064 0.460988,-1.769032 0.273923,0.677033 0.290597,2.027033 0.03705,3.000002 -0.25354,0.97297 -0.477659,0.41903 -0.498038,-1.23097 z m 31.456567,-7.84165 c -0.440852,-2.662908 -0.564692,-5.078507 -0.275201,-5.367999 0.836619,-0.836618 1.814285,4.186778 1.4283,7.33882 -0.285843,2.334256 -0.501363,1.9659 -1.153099,-1.970821 z"
         style="fill:#88633b" />
      <path
         inkscape:connector-curvature="0"
         id="path4458"
         d="m 23.129816,118.92438 c -1.303602,-0.52187 -3.700628,-2.06834 -5.326726,-3.43661 -3.260169,-2.74326 -5.824061,-3.11613 -8.7711804,-1.27562 -1.0675241,0.66667 -2.2951694,0.85792 -2.7281007,0.42499 -0.4329314,-0.43293 -0.021492,-1.21563 0.9143086,-1.73933 1.713465,-0.9589 2.0878994,-2.4202 3.4329745,-13.39781 l 0.735174,-6 1.056867,8 c 0.934105,7.07075 1.31036,8.03609 3.239206,8.31068 4.187379,0.59613 5.74185,-6.84942 3.40532,-16.31068 C 16.115705,81.465724 15.605756,75.049949 17.333247,71.427364 18.232165,69.542314 19.623365,68 20.424804,68 c 2.58211,0 2.572504,1.64167 -0.02281,3.898266 -3.054892,2.656194 -2.817279,4.70706 0.863448,7.452535 l 2.765442,2.062759 2.109558,-2.109558 c 2.613647,-2.613647 2.72821,-6.928016 0.234558,-8.833354 -1.62658,-1.24283 -1.676264,-1.563404 -0.375,-2.419599 1.014204,-0.667317 1.621449,-0.632989 1.875,0.105997 1.510248,4.401685 9.26587,7.186682 11.07745,3.977845 0.689136,-1.220663 1.213398,-1.347597 2.069176,-0.500987 0.771207,0.762946 1.109936,6.068942 1.035388,16.218771 -0.06094,8.296676 0.175237,16.224505 0.524831,17.617395 0.725161,2.88928 8.75117,7.06084 11.365737,5.90741 0.85383,-0.37667 2.276652,-0.59813 3.161828,-0.49213 0.885175,0.106 2.382875,-0.98773 3.328221,-2.43051 1.622057,-2.47557 1.822945,-2.529 3.568696,-0.94911 1.370323,1.24012 2.314121,1.41432 3.640654,0.67195 1.341152,-0.75054 2.487329,-0.50617 4.56507,0.97331 1.525865,1.08652 3.246585,1.68359 3.823822,1.32684 0.709049,-0.43822 0.827371,-5.90885 0.364733,-16.863477 C 75.707679,77.206806 76.41092,72.303004 79.317704,73.273004 80.167796,73.556682 80.5,78.620479 80.5,91.294761 c 0,15.254939 0.228762,17.856429 1.699812,19.330329 1.288684,1.29118 2.026869,1.43167 3.052036,0.58086 0.743723,-0.61724 2.260243,-0.8848 3.370044,-0.59458 1.155381,0.30214 2.561425,-0.12733 3.289672,-1.00481 1.142113,-1.37616 1.510209,-1.37631 3.608523,-0.001 2.159232,1.41478 2.418048,1.37899 3.408293,-0.4713 C 99.517771,108.03298 100,106.0039 100,104.6252 c 0,-1.3787 0.45,-2.78484 1,-3.12476 0.56965,-0.35206 1,0.51153 1,2.00672 0,1.44362 0.46583,3.49518 1.03518,4.55902 1.15931,2.16619 4.54626,2.60623 5.26673,0.68426 0.32415,-0.86469 0.93848,-0.6376 1.99302,0.73672 1.36941,1.78469 1.71158,1.83554 3.36475,0.5 1.01218,-0.81769 2.83942,-2.04467 4.06055,-2.7266 1.93556,-1.08091 2.36605,-0.96743 3.35749,0.8851 2.14065,3.99984 2.89125,-0.23355 2.90697,-16.39522 0.008,-8.6625 0.41677,-15.75 0.90744,-15.75 1.22041,0 2.47031,18.729331 1.6486,24.70384 -0.95991,6.9794 1.99765,13.54745 3.8853,8.62833 0.352,-0.9173 0.86919,-6.6548 1.14931,-12.749997 0.72245,-15.720128 1.43209,-21.695614 2.4983,-21.036659 0.5095,0.314886 0.93325,7.633462 0.94167,16.263503 0.016,16.355553 0.81362,20.272183 3.43138,16.848753 2.08251,-2.72345 2.84477,-8.945665 1.63126,-13.315887 C 139.49121,93.228848 139.0234,88.125 139.03837,84 l 0.0272,-7.5 4.49819,-3.846726 c 3.74593,-3.203408 4.75096,-3.636953 6.00959,-2.592382 1.14479,0.950089 1.79219,0.973551 2.66901,0.09673 1.81736,-1.817354 3.33945,-1.37081 4.57567,1.342382 0.74817,1.642066 1.95164,2.5 3.50687,2.5 2.86574,0 8.7161,-2.777144 10.39328,-4.93365 1.53791,-1.977437 1.65844,-0.642305 0.15879,1.759009 -1.22483,1.961266 0.0781,5.084409 4.37964,10.497971 2.05804,2.590084 2.24337,3.870603 2.24337,15.5 0,10.933516 -0.2797,13.157946 -2.03402,16.176666 -4.25053,7.31403 -0.69964,7.00414 -79.46598,6.93506 -41.976892,-0.0368 -71.458937,-0.44572 -72.870184,-1.01068 z M 28.181954,110.5 c 1.297042,-2.8467 2.344604,-3.17615 3.179672,-1 0.903424,2.35428 2.301491,1.78116 4.556815,-1.86803 C 37.551154,104.99018 38,102.61825 38,96.631966 38,89.772706 36.958959,86.886461 35.698085,90.25 c -0.323767,0.86369 -0.945545,0.631904 -2.011913,-0.75 -1.431023,-1.854459 -1.5927,-1.872651 -2.221741,-0.25 -1.016238,2.621453 -2.225145,2.115945 -2.961912,-1.238532 -0.908855,-4.13799 -2.111752,-4.537488 -4.176077,-1.386929 -1.363903,2.081579 -1.753646,4.740521 -1.726963,11.781866 0.04735,12.496015 2.740669,18.330685 5.582475,12.093595 z M 149.5,110 c 0.33992,-0.55 1.5056,-1 2.5904,-1 1.0848,0 2.25562,-0.73813 2.60181,-1.6403 0.52889,-1.37827 0.80343,-1.41821 1.71862,-0.25 0.59904,0.76467 2.25996,1.99314 3.69092,2.72994 2.37172,1.22119 2.85189,1.10782 5.4308,-1.28222 2.80434,-2.59898 2.81752,-2.66741 1.50944,-7.83964 C 164.48409,90.603602 162.70871,88.328074 161.41064,93.5 160.79525,95.951945 159,97.025068 159,94.940983 159,94.358524 158.55,94.160081 158,94.5 c -0.55,0.339919 -1,1.641476 -1,2.89235 0,4.64904 -1.45697,3.41473 -5.17207,-4.381612 C 149.72844,88.604832 147.61453,85 147.13034,85 c -2.11055,0 -3.02343,18.52079 -1.15509,23.4349 1.01037,2.65748 2.45357,3.29831 3.52475,1.5651 z m 5.92857,-29.571429 c 2.15527,-2.155266 1.99697,-2.953054 -1.16835,-5.888102 -3.08632,-2.8618 -4.20138,-3.085608 -6.42935,-1.290469 -2.39435,1.929191 -2.82506,4.313278 -1.19873,6.635198 1.77508,2.534276 6.51287,2.826939 8.79643,0.543373 z M 1,95.135282 C 1,84.422439 1.2447798,82.333333 2.5,82.333333 c 1.2515427,0 1.5,2.02515 1.5,12.226345 C 4,104.50505 3.7201567,106.89341 2.5,107.36163 1.214805,107.8548 1,106.10395 1,95.135282 z M 68.685644,103.25 c -0.237814,-0.4125 -0.0957,-2.775 0.315817,-5.25 l 0.748206,-4.5 0.125166,5.25 c 0.118478,4.96944 -0.207466,6.20284 -1.189189,4.5 z m 48.412186,-6.399223 c -1.31615,-3.775503 -1.47086,-18.502195 -0.20261,-19.286016 1.49168,-0.921915 2.20641,2.444653 2.69177,12.678994 0.47248,9.962845 -0.45818,12.433115 -2.48916,6.607022 z M 61.736707,88.731485 c -0.554933,-5.645989 0.143152,-8.286533 1.36551,-5.165109 1.059753,2.706195 1.075075,9.206018 0.02323,9.856092 -0.481002,0.297275 -1.105936,-1.813667 -1.388743,-4.690983 z"
         style="fill:#635f5b" />
      <path
         inkscape:connector-curvature="0"
         id="path4456"
         d="m 19.676686,115.29658 c -2.437623,-1.7344 -5.136474,-2.72012 -7.529332,-2.75 L 8.417576,112.5 9.2016736,109 c 0.4312536,-1.925 1.0992094,-6.2 1.4843454,-9.5 l 0.700247,-6 1.056867,8 c 0.934105,7.07075 1.31036,8.03609 3.239206,8.31068 4.187379,0.59613 5.74185,-6.84942 3.40532,-16.31068 C 16.390223,82.577322 15.66898,75.213366 16.985362,72.03534 17.676865,70.365903 18.941488,69 19.795634,69 c 1.225024,0 1.093809,0.48878 -0.62132,2.314451 -2.577967,2.74412 -2.720078,4.46135 -0.61761,7.463043 C 19.647561,80.334911 21.133292,81 23.52152,81 c 4.088064,0 5.864885,-2.564443 5.275395,-7.61385 -0.422223,-3.616651 0.518766,-4.431378 2.019949,-1.748913 1.261675,2.254489 6.947396,2.602285 8.135586,0.497654 0.689136,-1.220663 1.213398,-1.347597 2.069176,-0.500987 0.771207,0.762946 1.109936,6.068942 1.035388,16.218771 -0.06094,8.296676 0.175237,16.224505 0.524831,17.617395 0.725161,2.88928 8.75117,7.06084 11.365737,5.90741 0.85383,-0.37667 2.276652,-0.59813 3.161828,-0.49213 0.885175,0.106 2.382875,-0.98773 3.328221,-2.43051 1.622057,-2.47557 1.822945,-2.529 3.568696,-0.94911 1.370323,1.24012 2.314121,1.41432 3.640654,0.67195 1.341152,-0.75054 2.487329,-0.50617 4.56507,0.97331 1.525865,1.08652 3.246585,1.68359 3.823822,1.32684 0.709049,-0.43822 0.827371,-5.90885 0.364733,-16.863477 C 75.707679,77.206806 76.41092,72.303004 79.317704,73.273004 80.167796,73.556682 80.5,78.620479 80.5,91.294761 c 0,15.254939 0.228762,17.856429 1.699812,19.330329 1.288684,1.29118 2.026869,1.43167 3.052036,0.58086 0.743723,-0.61724 2.260243,-0.8848 3.370044,-0.59458 1.155381,0.30214 2.561425,-0.12733 3.289672,-1.00481 1.142113,-1.37616 1.510209,-1.37631 3.608523,-0.001 2.159232,1.41478 2.418048,1.37899 3.408293,-0.4713 C 99.517771,108.03298 100,106.0039 100,104.6252 c 0,-1.3787 0.45,-2.78484 1,-3.12476 0.56965,-0.35206 1,0.51153 1,2.00672 0,1.44362 0.46583,3.49518 1.03518,4.55902 1.15931,2.16619 4.54626,2.60623 5.26673,0.68426 0.32415,-0.86469 0.93848,-0.6376 1.99302,0.73672 1.36941,1.78469 1.71158,1.83554 3.36475,0.5 1.01218,-0.81769 2.83942,-2.04467 4.06055,-2.7266 1.93556,-1.08091 2.36605,-0.96743 3.35749,0.8851 2.14065,3.99984 2.89125,-0.23355 2.90697,-16.39522 0.008,-8.6625 0.41677,-15.75 0.90744,-15.75 1.22041,0 2.47031,18.729331 1.6486,24.70384 -0.95991,6.9794 1.99765,13.54745 3.8853,8.62833 0.352,-0.9173 0.86919,-6.6548 1.14931,-12.749997 0.72245,-15.720128 1.43209,-21.695614 2.4983,-21.036659 0.5095,0.314886 0.93325,7.633462 0.94167,16.263503 0.016,16.355553 0.81362,20.272183 3.43138,16.848753 2.08251,-2.72345 2.84477,-8.945665 1.63126,-13.315887 C 139.49121,93.228848 139.0234,88.125 139.03837,84 l 0.0272,-7.5 4.45998,-3.813483 c 2.45299,-2.097416 4.92831,-3.52404 5.50071,-3.170276 0.61416,0.379571 0.002,1.460036 -1.49277,2.636064 -3.20779,2.523241 -3.55629,8.229951 -0.59925,9.812511 2.61187,1.397829 7.39196,1.308966 8.86574,-0.164816 2.14204,-2.142044 1.40589,-6.483205 -1.45247,-8.565379 -1.53029,-1.114734 -2.35146,-2.419239 -1.94099,-3.083406 1.18424,-1.916131 3.20548,-1.29815 4.41151,1.348785 0.82323,1.806804 1.9214,2.5 3.96051,2.5 1.55179,0 3.24894,-0.399422 3.77144,-0.887605 0.5225,-0.488183 1.9625,-1.193508 3.2,-1.567388 1.90216,-0.574692 2.25,-0.304453 2.25,1.748058 0,1.335313 1.2375,4.178137 2.75,6.317388 2.59455,3.669686 2.76855,4.606534 3.07816,16.573706 0.36476,14.098741 -0.8093,18.574961 -5.4234,20.677281 C 168.60981,117.67927 147.56326,118 95.691067,118 l -72.214827,0 -3.799554,-2.70342 z M 28.181954,110.5 c 1.297042,-2.8467 2.344604,-3.17615 3.179672,-1 0.903424,2.35428 2.301491,1.78116 4.556815,-1.86803 C 37.551154,104.99018 38,102.61825 38,96.631966 38,89.772706 36.958959,86.886461 35.698085,90.25 c -0.323767,0.86369 -0.945545,0.631904 -2.011913,-0.75 -1.431023,-1.854459 -1.5927,-1.872651 -2.221741,-0.25 -1.016238,2.621453 -2.225145,2.115945 -2.961912,-1.238532 -0.908855,-4.13799 -2.111752,-4.537488 -4.176077,-1.386929 -1.363903,2.081579 -1.753646,4.740521 -1.726963,11.781866 0.04735,12.496015 2.740669,18.330685 5.582475,12.093595 z M 149.5,110 c 0.33992,-0.55 1.5056,-1 2.5904,-1 1.0848,0 2.25562,-0.73813 2.60181,-1.6403 0.52889,-1.37827 0.80343,-1.41821 1.71862,-0.25 0.59904,0.76467 2.25996,1.99314 3.69092,2.72994 2.37172,1.22119 2.85189,1.10782 5.4308,-1.28222 2.80434,-2.59898 2.81752,-2.66741 1.50944,-7.83964 C 164.48409,90.603602 162.70871,88.328074 161.41064,93.5 160.79525,95.951945 159,97.025068 159,94.940983 159,94.358524 158.55,94.160081 158,94.5 c -0.55,0.339919 -1,1.641476 -1,2.89235 0,4.64904 -1.45697,3.41473 -5.17207,-4.381612 C 149.72844,88.604832 147.61453,85 147.13034,85 c -2.11055,0 -3.02343,18.52079 -1.15509,23.4349 1.01037,2.65748 2.45357,3.29831 3.52475,1.5651 z m -80.814356,-6.75 c -0.237814,-0.4125 -0.0957,-2.775 0.315817,-5.25 l 0.748206,-4.5 0.125166,5.25 c 0.118478,4.96944 -0.207466,6.20284 -1.189189,4.5 z m 48.412186,-6.399223 c -1.31615,-3.775503 -1.47086,-18.502195 -0.20261,-19.286016 1.49168,-0.921915 2.20641,2.444653 2.69177,12.678994 0.47248,9.962845 -0.45818,12.433115 -2.48916,6.607022 z M 61.736707,88.731485 c -0.554933,-5.645989 0.143152,-8.286533 1.36551,-5.165109 1.059753,2.706195 1.075075,9.206018 0.02323,9.856092 -0.481002,0.297275 -1.105936,-1.813667 -1.388743,-4.690983 z"
         style="fill:#705131" />
      <path
         inkscape:connector-curvature="0"
         id="path4454"
         d="m 20.634859,115.92742 c -3.173296,-2.49611 -3.24321,-3.0664 -0.579838,-4.72971 1.789163,-1.11735 2.294304,-0.98788 3.904613,1.00077 1.7472,2.1577 1.953012,2.19055 3.717817,0.59342 1.280537,-1.15887 2.3329,-1.39924 3.345388,-0.76414 1.869605,1.17275 4.865374,0.30158 7.619322,-2.2157 2.131376,-1.94821 2.14999,-1.94689 3.696962,0.26172 1.308091,1.86756 2.751671,2.2966 9.097702,2.70386 4.879962,0.31318 8.030245,0.0796 8.923319,-0.66157 C 61.373229,111.27528 63.672312,111.2444 69,112 c 5.479278,0.7771 7.615372,0.73418 8.710921,-0.17505 1.127285,-0.93556 1.879103,-0.93757 3.366014,-0.009 2.156825,1.34696 16.75679,1.33858 18.551428,-0.0106 0.620597,-0.46657 2.195597,-0.47356 3.499997,-0.0155 1.3044,0.45802 4.39664,0.65125 6.87164,0.4294 2.475,-0.22186 6.525,-0.41089 9,-0.42008 2.475,-0.009 4.84573,-0.53024 5.2683,-1.1579 0.53516,-0.79491 1.08126,-0.61017 1.79969,0.6088 1.29389,2.1954 2.75912,2.21644 5.1269,0.0736 1.42006,-1.28514 2.12691,-1.40183 3.02874,-0.5 1.70433,1.70433 3.60966,1.45267 6.55755,-0.86615 l 2.59664,-2.04251 1.44855,2.38734 c 1.40594,2.31711 1.77193,2.37831 12.44004,2.08023 6.04532,-0.1689 11.27096,-0.59145 11.61254,-0.93899 0.34158,-0.34753 0.47688,-8.23951 0.30067,-17.537715 C 169.00257,84.563073 169.25396,77 169.74156,77 c 0.48528,0 1.97945,1.4625 3.32038,3.25 2.23277,2.976336 2.46569,4.31806 2.76622,15.934159 0.36476,14.098741 -0.8093,18.574961 -5.4234,20.677281 C 168.60971,117.67932 147.53722,118 95.587806,118 c -71.648067,0 -72.3425,-0.0192 -74.952947,-2.07258 z M 153.5,84 c 0.33992,-0.55 1.06803,-1 1.61803,-1 0.55,0 0.72189,0.45 0.38197,1 -0.33992,0.55 -1.06803,1 -1.61803,1 -0.55,0 -0.72189,-0.45 -0.38197,-1 z m 0,-12 c -0.33992,-0.55 -0.16803,-1 0.38197,-1 0.55,0 1.27811,0.45 1.61803,1 0.33992,0.55 0.16803,1 -0.38197,1 -0.55,0 -1.27811,-0.45 -1.61803,-1 z"
         style="fill:#2b2825" />
    </g>
    <path
       inkscape:connector-curvature="0"
       id="rect4502"
       d="m 23.431429,55.002732 c -0.984746,0 -1.78125,0.752688 -1.78125,1.721263 l 0,7.653472 c 0,0.968576 0.796504,1.752 1.78125,1.752 l 3.03125,0 c 0.984746,0 1.78125,-0.783424 1.78125,-1.752 l 0,-7.653472 c 0,-0.968575 -0.796504,-1.721263 -1.78125,-1.721263 l -3.03125,0 z m 0.78125,2.735579 1.4375,0 c 0.500445,0 0.90625,0.399141 0.90625,0.891368 l 0,3.872841 c 0,0.492227 -0.405805,0.891369 -0.90625,0.891369 l -1.4375,0 c -0.500445,0 -0.90625,-0.399142 -0.90625,-0.891369 l 0,-3.872841 c 0,-0.492227 0.405805,-0.891368 0.90625,-0.891368 z"
       style="fill:url(#radialGradient4513);fill-opacity:1;fill-rule:evenodd;stroke:none" />
    <rect
       ry="1.4861227"
       y="61.304195"
       x="23.313549"
       height="11.331686"
       width="2.9722455"
       id="rect4488"
       style="fill:url(#radialGradient4498);fill-opacity:1;fill-rule:evenodd;stroke:none" />
    <rect
       style="fill:url(#radialGradient4517);fill-opacity:1;fill-rule:evenodd;stroke:none"
       id="rect4515"
       width="2.9722455"
       height="11.331686"
       x="23.499315"
       y="47.55756"
       ry="1.4861227" />
    <path
       style="fill:url(#radialGradient4525);fill-opacity:1;fill-rule:evenodd;stroke:none"
       d="m 150.86645,57.231916 c -0.98474,0 -1.78125,0.752688 -1.78125,1.721263 l 0,7.653472 c 0,0.968576 0.79651,1.752 1.78125,1.752 l 3.03125,0 c 0.98475,0 1.78125,-0.783424 1.78125,-1.752 l 0,-7.653472 c 0,-0.968575 -0.7965,-1.721263 -1.78125,-1.721263 l -3.03125,0 z m 0.78125,2.735579 1.4375,0 c 0.50045,0 0.90625,0.399141 0.90625,0.891368 l 0,3.872841 c 0,0.492227 -0.4058,0.891369 -0.90625,0.891369 l -1.4375,0 c -0.50044,0 -0.90625,-0.399142 -0.90625,-0.891369 l 0,-3.872841 c 0,-0.492227 0.40581,-0.891368 0.90625,-0.891368 z"
       id="path4519"
       inkscape:connector-curvature="0" />
    <rect
       style="fill:url(#radialGradient4527);fill-opacity:1;fill-rule:evenodd;stroke:none"
       id="rect4521"
       width="2.9722455"
       height="11.331686"
       x="150.74857"
       y="63.533379"
       ry="1.4861227" />
    <rect
       ry="1.4861227"
       y="49.786743"
       x="150.93434"
       height="11.331686"
       width="2.9722455"
       id="rect4523"
       style="fill:url(#radialGradient4529);fill-opacity:1;fill-rule:evenodd;stroke:none" />
  </g>
</svg>
